<mxfile host="65bd71144e">
    <diagram id="HIP3nbAZw_EuaXWnEj3U" name="Page-1">
        <mxGraphModel dx="451" dy="315" grid="1" gridSize="10" guides="1" tooltips="1" connect="1" arrows="1" fold="1" page="1" pageScale="1" pageWidth="850" pageHeight="1100" math="0" shadow="0">
            <root>
                <mxCell id="0"/>
                <mxCell id="1" parent="0"/>
                <mxCell id="20" value="http://ics2o.mths.ca" style="swimlane;whiteSpace=wrap;html=1;" vertex="1" parent="1">
                    <mxGeometry x="45" y="20" width="760" height="320" as="geometry"/>
                </mxCell>
                <mxCell id="21" value="&lt;font style=&quot;color: light-dark(rgb(0, 0, 0), rgb(255, 255, 255));&quot;&gt;The random number is: 4&lt;/font&gt;" style="text;html=1;align=left;verticalAlign=middle;resizable=0;points=[];autosize=1;strokeColor=none;fillColor=none;fontSize=15;fontColor=light-dark(#000000,#FFFFFF);" vertex="1" parent="20">
                    <mxGeometry x="30" y="270" width="190" height="30" as="geometry"/>
                </mxCell>
                <mxCell id="22" value="Generate" style="rounded=1;whiteSpace=wrap;html=1;fontSize=20;" vertex="1" parent="20">
                    <mxGeometry x="30" y="210" width="100" height="40" as="geometry"/>
                </mxCell>
                <mxCell id="23" value="" style="ellipse;whiteSpace=wrap;html=1;" vertex="1" parent="20">
                    <mxGeometry x="40" y="150" width="30" height="30" as="geometry"/>
                </mxCell>
                <mxCell id="24" value="Positive" style="text;html=1;align=center;verticalAlign=middle;resizable=0;points=[];autosize=1;strokeColor=none;fillColor=none;" vertex="1" parent="20">
                    <mxGeometry x="70" y="150" width="70" height="30" as="geometry"/>
                </mxCell>
                <mxCell id="25" value="Negative" style="text;html=1;align=center;verticalAlign=middle;resizable=0;points=[];autosize=1;strokeColor=none;fillColor=none;" vertex="1" parent="20">
                    <mxGeometry x="240" y="150" width="70" height="30" as="geometry"/>
                </mxCell>
                <mxCell id="26" value="" style="ellipse;whiteSpace=wrap;html=1;" vertex="1" parent="20">
                    <mxGeometry x="210" y="150" width="30" height="30" as="geometry"/>
                </mxCell>
                <mxCell id="27" value="" style="ellipse;whiteSpace=wrap;html=1;" vertex="1" parent="20">
                    <mxGeometry x="47.5" y="157.5" width="15" height="15" as="geometry"/>
                </mxCell>
                <mxCell id="28" value="" style="shape=image;verticalLabelPosition=bottom;labelBackgroundColor=default;verticalAlign=top;aspect=fixed;imageAspect=0;image=data:image/jpeg,/9j/4AAQSkZJRgABAQEBIAEgAAD/4QAiRXhpZgAATU0AKgAAAAgAAQESAAMAAAABAAEAAAAAAAD/2wBDAAIBAQIBAQICAgICAgICAwUDAwMDAwYEBAMFBwYHBwcGBwcICQsJCAgKCAcHCg0KCgsMDAwMBwkODw0MDgsMDAz/2wBDAQICAgMDAwYDAwYMCAcIDAwMDAwMDAwMDAwMDAwMDAwMDAwMDAwMDAwMDAwMDAwMDAwMDAwMDAwMDAwMDAwMDAz/wAARCALQBQADASIAAhEBAxEB/8QAHwAAAQUBAQEBAQEAAAAAAAAAAAECAwQFBgcICQoL/8QAtRAAAgEDAwIEAwUFBAQAAAF9AQIDAAQRBRIhMUEGE1FhByJxFDKBkaEII0KxwRVS0fAkM2JyggkKFhcYGRolJicoKSo0NTY3ODk6Q0RFRkdISUpTVFVWV1hZWmNkZWZnaGlqc3R1dnd4eXqDhIWGh4iJipKTlJWWl5iZmqKjpKWmp6ipqrKztLW2t7i5usLDxMXGx8jJytLT1NXW19jZ2uHi4+Tl5ufo6erx8vP09fb3+Pn6/8QAHwEAAwEBAQEBAQEBAQAAAAAAAAECAwQFBgcICQoL/8QAtREAAgECBAQDBAcFBAQAAQJ3AAECAxEEBSExBhJBUQdhcRMiMoEIFEKRobHBCSMzUvAVYnLRChYkNOEl8RcYGRomJygpKjU2Nzg5OkNERUZHSElKU1RVVldYWVpjZGVmZ2hpanN0dXZ3eHl6goOEhYaHiImKkpOUlZaXmJmaoqOkpaanqKmqsrO0tba3uLm6wsPExcbHyMnK0tPU1dbX2Nna4uPk5ebn6Onq8vP09fb3+Pn6/9oADAMBAAIRAxEAPwD9/KKKKACiiigAooooAKKKKACiiigAooooAKKKKACiiigAooooAKKKKACiiigAooooAKKKKACiiigAooooAKKKKACiiigAooooAKKKKACiiigAooooAKKKKACiiigAooooAKKKKACiiigAooooAKKKKACiiigAooooAKKKKACiiigAooooAKKKKACiiigAooooAKKKKACiiigAooooAKKKKACiiigAooooAKKKKACiiigAooooAKKKKACiiigAooooAKKKKACiiigAooooAKKKKACiiigAooooAKKKKACiiigAooooAKKKKACiiigAooooAKKKKACiiigAooooAKKKKACiiigAooooAKKKKACiiigAooooAKKKKACiiigAooooAKKKKACiiigAooooAKKKKACiiigAooooAKKKKACiiigAooooAKKKKACiiigAooooAKKKKACiiigAooooAKKKKACiiigAooooAKKKKACiiigAooooAKKKKACiiigAooooAKKKKACiiigAooooAKKKKACiiigAooooAKKKKACiiigAooooAKKKKACiiigAooooAKKKKACiiigAooooAKKKKACiiigAooooAKKKKACiiigAooooAKKKKACiiigAooooAKKKKACiiigAooooAKKKKACiiigAooooAKKKKACiiigAooooAKKKKACiiigAooooAKKKKACiiigAooooAKKKKACiiigAooooAKKKKACiiigAooooAKKKKACiiigAooooAKKKKACiiigAooooAKKKKACiiigAooooAKKKKACiiigAooooAKKKKACiiigAooooAKKKKACiiigAooooAKKKKACiiigAooooAKKKKACiiigAooooAKKKKACiiigAooooAKKKKACiiigAooooAKKKKACiiigAooooAKKKKACiiigAooooAKKKKACiiigAooooAKKKKACiiigAooooAKKKKACiiigAooooAKKKKACiiigAooooAKKKKACiiigAooooAKKKKACiiigAooooAKKKKACiiigAooooAKKKKACiiigAooooAKKKKACiiigAooooAKKKKACiiigAooooAKKKKACiiigAooooAKKKKACiiigAooooAKKKKACiiigAooooAKKKKACiiigAooooAKKKKACiiigAooooAKKKKACiiigAooooAKKKKACiiigAooooAKKKKACiiigAooooAKKKKACiiigAooooAKKKKACiiigAooooAKKKKACiiigAooooAKKKKACiiigAooooAKKKKACiiigAooooAKKKKACiiigAooooAKKKKACiiigAooooAKKKKACiiigAooooAKKKKACiiigAooooAKKKKACiiigAooooAKKKKACiiigAooooAKKKKACiiigAooooAKKKKACiiigAooooAKKKKACiiigAooooAKKKKACiiigAooooAKKKKACiiigAooooAKKKKACiiigAooooAKKKKACiiigAooooAKKKKACiiigAooooAKKKKACiiigAooooAKKKKACiiigAooooAKKKKACiiigAooooAKKKKACiiigAooooAKKKKACiiigAooooAKKKKACiiigAooooAKKKKACiiigAooooAKKKKACiiigAooooAKKKKACiiigAooooAKKKKACiiigAooooAKKKKACiiigAooooAKKKKACiiigAooooAKKKKACiiigAooooAKKKKACiiigAooooAKKKKACiiigAooooAKKKKACiiigAooooAKKKKACiiigAooooAKKKKACiiigAooooAKKKKACiiigAooooAKKKKACiiigAooooAKKKKACiiigAooooAKKKKACiiigAooooAKKKKACiiigAooooAKKKKACiiigAooooAKKKKACiiigAooooAKKKKACiiigAooooAKKKKACiiigAooooAKKKKACiiigAooooAKKKKACiiigAooooAKKKKACiiigAooooAKKKKACiiigAooooAKKKKACiiigAooooAKKKKACiiigAooooAKKKKACiiigAooooAKKKKACiiigAooooAKKKKACiiigAooooAKKKKACiiigAooooAKKKKACiiigAooooAKKKKACiiigAooooAKKKKACiiigAooooAKKKKACiiigAooooAKKKKACiiigAooooAKKKKACiijNABRRRQAUUZxRmgAooooAKKKKACiiigAoozRmgAoozijOaACiiigAooooAKKKKACiiigAooooAKKKKACiiigAooooAKKKKACiiigAoozRQAUUUUAFFFFABRRRmgAoozRnNABRRRQAUUUUAFFFFABRRRQAUUUUAFFFFABRRRQAUUZooAKKKKACiiigAooooAKKKKACiiigAooozQAUUZooAKKM0UAFFFFABRRRQAUUUUAFFFFABRRmjNABRRmjOaACiiigAooooAKKKKACiiigAooooAKKKKACiiigAooooAKKKKACiiigAooooAKKKKACiiigAooooAKKKKACiiigAooooAKKKKACiiigAooooAKKKKACiiigAooooAKKKKACiiigAooooAKKKKACiiigAooooAKKKKACiiigAooooAKKKKACiiigAooooAYR/KlC/h7183/8ABQ79qLxV+y74C0XUvDEGjyXGpah9kmGoQyTKq+W7/KEdOfkr5Lf/AIK5/F4cG28Dr/u6dcbvrzc19lknAOa5thvrWDScNtXY/MeJ/FrIcix39nY9y9pvpG6+8/UQHijHH/1q/LRP+Cs3xe9fCUn+y2mS7f0nruvhd/wWN120vo4/Gfh3Tbq0kb97caS7xSRD2ikJ3Y6/fHQ16WM8K8/oQ53BS9HqeNgfHfhfE1vY88o+bjofoeRu47UuzJ/DFct8MfiZpPxa8IWevaHfR32nXyb4pY+n0I7EehrqAwbpX57UhKnL2cviP2DD4ilXpRrUZc0ZaokHAopjycUr9ak3HUU3fSPJxQAp5FAbcPeoS28fWvm79t39viH9lTWNP0fT9J/trXL6L7U8Uk3kxW8BLKHZsEksysFUD+E+2e/LcrxOPxEcJhI805HjZ5n2DyjByx2Oly04219T6WJ+TmlTgCvlH9jL/go6v7S/xAn8N6tocWi6lJA1xZtBcGaO4VcbgSVUhlzXrHxv/a78Efs8+INL0vxVqk2n3WrRtJBttpJFCqQCWZQQvJHWuvGcO5jhsZ9Qq0n7S17LX8jzss4zyjG5d/alGsvY3td6a/M9Uc4pVOBXnXw0/ak8B/GDWP7P8M+KtI1fUPKM7WsFwrTKgxkleoHI/Ou6vb2PT7WSeR/3cClnb+6AMmvKrYWtRn7OrFxl2eh7mFzLC4mj7fD1FKPdO6Le8LS/er4F8f8A/BYy40fxrfWWg+FLPUdLtrhoori41AwyTgcFtoiIAPP8R/pX1l+zR8fNP/aN+FFj4lsY5IPtGY7iB2+a1mU4dM/xAHoe4INe3mnCuZ5dQjicXT5Yy2Pmcj4+yXN8XPA4KrzVI7r/AC7npVFNTrUb9K+fPtCaio6kpXQBRUdOfrTAdRUcJ4qSgAoqOigCSio6KAJKKh8ynVPMBJRUeab5lUBNRUcJpz9aAGgfNjvSjrUAyP7/ALV8P/8ABQP9t74gfAL43R6H4dvNPttP+wR3GJ7ITM7MzAkHPt+levkOR4jOMX9TwlubfXQ+Z4r4qwfD+C+vY6/LdLTXVn3MzginBq+AP+Cc/wC1J8Rvjn+0LJaeIvE1xqemR6fLM9r9mt4otxIC42ICcc96+/Twa04i4fxGTYr6pibOVk9PMz4P4swvEWA/tDCRajdrXyHfdzSdDVDVbt9O064lj/eeXEzD/eAr80fE/wDwVf8AitLqV5a28fhWzj810iaKwlaZQCQOWmKk/wDAa6eHOE8fnc5QwKXu73dtzg4x8QMr4ajTeY39+9rK+x+ngbnFOHzN0r5H/wCCdv7c918ere48N+Lry3k8T2pM8EyqsS3sPsqgAMvtX1kz5T3rzc4yfFZZi5YPFxtKP3fI9nhviTBZ1gI5hgZc0Jfen2fmSMN4o/Svz7/ah/4KX/Er4VfHjxP4Z0e18LJp+jz+VC91YzyTFfLVtxInUHkn+HtXbf8ABPP9uLx1+0l8V9W0PxONE+x2+ltexfZLR4ZN4lROpkcbcMeOte/iOBc0oZb/AGpVS9nZPfWz8j5PB+K2SYnOP7Dpc3tbtbaXXn8j7SoqOivjj9MJKKjp2+gB1FQvJTqAJKKhSSnUASUVHmmv0oAmpCuTUD96jurlbaF5P4E+ZqLN7ETmo6stH5u9J5g3V4J4d/4KM/CXX7meBfFVvp/2dyjnUI3tVyDjguBmvYPCXjTS/iB4et9X0bULfUtMvE3xXFu+6OXtwRXbistxOGV8RTcfVM87AZ5gMbOUMJVjNx3s0bSkMtBbao+teN/tj/tXWv7KPw6t9Yks21PUNQuPstlZ7/LEz4LMWbB2qFUnOP514R+z5/wVll+JHxQ0vQfEXhm30e31i4S0guoL0zbZnO1FZSi8EkDPuK9PA8K5ni8FLH0KfNTj19D5/NePsly7MY5Xi6vLVlbT121Pt8HNFMWXcufxpd9fPn2lx1FN30b6AHUUx5OKXfQA6g01+tCn5aABeaCMCmq3r97rxXzL/wAFF/2ufFH7K+keGZPDNvpM82tzzJKb+CSVYwiKeAjoc8mu7Lctr4/FRwmHV5S2PGz/ADzDZPgKmY4z+HDe2p9N5yM0hGR/Wvy60P8A4KufE4eN9P1DVJNJOj28q/atNsrMR/aE7gM7Owb+7gjpX6O/C74lab8W/BOm+INJuBdafqUSyxMPfsfQg5BFezxHwfmOSKM8bHSXVar0PmuD/EbKOJJShl8nzR6PR27nUhVak/iNeS/tl/GfVvgD8AdW8TaHFZzX9iU2LdI0kPzPglgrKf1r4Tm/4K3/ABekUjZ4NTb/AM8tOn/XNwa1yHgnMs4ovEYNLli7auxjxb4nZPw9io4TMObmkrqyufqOCCKUfKK4j4C+Nrz4ifB/QNcvvI+2alZR3EvlArHvIycAk4H412aTbs/Wvl8RRnRnKlPeLt9x93g8XDE4eGIp/DJJ/eTA5opu+m1mdJJRUdFAElFR07fQA6g9KjooANufvAUA4HNZ+vXFxb6bdNb+X56RO0W77uQuRn2zX5N3v/BSL4yazYRn/hKls/tAWX/R7K3VlzzgEo3HNfVcL8G43PZSjg2vcte77/8ADH57xx4jZfwv7P69GUvaXtbyt/mfrpvyv+eaB92vBP8Agnb8SvEXxV/Zm0vWvEmpTapqV3c3S/aJY0VmCXEiDhABgBcfhXvI6c18/mGDng8TLCT3i2tPI+uybNIZjgqeOhFxjNXsyYHNFR0VynqDvLo8uo06U6gLklFR07fQA6ioX6U6gCSim76VDxQAtFFFABRRRQAUUUUAFFFFABRRRQAUUUUAFFFFABRRRQAUUUUAFFFFABRRRQAUUUUAFFFFABRRRQAUUUUAFFFFABRRRQAUUUUAFFFFABRRRQAUUUUAFFFFABRRRQAUUUUAFFFFABRRRQAUUUUAFFFFABRRRQAUUUUAfHf/AAWKsvP+AeiyeX5n2fWo23f3Mxyrn9cfjX52+G9Lj8QeKNL0+STy49Qu4bd3T+BXkCk/rX6T/wDBXof8Yywf9hW3/ma/NrwlqH9j+KNLvP8AnzvYJf8AvmRT/Sv6c8Kqk/8AVucqfxXl+R/EPjhRg+MYQqfDKMPzPu2X/gjRoj6aJYfGGurcbMpujhIT0z8vIr4u+PHwW1D4B/E7UPDOr/Z5LjT9rLKv+ruEYZWQDsCP4a/Y63+I3h8aYskmraXGvlhjm5T/ABr8r/2//ilpnxe/ac1fUNFuI7iwt1jslnT5llZBhiPUZzXi+GnEmdYzM50MZJyp8r3WzPoPGDg/hvLMnpYvK0o1ZNKye6troevf8EgvjFd6R8R9Y8EXEnmafqlu1/bp/cmT72PqpH5Cvv7xj430n4f6BNqWtahZ6TYW43Sz3UoijQe5PFfmj/wSg0G4v/2m/wC0P+WGl6VO8vyfLtchRz25rmf28/2mrz9of4v3lulxJ/wjugXD29hb/wDLN2XIacjpuPPP8K1xcR8FwzjiyeGw3uR5VKb7f8FnqcHeJE+HuBqeJxMeepzSjTT6pd32Wp93ah/wUz+DVhdOn/CVCTy/lLJY3DKPx8vpXbfCP9q74f8Ax2nNv4V8T6fqV4ibza7zDcbe58twHI99tflL8O/2YvH3xP8ADH9seH/DGpahp8mdtxEu2OXHXGTzXKq+qeAfF0ckf2zSNc0O43K/+rmtZkP6MD/Ouqr4U5TXjOlgMU5VY9Lp/etGjho+O3EOGnDEZphEsPU2aTWnk9b/AHH7mEf/AFq8b/aI/bd8Dfs1XEdnrl9cXGrzKJUsLKPzrgoWxvPIVR/vMPbNcr8Fv2trz4q/sZat4w2J/b2i2M0V0ifd8+NPvgD+E8N+dfl1r3iS88T6xeapqFxJeahqDvcXFxK+6SVzyST3r5Lgzw5/tLF14Y58saLtJLds++8RfF7+ycvw1bK480sQrpvZL07n6u/sr/t2eFf2ptY1DS9Mt77TdQ09Fl+z3e0NKmcF1wecH731FeZf8FGv2bfCfxp8Y6Zef8Jt4e8M+NLaxES2upXscX2+23uyZUncAGMu11X++O3HNfsO/wDBPW40CTwp8SpPF9xb30iLe/YrSBWhdHH+rLk85U88fyrgf+Cx2l/Z/jx4ZvPLT/SND8ref49kznH4eb/49XRleU4NcVRw2R13Fa6tXs1utd0cOfZ9mE+BZYziXDqcm46XtdNqz02Z23/BPv8AZc0P4UfGz+1r7x74P1zxBHaulnpel3ySsFbG6UjO48D+761zX/BZSS2k+J3gkwyRmf7Ddeau77oEkW3Pp1b8q4f/AIJTaZHfftZpJ5f+o0W5k3bPutviAPtwTXj37QHhu48P/G/xh5un3mn29xrV69v5tu8Pmp57YI3D5hgjn3FfeZbk1eXGMqmKxPtJU4J7JXvdW+W5+W5xxBQjwBGhg8N7OnVqtbt2tZ3+e3Q9f/4JbeItL8KftK3Go6xqVpptvHo00SNdSrDGzPJFwCxHPy9K/R/w/wDFXwn8S7TVLfSvEeiavHbIyXiWt/FN9nByDu2MdvfrX4s6bod54guPs9nZ3moSbN/lW9u8zY9cKCcV9uf8EjvCt5pGkfEhLzTLyyknhtVRri3eHeNs24DcOeSK83xQ4Vw8pVM4Vf3lyrk072/rQ9rwV45xdGFPIHQ5qb53z69m7bW/E83+JH7C/h+68YXl54N+KHgObRJJmZEu9UjWS05yV3ISGx/wHivtL9kTwv4O/Z6/ZqtYbPxdoeqaTZtJPqGtRXcS2jzFvn+YMUQDgY3cYFfk/wCLdP8As/ijVLfy/wDj3vZk+T+DEhGK+3fhnosdh/wSD1+aOP8A5CFtfTt8oX/lu6f+yD8qw40yfGywGDw+KxbnCUoxXupb9W762NvDniLL6Wb47F4TBKFSnCcm+ZvbolbS59Xr+1n8L7g7Y/iF4K/8HVt/8XXdwajFcaf9oSSOSPbu81W+XGM5z6V+E0//AB7Sf7lfuBaWUY+GscEPyx/YVRf9hdmB+lfDcbcDQyF0FGq5e0v0ta1v8z9U8N/E+vxLHEurRUPYpPR3ve/+Rzd3+1r8MbWeSOT4heDVkj+V/wDidW3yEdc/PxXb6L4gsvFGjW+oafdwXmn3Kb4ri3lEkcqnurKcEe9fh94nt/s3ifVI/wDnndzfP9JDzX3ZoH7Sdz8Av+CYXha+tJBHrWqRzafYN/zybzpfnx32Kufwrv4i8NXgKWGeFqOpKs7Wt8+54/CvjR9fxGMWNpqFOhFyunfZ2PoD41/tz/Dn4CahJZ61r0cmpRj57KzjNxMv+9t4Q+zkVyPhb/gqf8JNf1GO3uNT1DS/M/5a3Vk/l5PYlc4r87vgH8FNa/aa+Lseg2NxH9svElvbu9uMssQGN0jY5JLMo+rCup/ar/Yr139lZtNnvr2z1Sx1IshurfK7JRztIP8AeH8q+lpeHPDlGvHK8TiZfWJLp/l/wT4yt4xcWVsNLOcJhI/VYv1/VP7kfrV4Z8Saf4y0aDUNLvLfULG5QPFPBIHSRexBHBFaW7Nfmv8A8Enf2iL/AMH/ABZbwDeXHmaHr6yz2cTf8ut0g3tt9FdFbj+8o/vV+kqFSK/KOKeHKuSZhLBVPe6p90fvvAfGFLiTK45hCPLLaS7NfoKOeP0rl/iT8XPDfwk0n7f4m1mw0W1/he6lVdzdcKOrH2FXvH/jK0+H/g7VNcvpBHa6ZbPdSuf4UVSx/lX41/Hf436p8f8A4j6h4o1ySTzLh2+z27vuW0h/hjX04+9/tZr2OB+CZ8QV5XlyU4bvr6Hzvib4kw4WoR5I89ae0elu7P0603/go38HdSvo7SPxpaiSRtqma1uIUXtyzxgAe5rtPFv7TngDwDPYR6t4q0Wwk1OLzbTzbpVWWMnAcN02++a/Kbwn+yT8SvHHhJNa0vwrq15pt0m+JlVV81cfeUHqGrgtVjvNPufsd59ojk0/db/Z7jO63YHlMHpz2r9Fp+E+UYqt7HBYxy5fiWjf6fkfkNXx64hweH9tj8CoqfwvVL9bn7f+GvG+j+ONJ+36Pqmn6naSD5Z7WdZoz/wJSRXJeM/2r/hz4Ankj1Txt4dt5YvvxC9jkmX/AIApLfpXy7/wRw8Lw/8ACu/HuoLHxqF3DZSf7SxxE4/8jH86+Jfip4c/4Rj4n+JNLjjjjjs9TuIkT+4gkO0fkRXy+TeHNDGZzicrlXfLStrbe/5H2nEXjFjMv4fwmc0sOuavfRt2Vvzv8j9jND+PHg/xD8OI/F1v4g03/hGfnP2+abyIRtcocmTGPmBHNcDH/wAFFfg1c6ibNvGtoJN/lbntZ1h3f9dCm3HvnFfmT4K8EePvjZoEek6Jp+ta9peiu7RWsGWt7JmO5jg7RuJPX71cvrugXnhfWLjT9Ut5LO8s5WiuLeVNrRH0Ir6bAeEGW1atTDVcXzTj0ja6Xn3/AAPi8x+kDnMKVPFUsCo0+rlezfW236n7eeHfEdj4l0WDUNOuLe8s7iNZYp4HDRyowyrKRwVI71k/E74w+G/hBoMmpeJtYsdHsY+PNuH2726hVXqzY7Dmvk3/AII8+O7j/hV3jHTLy5xpfh+6S4t1Z93kCVXeTn0yufxPrXyL+1p8etQ/aF+M2qa5cSSf2fbyvb6bFu3Lbwg4G0di2Msf4s18hlPhtWxmdVsrlLlp0bc0vXY/QM98ZKWB4aw2cwpr2le/LC+mm/yT+8/Ra3/4KZ/B24vfs/8AwlRRg2zc9hcqq/XKcD618e/8FVfEun+MfjromqaXeW9/p95oEbxTwOJI5VM0vII615T8L/2UvH/xn8MSat4b0Ce803c0fm7xGrkdQuev/wCuuL8XeGNX8E6/Jomt29xaXmmOYmtbjO6DJLEAdAGJJ4+9mv1PhngfKMtzVVsvxPNKndOLab7eVj8L408Sc+zvI/q+bYTkp1GnGaTWq9b3Pqb/AII7Wfn/AB48R3Hl/wDHvpC/P/dzJX6Tivzk/wCCM/Pxn8Wf9gqL/wBG1+jlfkPilK/ENXyt+R/QvgXT5eEqPL3l+ZXvo8WMyf3kY1+GXiGP/ioNQj/553c3/ow1+599/wAesn+6a/ED4mf8lH8Qf9hC4/8ARjV9l4Hy/wBoxPpH9T8++ktCP1fBesv0K3g3xhqHw48X6frmj3ElnqmlyrcW8q/3h2PqpHDD3r9cv2Sf2l9P/ae+F1vrVoqW+p2/7jUbM8ta3AAz9VIOVPcH2NflPc/BfWrf4R2fjqNPtGg3F5LZytFndaSJgDf/ALJrpP2Sf2ltU/Zi+K1vrdv5kmmXmLfVbX/n6hz97H95OSp92/hO2vtePOG8PxHhJV8B71ajdL5br/I/M/DPjXF8K5hGhmN44etZvyvtJfqdB/wUZsk079rzxMI/+XgRS/N7oM/yr1L/AII36du+NHia48v/AI99Iji3f3N0oOPx2/pXlP8AwUJ8d6b8R/2k7jXNJu47qxvNNtHilhbd/C3HsR6V7h/wRfs4/wDhJ/HVx/HHBZKv+6zTE/yFcGfc9PgSPtNJckVb5o9DhX2NfxL9pRalHnk016M+7PFHi/TvAujz6lq95a6fYwLulnnlEccY9yeK+fde/wCCrPwl0fUJIItQ1PUo0/5b21g7Rt2ON2CR74/OvlX/AIKcftJXnxX+Mt34TtLjGgeGJfK2fwz3OPmcnvt6D05qj8CP+Cbvir45/CmDxZBqlhpdvqaO1lBcI+6RASAxxwFJHy/h7V8Hk/AeV4fLqeY5/XdP2nwpfh3P1LiDxYzrE5xVynhagqvsvib120fVddD70+DH7afw9+Pl/HZ6Br0f9pyDf9huFMFwRyeEb73AP3c9K9YLfLlu1fh5rGj6n8MfG8lnJJcaZregXv8ArUfbJazRtw6nsQcFTX3r8RP297y4/YC03xNaOIPF2tP/AGMdvy+TcjcJJB6fIvmKP9pRWHFXhr9Tq0J5dLnp1mkr7q+3yaO3gvxo+u4fEwzaKhVoJy00ulo163Pfvib+2T8NfhDrH2HX/Flja3yfK1tCj3U0R/2liDFfxAp3w6/bH+HHxXgu5NB8VWF39giaW4idZIZkRRlm2OocqPULX492dvceINYt4447i81DUJVREX95NcSscAe7FiPzNe0+If2F/i58HPC0/ixtIjtbext/Nke0vRJPGhGGyo5xj7wr38f4W5Tgowo4nGctWW17Wfov+CfLYHxw4ixtWdbB4BVKMN7JtpebT/Q/RHRP26fhL4gLfZ/Hvh+JY/47i7W2Bz05k25r07RNds/EOmW+oafcW99Z3iK8VxbyiSOVT0IYcEV+Frxxj/V1+nmifHj/AIZy/wCCdHh7xD5KyXdvo8EFrG/R5nGEz7ZOa+f4w8NY5X7D6lUdSVWXKkz6zw/8YqucfWZ5lSVONGPPdX2/4Y9o+K/7SHgf4HCP/hKfEWn6TI67kiZzJNIvciNcsR74rlfBf7evwl8feILfS9M8ZWJvLgqsUdxFLbeaT0UGVFBY+md1fkv4n1/UPG/ia81S/uLjUNU1SXzZZWzJJK54HXn2Wu41z9jz4k6D4Zk1a88G6lHYxxebKwjVtiY5JHXGK+i/4hPlWFoxhj8ZyVZbbJfd1+8+P/4jxn2LxE55XglKjH/E3b1Wi+4/VLXP2qPh34a8XSaFqHjLQbHV4GVZLee7SMoSMgEtwDjtmuuuNUstQ8OPcLc281rLEWEqOGjYf7w4r8O7y8uNYuJLi4uJLi4k+dpZXMjP9SetfXfiv4fNc/8ABJvw7Dp+lXF5JfarFfeVbwNM2TM2WwoP8I614+feGeHy14ZrEv8AeTUXpor9d/w/E9zhvxqxWcQxsZ4RfuqcpJJvW3R6Pfv+B8l63/yGrz/r4l/9CNfpr+wv8bvBfw+/ZO8I2+seLPDulzx2v71LrUYYTExduCGbg1+YHl/Z/wB3/q/Lq7H4H1jUdP8AtFvoesXFvIjeVLFZStG/0YLg1+ucYcK4bNMvpYWrXVOMXvprofg/h/xtickzatjKFD2kql9Nfd18kfqJ+3t8NPBfx7+FGkprHjLQ/Dlx532vRdQubyJIbolOQNzAOjKw+6fQ18xfs3/sU6H4Z+N3hy/8TfErwDcR6ffwXFjZWGpK897cIwaNQGI/jC/Ku7diu0/4KcaRHbfsm/C8R2/2f7Pc29uqt8rRKbKU7fb7n6V8s/smaJHrH7TvgW3kjjk/4nUMu3aG+aI+aDj221+d8LZbjf8AVzESoYrlprnvHlT27Ppc/UuOc6y58YYeOJwSnU/d+9zNb911sfrX41+O/gv4carHpviDxV4d0S+eHz0t7/UIreZ4zkBwrsDtyGGfY1J4J+Nng/4nXsln4d8T6DrlzbrulisNQiuJIh6lUYkCvzr/AOCvLE/tbWee3hez/wDSq8rY/wCCOscf/C+Nfk/5aR6Quz6GXn+Qr5SXh/TXDn9ve1d7X5bedtz9CpeLVd8Xf6tuiuXmcea+umux+hHjj4m+Hfhtax3HiHXNH0OCeTyklv7uO3jdsZ2guQCcDpWP4U/aG8B+P9cj0vQ/GPhnV9Qny0draapBNLJgZOFViTgDNfM//BZ2BT8IvCMqn72t7Pzt5j/Svk/9giX7N+2H4Bk/6fJz272k4PX2JqMm4Dp4/IZ5v7VqUVL3bdvM24k8WK+V8TU8g9ipRk4+9fpI/WzxP4q07wdpE2oapdwWNjaqWluJ5BHGgHck8V8+63/wVS+FOkalJbwX+ramsY/1trYv5TfQvtJr5X/4Ke/tOXnxT+Ls/g6zk2eH/C0vlyqfu3d2B87H2TOF/wBoN7Vl/AP/AIJseKvj38KIPFcep6bpFvfb3tYJ0kZpUHRjt6KSK9TJ+A8rw+WwzHP6zpqp8KXnt0Z4fEHitnWKziplXC1BVfZX5m9dtH20v9596fBL9tn4d/H7UI7PQdejGpum/wCwXSm3nf8A3Q3D/wDACa9bg4Nfh3q+map8MfG89pP5mn634fvSu9H2tFNG/UHvyAc1+tn7FHx2k/aH+AWka/ebP7TUNa3uz7vnRnaxHscZ/GvK454Fhk9KnjsJU9pRn+Hb1Pd8L/FKrxBXnleZ01DEU9dNmuumtmj18fer4h/4LRwJ/wAIL4Kk/wCWn9pSxB/7imIk/wAhX28vNfGX/BZ4f8WW8KH+7ryn/wAlrivF4BqcufYZr+b9GfT+LUebhTFryX5o/Oqvp7/gmz+19/wo/wCIH/CK63dbfDOvShUZn/d6dcHo/PRHzg/QN/er57+H/gi4+I3jfS/D9nJHHcapcC3iaX/Vqx9cVD438E6l8OvF1/ourwSWl/pkvlTxN3I/iHqP7pr+qeIMDgc1pSyfEfHJXXdeZ/DPCubZlkeIp55hI+5F2fZ+XzR+rH/BQ+COf9jPxpIOVW1ST/yIlfki3/HvJX198Mv20V8ffsXeMPAviK7H9tafpZTTpZXH+mQjaAuT1ZOn0xXyIkf+rjr4zw3yfE5VhsXhMQvejN2fdWR+ieLnEGDz7HYHMMFL3ZQXMuqd3ofs18Bbiz8Kfs7+Gbq8khsbOz0aCaaSRwscSiIMzEngAcnNJF+1x8L5v+aheCvw1q2/+LrzP9p/V/8AhGP+CeeofZ5PL/4kNtAn+63lp/Imvy1sLP8AtDULe3/5+JUi/MgV+WcM8Cxz2OJxlWq4csn0v5n7dxb4oVOGJYPLsPRVTmhHd2t0P3Rtr2K/to7i3kjmjkQOrq+5WU8ggjqK4a6/at+GdvcG3k8f+Do7iP7yNrNvuT6jfXReCNN/s74caZbH/l30+OIH/djAr8P/AC/9Z/v153BPA9PP61em6rh7O3Te9/8AI9nxK8TK/DGHwtenRU/bX3drWt/mfuNonj3R/E3h4atpmrabf6Xy32u3uEkgwOvzqccVxvjX9rj4b+AstqfjLQbcliNq3SyycdflTJr53/Zp8NxX/wDwSr8TQ/6z7Rp2qzj/AHj5rj9QK/PFPL/1f/LOvX4Z8N6GZ4jE0atZx9jLl0W587xl4y4vJsLg61PDKX1iHNu9PI/ar4j/ALQfhD4UeF7XV/EPiCw02xvEVoHkJZp8gEbFHzNwR0HeuR8F/t9fCXx/r0Gl6b4ytJL+4bbEktvNbq7HoA0iBc+2a/Ne8+DXxW+OugyeMrjSde1+zjt9iXUy/L5MYPESf3QAeAv3q8tT/wAh19FlnhDl2IpThLF81SO/K1ZPz6/kfJZr4/5vhq8KqwPJRltzXu13WqX5n7afFD4zeF/g3oA1DxFrWn6TZyfKj3D/ADSN6Ko5c+y1574e/wCCiXwd8TalHZ2fjSx+0SNtU3FvPbx/99yIqj86/OGz+H/xW/asH9sR6frXiaPTIhZJcPt8uJFA/drnjP8Aex615jfWkmn6hcWdxHJHcW8rxSpKm1onUkEEdiCCKMr8I8uqwlQq4rmrR6QtZeujf5FZx4/ZvSnHEUMFy4eWzle7722X5n7lXUsV1pMskflyRyRNsK+hH+Ffh5rdv/Z/iC8j8vy5I7h1dP7mHNfpz/wS/wDF2oeJv2QrT+0LiS4k02e5sondtzeUrHYv0UEAf7IFfmh47/5HjW/+wndf+jWrr8J8BLAZnjsFOXwNL1tzI83x1zeOaZRleZRjy86k7dr8p+hf7GX7RXgf9nP9jPwi3ifXrfS/tX2l4oDG0s8ubmUkrGgLEZPXGOa9I8L/APBSD4O+KdXjs4fF9vbyTnaj3VvNbx5Pq7qFX8TX5p/CP9nLxv8AH63uLjwxpN3qdvp+Inld/wB3EeojBb/eJwPWuf8AiJ8Ndc+FGvyaP4k0+40zUI03tFL/AHT3X1X3ret4Z5NjsdXhPFP28pN2TWl9dtzHC+MfEeW5bhp0sF/s8UlzNN3tpvdJH7dWN9HqdsktvJHJHIodGVtysDyCCOorH8eePtH+Gnh6fVte1Sz0uwtF3Sz3EoRU9hnqfYcmviH/AIJFftFXkOoah8O9QuPM06K3OoaRvf5rfBHnQj/Z+cMo7Yk/Dxf/AIKEftJXnx++M+oWcdx/xTnhi4e1sov4XkU7ZZT/ALW4Ef7o96/PMH4b4urntTKJy92nq5+XTTzP1vMvGbBUeGqec0Y81So+VQv9pb622XofZWq/8FXvhTp+oSW8dxrV5GnyG4isG8tvpuIOPwr0v4I/ta+Bfj83l+Gtahu76NPMeylzDdIvrsblhyPmGV96+CPhz/wS/wDFnxG+EFr4oj1LS9Pe+tvtlrYSrIrtGQSisRwCRgj+7kV8/aDrmsfDDxxb6hp8kml65od0zxN/FFMhIIP5EMP4lJr62PhzkOZUqtHKMS3Vp732v9219D8/l4xcU5VWoV88w0Y0a21tHb7307n7Y+KvG+keBdN+2axqljpVp/z1up1ij/NiK4XSf2xvhr4k8cWfhzS/F2k6jq+oOy2sVo5mSVlUsR5iAoDgHq1fNH7cHjGz/aV/4J6+GfHnlR/aIby3uGXP+omLtbSoD6B2YfgK+FdF8QXnhnWI9Q0u8uNP1C33eVcW8pjmiYoVO1hyDgkceteHwr4Z080wdWtUquNSLcLdOZH0XG/jZXybH0sPh6CnTqQjNO7u0/wufsx4o/aI8C+EvEMel6n4w8P2Op7lH2WXUIlmXPQFCcjNdL4k8Y6b4P8ADNxrGqXlvZ6baxedLdSuFjRBySSe1fir8K449Q+LHh/7RJ+7k1O3eXe/zcyL1J5Jz/Ovqf8A4K6/E3Vp/HPh/wAI+bImjWtkNQeJflWeYsVDH+9sA4+ppY7wz9lmmGyuFfm9om27bWNsv8bK1fJcXm9bDcsaTUYrzfd9vkezeKP+Cu3w50jXvs+n2muanZxvse7itxHHt4+dQ53EfVR0r6j8J+JbPxl4fs9U06aO4s7+FLiGRDlXRhkGvx//AGTv2bZP2ofim3h1NUj0e3itzcSzFfMk2DAwi5G48jvX6kfsufAQ/s4fCy28L/25ea9b2kjPby3EQjMSnnywATwDn864vEDhvJ8o5MPgqj9tH4k77Pre1vken4S8ZcRcQSqYvMKa+ry+Fqys1urXu15np1FAor8zP3IKKKKACiiigAooooAKKKKACiiigAooooAKKKKACiiigAooooAKKKKACiiigAooooAKKKKACiiigAooooAKKKKACiiigAooooAKKKKACiiigAooooAKKKKACiiigAooooAKKKKACiiigAooooAKKKKACiig9KAPlD/gr1/ybLb/APYVt/5mvzKr9Jv+Cw979n/Z00uP/lncazCj/gsjfzAr81bqT9xJ/uNX9QeEtVUsgnN/zM/h3x6oyqcVpL+WK/Ml+0Zt/L8yST8/u/TpitPwX4K1v4m69Hpmg6RqGr39xtRYrKIyMmeAWI4Rf9tsKv3mr9nvDvhLQ9f8L2Fw2nafJHPAksW6FWXBAPHHvWxo3hXT/Dw3Wdja2u8/MI4gn8q+VreMk6cZwo4ZKfr/AMA+0wP0d3iHSqYrFuUfTWz+Z89fsh/siv8AsufAbWmuilx4q1q0eW6aMfLARGdsKnuFPf8AiNfmBrHmf2heeZ/x8b33/wB7dkn+dfurMguFdf4WGK/LH9vj9jjV/gV8QdU17S9PuLzwjqlw1wskSbvsTsdzK+Ogznafu1j4X8WQqZpif7Qn+8rdX+R1eNHAs8JkuE/sqF6OHumlvr1+/c++/wBjzU9Gn/Zl8GtpJtfJj0uFJfLxtWVUAkzjvvDV+c//AAUb1DSL/wDa68SSaR5ckcaxJdPFjb54iAfp3x19815f4R+LnirwHYT2eg+Ita0mzn+eWKyvZIY2Y9ThSOff71R/D74ea58VvF9vpGgafeapqd5LnbEhZkz/AMtHP8K/3ifWvsuG+C1kmZV81r4hOFn1tu76n5zxd4jPiPJsNkWGwvLUi47K92layR9x/wDBIDQzrHwf8cWeoQ+dp95frBtf7simIBxj05r5o/bg/ZOk/Zd+J6RwtJdeHda82406Q/ehVSu6F/dNy7W7givvDwN8Jdf/AGOf2O5LPwjaWmteKLC3e9nim3BbuY8yYxycAfL/AHtvvX52/tEftQ+K/wBpXWLO88UXFv5emI/2WC1tzDDAxxuOCSS3ygfer5/gvEYvH8SYnMMHJfV5S99X18nY+q8RsHgcr4TwmU5hB/Woq8HbRXd2m/0Pfv8Agln+1VqHh7xxb/DnU7j7Ro+qK/8AZW9vmt5lBZox/skBj/s4p/8AwWYT/i7Xg3/sF3Gf+/qVjf8ABL/9mTXPFHxk0zx3eWc9noOiCSW3nmTb9rmZDGNmeowzc1sf8FmP+SxeDv8AsE3P/o1K0tgYceweDts+a23NZ3Jm81l4YVP7Rv8AFHkvvy3X63+Rg/8ABIfn9p++/wCwNJ/6HHXYf8FpZox4x+Hsf9y21B3x7m2x/KuB/wCCTDyH9r0f88/7Buvl/wC2sGK9K/4LP+HL/wDtPwVq8cEklhHHd2s0qr8sTuYWXJ7ZCN+VPHShDj+i5P7K/wDSWRlNKdXwqrQjDXnf5pnAf8Ek7qEftNXqTEBpNHk2rJ1bEkecevav0pvfIj024C+SnyHpx2r8O/DnifUPCOr2+oaXqF5peoWb/uri1leGRcjBwVIxwTX2h/wS08WeLfiH8TPFWqa5rfiDWNPj0nyt15dSzQ+aZExt3EruCg/d/vGubxO4TnUrzztVYqNo+71udPgzx5So4aHDjw7c5OT5+iVrnx34/wD+R+1z/sIXX/o1q/RP9k/4df8AC1v+CYtt4cj+/q1hqECH/aa6uCP1r87fH3/JQdc/7Cd1/wCjWr9P/wDgl8JG/Y38OZ/56Xe3/wACZq7vE6u6WS4OrD4oyi/wPN8G8Kq/EmOw1T4akZr5XPyv13SLjQNQvNP1C3ks7yzle3uIpf8Alk6nBHNfol4e/wCChugW/wCxN/a0l5DJ4r0+1GlPp3mr573O3YHC5zsI+fd06+lcb/wVM/ZDdGk+JHh+33x/KmtxRJ1XgCfA9Ojf99V8Lp/n5P8AP+TXuU6GXcY5dh8XWnyum9V59Y/M+crYjN/D7NsXgqMOZVlZN9ukvlqWNlxrGsf6uS4vLyXYkUSbmldjkAAdyx6V9Xft4/Cq/wDg5+yz8ItBu8b7EyJdYf5VuXjZ2A9cEsM+1bf/AAS7/Y8k8V6/H8RfEln/AMS+xZv7GilT/Wzf898H+FOi/wC1z2r6p/bb/ZvH7SPwPu9Gt/LTVLN1utOdvuiVex9iMivm+JuN8JDP8Lhaf8KjL3n5tW/A+t4L8MsbV4Vx2OqR5atePurrZO//AJN0Py9+A/inxx4e8XXC/D/+0v7aurUqy2MXmStCCGOBjpkCvTvEH7O37Rfx3to4Na0nxLqlvG29P7SvoIY4mPfEjg/ktePXFp4m+AfxGjZhf+GfEWkS7lY/LMp6ZGeGUjP+yyna275q9N1T/go98XNW8Pf2f/wkkMfmJtaeK0jjuMY5+bHB9wo/2cV91m2Gx+IrRxWUU6Moy+3Je9966W8z8zyHEZbh8LLAZ9UrR5f+XcXo/VdH8j1/9jz/AIJ4/ELwF8ffD+va3Bo9ppejM8k7w3vmSOfLZVVVA5OSM7m6Zr9DY/kUflX56/8ABJH4ieL9S+KPiKwuDqmraDqyte3t7cO8iwXoxg726s68N3+WOv0KjTYvX7vSv568Rq2OnmzpY6cZSilrDRW/E/rbwdwmXUsk9vl1OcIzbvzu7uv0PHf2/Fk/4ZD8deR1/syTf/ufx/8Ajua/I3Sri3/tizkvI/Ms47hHlT+/FkFh9dua/b7xr4Vt/HPg/UNHvI/OtNUt3tZk/wBhlKn+dfjr+0T+z5rn7OPxAvND1i3k+zxuz2V3s/d3UX8Lg/3sfeFfe+D2aYdYevltSVpSd15q1vwPyv6QmSYv63hs5pw5qcVZ+TvdX9T9gPh1rWi6x4I0280e4s59LntkeCSBg0TpjjaRxjFflT/wUB1TQ9Y/as8TXGh/Z5LeNo1maLG1rhR+8Oeh7D8DXmWgfEHxNoFj/Zml+I/Een2E+5fsVlqVxDbsznnMaNtJJP8Ad+bNR+L/AAPrHgDWP7P1jT7jS7zykl+z3HyyIjDIPtxX1fB/A8cjzWeIqYlS5k1FbNruz4Pj7xMnxHktLB0cG4RptXl0va1lpofoD/wRufPwE8UJ/d1yT/0ngr4j/ac/5ON8af8AYYm/nX2P/wAEZ7/PgDxxb/8APC/ik/77jPH6V8aftH6h9v8Aj/4wuPL8vzNYm/RyP6Vy8JRVLi7H69vxsd3G158A5SrdX+Fz77/4JHWkT/sw3Eixx+ZJrFxubHzNhUxn6V8if8FJLD+yP2vvEkY/5aJDL/31GK+wP+CRabv2WZj/ANRi5/8AZK+Q/wDgpXdxz/tieI5I/M/dw28T/wC8I+1eNwfVf+uuLcn/AD/mj6TxAox/4hvgOaOvufkz1X/gl8ks/wAEfjElv/rpLeML/wCA82K+LLb/AI94/wB3/Avyf7Vfe3/BGG3jufDvxGikj/dyT2asre6S5r5//bb/AGTNX/Z6+JOoXUdvJJ4V1O4e5s7pE3Rw5OTE5/hIz/wJa+kyLOsNQ4ozDBVn71Rxa87R1X4nx3FHDuMxPBeV5lRXNGmpp+V5aP8AA/QD9gnxX4f1r9lvwj/Y8tssdrYJFcxLjdHOB+93AdGLZP418S/8FWdf0fxB+05HHpclvJNa6bHBfNF/z23ucEjqwUqPxr578OeOde8E29x/ZGv63pEc/M/9n38tr5v+9sYbvxpur+FdY0jSLPWNQs9Qjs9Yd3tbq4z/AKay43kE8t1HJ9aOH+A4ZbnssxqV01K/LHq7/nYninxOqZ1w3SyWGF5fZ8t59FbRelz6y/4I0nHxm8Wf9guL/wBG1+jQHT6V+av/AAR9v44Pj/rkf/LS40v5fwkzX6VJ0r8e8UklxBV/vJfkf0T4F1HLhWmn9lyX4kd8dtpJ/umvw68c6h/aHjjWLiP/AJaahM//AJEav3A1eby9MuWP8KN/Kvw116T/AIqDUP8Ar7lf83Jr7HwRilWxMn2j+p+ffSSlN0cFCHeX6H6If8EzPBGn/Er9jXUtB1e0t7vTbzUbqGSJ/wCJTj8iDXxd+1N+zfqn7MnxWuNBvI5J9PuN1xpt0U+W6t//AIpDww+jfdIr7c/4I9zO37PmpRn/AFceqSeX+IXNeuftffswaZ+1D8LLrSbhY4tUtt0+m3m35rebHr/dbow/wFefheLp5HxRiIzl+5qT97y8/wDM78d4fw4l4IwlWn/vFOn7r7+T/Q/H2vuD/gjC2L74he8dn/7Wr4v8X+E9Q8AeKNQ0fWLeSz1DT5Wt7iJv4GH8x719o/8ABFwbta8fA9Ntnn/yNX6l4j4ilW4ZqTp7e6/xR+K+EOEr0eL6FGvDllHmXzs0z5E+NMdx/wALn8WfaPM8z+2Lvd/F8vntj9MV6l8MfEf7QvizwJpdn4RbxlN4et4Rb2X2NRFB5cZ2ACQjHBXGN3Y16F/wUx/Y81fwt8Rb/wAdaHYXF7oer/6RqHlKWaymAAJIHOxuOR93mvCvgz+1t49+Amn/ANn+GdeaDT97P9imhE1vk9SoblfXhgu6s8Nio5xkdCpl0adWcUly1NbNb+jFj8DPIOJMTRzaVWlCTfvUtG03da6XR26/8E+PjZ421GfUNU0GO0vLh/Nll1HVIDJcMep/ds3P1rpv2jP2VvEnwB/Yo0K31z7LJPF4na/ultWMkdqJYTEgDEcnKj/vuvJfi9+1f8QvjZc28eteIr+SOOVHt7W0H2eNJVOVcKn3nDYKk52sBtr9Lvhz4cuv2oP2S9N0/wCImkyWd5rWneVf27p5chcHaswH8Bfasij+HdjtXynE2cZvlU8HVzOVOVOM9YQW1vXfRv0Pu+DeHMhz6GNoZTCr7SVOynUe9++mmv3n5f8A7Nvj3TPhn8evC3iLVo/M03Tb4Sz7V3bEKsu8AdShbfj/AGa/S74xftk/DOx+COrX0fizQdSS+sXjgtLa6jmmuGdSAoRTuB55yPlwc18QfGX/AIJwePvA3iC4/wCEdsY/F2keafs89m6Gbb6OpPBH+9WN4b/YE+IFxYX1/rekjwrpmmwPPPPfOgbCoSAoUsWzjH416fEmB4dz2tSzKWLUeW3u3WvlbdfceLwnmPFPC2GxWV0sBzKd/eadlpa99vxPFH/5af8ALOvtX9se4k1D/gnN8L5Lf/j32WSy/hBgf+PCviVO1fqZpP7Pn/C9/wDgnpoPhWSQW95caNBPayt0imCh0J9uRXd4hYzD4Grl+Kl8MZ/hbX9Dh8K8txGZUM1wtD4p0tPW+3zPz+/ZB1fSdJ/aY8FXmvfZxpNvqI8x5f8AVwyFGERYnoBKUOT8q4r9fdZ1PTdO8OSXF1cW62KwlpGfGzZjkknjGK/FPx74A1j4Y+L7zRNbs5LDVLBjE0TLt9sg91OOq1paL4n8ZfEX7H4Z0/WPFWrW95iKDSP7QuJrdsdFERbaB+FY8acG08/rUszoYmMYJK/VW7o18PvEKtwrRr5TXwbqVJPTvfazXUz/AIiT6fqHxA1y40uPy9PkvZnt0/h2FzjHtiv1R/YARZP2JvBe7H/Hg/X/AK6PX5Napplx4fv7izuI/s9xZu0UsX9xxwR+dfqp/wAE4LltT/Y38Ox/xRxzRD8JG/xrz/FqnGOTYWEH8Ml+TPZ8Cqk55/jHUhaUqctPmmflv41vP7Q8Yaxcf6vzL2Z/zc1+q3/BPf7Lcfsf+CQfJkZbHa3T5Tvavyx+JXhi88EfEfXNH1C3kt9Q0+9lilib5W++SPwYVZ8LfF3xd4Q0h9I0TxP4j0+0mfi1sr2WFWY9cBD1P+zXvcVcMzz7KaCoVYx5bO77cp8vwRxhT4Zz/F1MRh3U5m011vc+8f8AgsyF/wCFE+FyuP8AkYYun/Xrc18g/sN8/tc+Bf8Ar/b/ANES175+3Fb6hB/wT5+D6aw95Jqb3Fgbg3e5pjIdPuC3mFud2fvZr54/Y88w/tS+BP8AsKp83uQ1eDwdBU+E8VR35faK/wAj3uPsQ8RxxhcSocvN7J29eh9K/wDBY34RXiax4d8eW9vJJaLB/ZN9Ki/6nDM8BPouXlGT/EV9a8H/AGDvj1p/7PP7Qun6pqcnl6RqinTb2Vn+W3RiCsp/2QwG70Vi3av1T+JPw5074reBNR8P6vbpcWGpQNDKp9x1Hoe9fj9+0d8BtT/Zy+J+oeHNTjkkjjbfaXD/AHbuE/dce/Zv9qvP8PM4wubZRPhzF6Ss+XzX/APe8XOH8bkGf0uLMBDmi2m/KS7+TPef+Cpv7Tul/FvxppfhHQJob7T/AA7L9ouLmGQPHLcOuAisDhgikhv9o7ezVy//AATC+EV543/aYsdYjjk/s/wrDLdXErJ8vmyRtFHHn+8d7P8A8Arwbwb4Q1Dx/wCKNP0PR7eS81DVJViiiVPmZjgZPt/eNfrp+yV+zdp/7MnwmtdEh8uTULj/AEjUbrHzXEx6nPoOg9hXdxVjsFwxw+slwj5qk018nu/n0PL4FynMONeKf9YcZHlpwafldfDFH5R/HcSWvx08befHJ9o/4SLUd2/1N1L+Y+lem/DLXP2gvEvgLT7Lwi3jR/DtvF5do1gqrBsU7cBzgHnt7GvS/wDgpn+xzrHh34jX3j7Q9PkvND1gLLqSxctZzABTIQP4HAHP8LZ/vV4D8GP2rfHvwMsJLTwzrzQ6fIzS/YpoRNb5PcBuVP0YV9HgcXDOMjoTy6NOpONly1NUnbX0Z8fj8unw9xFiaOZyq0qcr+/T0bTd1r1Xc7iD/gn38a/HGoXOoapoS295dP5ry3+pweZO57/I7nP1xX3R/wAE9v2edc/Zu+Ccmj+IntP7SvL+W8eO3l82OIEKFXdgc4UH8a/OP4p/tafEb42T28eteI79443VorSx/wBHh3ggg7E5ZsgFd27bj5a/U79kzxd4g8d/ALw7qXijT59N1q4tF+0QyjazEcB8HkbwA3PrX5z4kVs7p5fSo5jOnyyfwQW1tj9f8GcNw7WziricphV5or457O+/z+Z6YDjbXxX/AMFobz/i0vg+3/jk1kyj/gMEox/4/wDpX2n/ABV8N/8ABaq98jwr4Ft/+Wcl9csf94RAD9GNfDeH8VLiDDX/AJn+TP1Xxem48J4trsv/AEpHx5+zLef2f+0d4Hkjj/5jFvs/Fsf1r7x/4KR/scH4yeEF8X+HLMSeKtFhPmxIv/ISturR8dZFxlPxX+Lj8+vghef2f8cPBcn/AC0/t2x/W4QfyNftlGPNhVG5BUcV+leKGbV8szvDY7DStKKf57H4n4K8O4bOuHsflmMXuykvk7brzPwlf/pp/wCP/wB7/Gpof+PmP/fX+dfW3/BTP9j/AP4Vh4ql8daBaf8AEh1eX/iZRKvy2c7Hl/ZX5/4F/vV8jw/8fMf++tfrGT8RYbNsteNoPXl1XZ9j8L4h4VxmRZy8DXg7RkrPo1fdH6gftoQY/wCCdt43/UKsw3/fUVfmLol5Hp+sWdxJ/q7e4id/wcGv1w+J3w0k+Ln7F9x4dt8+ffaDF5H+1Isaug/EqBX5H6xpF54f1i40/ULe4s9Qs38q4ilTa0TjqCPX/GvzvwnxFOrhsVg7+85P1s0frvjlgq9HF4LHwh7vs4/ej9s9G8RWNx8ObfUnuII7NrETtK0gVFUoDkk8AY71+Ivmf6z/AH2/ma9L+HmufFH4yaPH4J8O6h4m1LRwgiewiuG+zwxejt2T2LV5i/8A7P8A98cnNe1wHwqskxOKjUqxnKVtFulra/qfMeJ3G0uJMJgZQw0oRp3V31el7elj9NP2Wh5P/BNWb92sf/Ejvtw99klfmSP+PCT/AHP6V+lX7MuteR/wTC1S58v/AI89C1H5f72xJf8ACvzVB/0f/gDVw+Hcksbmd/5/8z1vFiLeX5Rb/n2v0P2e/Zzgj/4Zx8MYRNp0mH+H/pmK/Gb7H9g8y38zzPs7tFv/AL+DjP6V+zf7PDY/Zv8AC/8A2B4f/RYr8X7PUP7Qt47iTy/MuP3r7P7zcn+deP4T1EsbmF+6/OR7/jtTj/Z2VQS+zL8on61f8E5LGGL9j/wu6Rxp5kDs+3+JixJNfmh+0nZ/2f8AtG+Oo4/+g/fP/wB9TO39a/TP/gnQP+MNvB//AF5t/wChGvzH/aKu5L/9oXx1JJ/0MWoJ/wB83LqP0FR4byvxLj23/N/6UHi9R/4w/KVCHRf+ko/QH/gk6f8AjEe4/wCwld/zr84fHf8AyPGt/wDYQuv/AEa1foz/AMEom/4xIuJP+old/oa/NnWNQ/tDWLy48zzPtFw8u/8Av5cnNevwLb/WHMm39pfmzwPEvm/1VyWEF9h/kj9PP+CV+vaI/wCydpNvYyW63lrPcJfxhx5qSmZzlx1GV2kf7OK8F/4LD+IND1Dx/wCGbSyktJNbtLaX7V5ThpIoiRtV8cgk8rn3r5O0bWvEXw6Ed/pl/regR6wp2XVldTWf21FOCA8ZG/aRisy/vLzxBqElxcXF5qGoXjLuaVzNNK59zlmNdWU8Bww2fzzl4hShdu3m+jfkcedeJ1TF8L0uG1hXGdoq/kuqVup7Z/wTmiuLn9rLQ5LeOT93Z3zy/wC79mcDP/AiteMeJY7j/hINQjuP+Pj7RKku/wDv7zuzjrzX6C/8EvP2QdU+FtjqHjXxNZyWeqa1AtvY2j/6y3tyQzM47M5C8dVCe9eC/wDBQ/8AY91j4QfFDVPE+mWdxceFdcla7eWFC32KVjlw+OQGJJz7mnl3F2X1OKa9OMlyyUYp93G90vv/AADOPD/NaHBuGxUqb92pKbXVKVkn/wCS/K5m+EdZ/aQ8f+HLGHQv+E2k0r7OhtGh228E0ZA2fO2ARjH8VVdN/wCCcXxo8RSyXF1oNnYXU8zSv9s1KHzJWJyW+Rn6k965X4N/tifET4FaT/Zuga839mpnyrO7hS4iiY8kpnlRn+ANt5Py81V8c/tUfEb4u+MNPvL7xFqd1qFncJcafb23yxxTKcqVhQfM2fq38Nd1TB59h61V4GNClT35ravtfY8mnjuG8bQpRzGWIq1o2XJfRd7PU+rPjt8FdU+AX/BKdvDOuSW8mp2d/BLP9nYyQqZdUEoUEjnAYZ9818T/AA00e31/4j+G9PvP3lnqGq2lpcJ/fR50Vh+RNfoZ+354m1TxD/wTqivdc02TTNY1L+y5by0Y/NazefEzJ+BBr89/hTd/YPiv4TuJP9Xb63Ys/wDui4Q/0ryvD7FV6mS4yrVl78p1G7d7LVHv+KmBo0OIcvoYeH7uNOklfe13o/kfrxof7Kfw90gWskHg/QY5LeRZo2+yJ8jjow9680/4KC/scx/tJeAl1TSFjj8VaDE7Wv8ACt4nUwtnpnt/tV9GwtmBSvPAr4h/4KA/tk/FH4CfEeXw/pdvpljo+qQbrC/8hpJmH8WCTtDg/wCya/E+F/7Uxma03hKv7yLuuZ/ef0nxxTyLLeHqkMZQ/czVnyRV79H/AME+H/h38R9Y+GHi+z1zQ7yTT9U0998T8/ijA9c9GBr9hP2X/jTB8fvgvo/iiMLHPexbbmJekMyErIn4MDX45+EPB+seP/EEel6PZ3GqapcPtiiiQyM59SfT3r9ev2NvgvcfAL9nnQPDd55f2+3iMt1t+6kshLsAe4BJFfqHjNTwXsKD09vf58tv89j8Z+jrUzJYvEwin9Wt125ulvluesUUUV/P5/WgUUUUAFFFFABRRRQAUUUUAFFFFABRRRQAUUUUAFFFFABRRRQAUUUUAFFFFABRRRQAUUUUAFFFFABRRRQAUUUUAFFFFABRRRQAUUUUAFFFFABRRRQAUUUUAFFFFABRRRQAUUUUAFFFFABRRRQAUUUUAFFFFAHN+OPhvofxJ0lbHXtMstXtFfzViuohIqt64Pfk1xt1+xX8K7//AI+PAPheX/e0+P8Awr1PGev8qXAU10UcdiKUeSlNqPqzzsRlOCxE/aVqUZS7tJlPT9Nh02xgtrdI44LdBHEir8qKBgAfgKtJHxT1bNLXPc74QUdiBI8Q/WoL/SodUgeG4ijuIZE2tHKgZW+oNXB8ozQfmGaautUTKnBx5GjyHU/2GPhRrF/JcTeBfD5uJDvdxbKu8+uBXZfDv4M+F/hNp32Tw5oOmaPb/wBy1t0j3fXHWuq6inD7tddTMsXUhyVaspR82zzaGRZdRq+2pUIRl3UUV5LRZI9vVTxivI7b9hT4W2vi+41z/hD9Ll1C7lMreanmRoxOcrGflXn0FexgY680uzis8LjMRhub6vUcebeztc0xmU4PGcv1mmpcu10nYpafpcOmWqQW8EdvHGu1VRQqqPYDpXKfEz4A+D/jBe2s3ibw5pGtyWYKQPd26TeUDyQNw9RXcFaa445xWdGtVpz54SfN3N8RgcPWpewqwUo9nscD8PP2a/Afwo159U8OeFNE0S/MRh+0WdqkcjIcEjI7cCum8U+D9N8c6TLp+sWFvqFjcJtliuEEkbD3Bra4WmsMc4/Wqliqs6ntZyfN3vqKnl+Ep0fYQpxUOyWn3Hj8f7CXwjhnSQeA/DuY+n+iL/KvStA8Iad4X0iPT9M0+3sLSNNiRRRBI9uMYwPatfntS7j34/GtK+YYmv8Axajl6u5z4PJcDhXzYelGPpFI8n1D9ir4V6xf3F5ceAfDE1xcSGWV3sY2Z3PJJ465ruPBHgLSfhz4eg0fQ9PtdK0u3z5VrboI44skk4A9STW9t4oAx3qauMxFWPJVm5R82aYXKcFhp+1w9KMZd0kinqWlQ6nYyW9xClxDMu2RHUMrA9QQeteZH9h/4UfaN/8Awr/wvndu/wCQdH659K9a3GkI57n2pUMVXoq1Gbj6MMXleCxTTxFKMrd1cp6TolvoFhHb2cEVvBbpsjhjXaqqOwA4FWmTNSY20FuKxbb1Z2U6cYR5IrQ4n4mfs/8Ag74y24i8TeHtM1by/uNPCGZfoeo6Vw1p/wAE8/hDbzRyDwXpZMfZ8uv4gnBr21eOmPwpwHHP4V30c4x9CHsqVecY9lJ2PGxPDOVYmp7avhoSl3cVcxfCfgbS/Aukx2Gk2Fnp9pBwkVvEI1T8BWpswf8AGpTzQ6qRXDKU5z5pvU9ejRhSh7OmuWPZDJPmHSub+IPwo8P/ABV0hrHxFo9jq9m/zeTcwrIM+oz0NdOfwoOMUU6s6c+enK0vIMRhaWIh7OtFSj2ex5H4G/Yj+GPw48Q2+saX4R0q3vrdt8MrJ5jRN6qW6Gtnx1+yz8P/AIna+dU8QeEdD1e+ZAjT3VokkhA6DJHSvQycik6txXZLNMbKp7WVWXN3u7nl0+HMrp0vYQoQUb3tyq1/Q5P4c/Brwv8AB7Triz8M6Hp+h2924eZLWFY1lbpkgd65vW/2Ovhj4h1i41DUPBHhu4vLxzLNLLYxs0rHqSccmvUNvpSlSo7VlHMMTGftITfNLd3ZvVyXA1KUaM6UeWOysrI57wD8OdB+F/h9dJ8P6TZ6NpaMzrBaxCOPLdTgd65vxt+yx8P/AIk69Lq2v+DvD+ralPhWuLi0SSR1HTJIr0Y8/Wm9e/6VEMVXhP2sJtS731Na2W4SpSjRqU4yjHpZW+45H4bfBLwv8H7C4h8MaDpuhxXjB50s4RGsrDoTjr1P51vax4estf094b2zt7y3k+9HKgdW/A8VpZ4po+uKmVarOftJSfN3NKeBw9Ol7CEEo9rafceW237F/wAK7HUo7yPwH4XjnjffvGnxblPXPStzx1+z74L+J1vZQ6/4Z0bVk01W+yrcWqyLb7sbgu7pnaPyruM4FMQ9a3eYYqUlN1JXjtqzjjkWXRjKEaELS391HBeAf2avA/wp13+1PDvhXRNJ1CRfKee1tEik2HqMjtXebcCnLyOuad0rCrVnVlz1Zcz8zswuDw+GhyYeCjHy0IXtvtKfOK87m/ZN+G9y7yN4K8P+ZI5Zmayj3EnqelelfdNNzz/9eqpYqrS/gzcfTQjFZfhcT/vNNS9Vc53wN8OdF+G+ntZ6DptnptrI29o7eIRru9cDvXQCKnlcdPu0gfIrKrKVSXPPU3o4elSgqdKPLFHD+Lf2efBfj7V31DWPC+i399J8jTz2iNIyjpknrWh4D+Dvhv4Xy3H/AAj+iaZpH2zH2j7LbrH5uM4zjr1P511QXj0pMe9bzxdeVP2Tm+Xtd2OWGWYSFX28aUefvZXK13Yw31u8ckcciN95X+YH615P4r/YR+FPi3VpNQvPBmj/AGmZmd3ii8vex6khepr2DO30oJJp4XHYjDS5sPUcfR2Jx2UYLHR5cXSjU9Un+Z5b4A/Y6+HPwyv1vNF8I6Tb3ifdnaAPIv0Zua7jxc9xp3hTUpLKB5riO1kMMSfedwp2gfjitotn7vSmSjccUVsdiK1VVa8nL1dyaOT4TD0ZUcHTVO/8qsfjRZfGb4nfBTxdebL/AMTeHb64uHuLi0mSSNd5JJzG4x3qH4i/tT+PvipYfY9e8Ralfaf/AB24G2N/95V6/wDAq/ZO90W11WHZcW1vOn92RA2axIPgx4TguPOj8MaDHIrbldLGLdn1ztr9ZwviZgElUq5fD2i6pr/I/BMV4H5pLno0s0n7OXRp/wDyVj8p/wBlX9jTxX+0n4vs449PvNP8MJMst/qkqGOMxA8pCT/rJCMgYyq/xfw7v1u0XSI9C021sbWONLe1iWONV+6qgYA/IVdt7RbUfugqj0Ap6tlMfoK+J4u4wxWe141K8eWMdorZf8E/S/D3w7wXCuHlCjLnqT+KT09El0SOJ+KH7O/g74ziM+J9A0/VJLf/AFUssQ8yL6N1H51R+GX7LPgP4NXsl34b8M6Xpd0ybPPSPdJt7qGPIFejkHHH6UKpIr59ZlilS9gqj5e13b7j6yWQ5dLEfWnQj7T+blV/v3PLNT/Y0+F+vX9xeXngTw3cXd3KZpZXsY2aVyckk465rt/BfgfSfhz4ft9J0PS7TS9Nt8+Vb26COOLPJwBW4q7aCKzrYzEVY8lSbkvNs6MLlOCw0vaYelGMu6STOA+JX7MngX4u30d54i8MaPq15Guxbi4t0aQD03Yziq/gT9lH4d/DfVPtui+EdDsbzG3zo7RA+PrivR2XK0qLxWkcyxfsvYqrLl7XdjGWRZe6/wBYdCHP35Vc5b4ifCXw78WdDj07xJothrVjHKJkt7qISRq4BAYA98E/ma5rw1+yN8N/Buv2uqaX4K8PafqFm++3uILGNJIT6ggcGvTcZHFBjyPX61nSxtenD2UJtR9WaVcnwVSr7arSjKXeyuRqgI4PSuS+JPwL8J/F77P/AMJJ4d0vWvsp3Q/bLZJvKPtnpXZR8elGDisaVadKfPRlyy7o6cRhKOIh7OtHmj2Z578P/wBmfwF8JtXe+8PeEdD0e8Zdnn2tokchH1ArvUGRTwuD/EtOHA61VevUrS5q0uZ+eosJgqGFjyYaCjHslYq3Vkt7B5cscbo33lf5lavJvFP7Cfwt8YatJeX3g3RzcXD75XiTy97epC4ya9i6mgitcLjsThnzYeo4+jsc+YZPgsdHlxlKM/VJnlnw9/Y5+G/wvv47zRfCOk295F924aESSL9GbmvUIV8tOKdHk04HHWlicZiMTLnxE3J+buaYHLcJg4cmDpqnHslYROTzXNeP/hR4f+Jy26a9o2n6vHauXhW6hWTyyRgkZ6V0hIA/woGFHesadSdOXPB8rOivh6dWHs6sVKPmed6d+y58PdJ1CC4tvBvh+G4t3WWKVLKNWR1OQRx1zXoUcKxpj+GnDrTiMGqq4irV/jScvUxwuX4fDaUIKPorGX4g8OWPirSJ7DULOC8tLpdksUqBo3X0IPWuJ/4ZJ+G//Ql+Hf8AwCj/AMK9IAPrTiff9Kuli69KPJSm4ryZnisrwmJnz16UZPzSZVtbWK0tI4I41jjjQIqr91VHAArifHv7NPgL4oast9r/AIU0PVrxF2Ca6tEkfH1IrvyKTGB61FPEVaUuelNxl5M0xWBw+IhyV4KUezVznfBXwu0H4caMNP0LR9P0mz/55WsCxr+gribn9iP4U3NzJJN4B8LySSOXdjp8eWJ5JPHvXrCjHSgdeT+lbRzDEwm5xqS5pb6vU56mS4GpCMJ0ouMdtFoc3ovwu8P+GvBP/CO6fo9nZ6G8TwtZRRBYSjAhl29MEE/nXEj9hn4Thv8AknvhX6f2dF/hXrTjBoduOKVLHYim5OFSXvb6seIyXAV+X21KMuXa6WhR0nRrXRNMgsrOGOGzgQRRxINqoo4AA9K4Nv2SPhsTn/hCfDv/AIAx/wCFelg8f/WoJqKOKrUrulNx5uzNcRluErpRrU4y5drq9jI8LeFNP8H+H4NO0uzt7Gwtxsit4kCxxD2Arh9d/Y9+GfibWLrU9Q8E+HbzULyUy3E0tjG0krnqSccmvTxwKQDg88Z60UcZiKU3UpzcW99ScRleErwjTrU4yjHZNXsc74G+GOg/DHw+NI0DR7DSNM3u/wBntYhHHubqcDua5WL9kT4bwHcvgnw39PsMf+Fem49s0u3aKqONxEJOUJu8t9dxVsnwVWMYTpRtHbRaHE6x8APBviHwlBod34b0ifRbUYisntVaGP6L2rP8H/srfDr4f6tHqGi+DPDun3kY2rPDYxrIPocV6Kp+lDH6VX9oYhR9mqkrerI/sXA83P7GPN35UQxRYV/0qDVNLh1mCS3uLeK4gkXayuoZWHcEGr/8NIQBXNFuOqPQnTjKHs5LQ8V1/wDYB+EviDUXvJ/Buk+fI29/KTy1Zu5wvGa6L4d/spfD/wCEtx9o0Hwro+n3n/PZIQ0n/fR5r0Zx9KUDK16M85x9Sn7Kdeco9nJ2PFpcL5RTq+2pYaEZd+VHP+Ovh5ovxQ8PSaT4g02z1bTJGVnt7qISRuVII4PHBFcRp37FXws0XULe8t/AnhmG4tpVlilSxjVomHIIOODmvVjyKUDiuajjsRSjyUpuMfJnZisnwWJn7WvSjKXdpMgjjx/hXG/Gj9n3wp8ftHgsfFWkw6lDayebASxR4m6EqwIIruB8o6UrdOKxo16tGaq0pOMl1R0YnA4fEUpUK8FKL3T1RxHww+AfhP4QQSR+HPD+l6T5n32hhCu31bqetdspoJ4poVpOD+dOtWq1pe0rS5peYYXB0MLS9jhoKMV0SsTUUDiiszqCiiigAooooAKKKKACiiigAooooAKKKKACiiigAooooAKKKKACiiigAooooAKKKKACiiigAooooAKKKKACiiigAooooAKKKKACiiigAooooAKKKKACiiigAooooAKKKKACiiigAooooAKKKKACiiigAooooAKOtFFABRRRQAUUUUAFFFFABRRRQAUUUUAFFFFABRRRQAUUUUAFFFFABRRRQAYooooAKKKKACiiigAooooAKKKKACjFFFABRRRQAUYoooAMYooooAKMUUUAFGMUUUAFFFFABiiiigBGGFpNlOooAYkfFPoooAMYoxRRQAUUUUAFFFFABRRRQAUUUUAFFFFABRRRQAUUUUAGMUUUUAGKMUUUAFFFFABRRRQAUUUUAFFFN30AOxmiiigAooooAOtGMUUUAFFFFABRRRQAUUUUAHWiiigAooooAKKKKADFFFFABRRRQAUUUUAFFFFABRRRQAUUUUAFFFFABRRRQAUUUUAFFFFABRRRQAUUUUAFFFFABRRRQAUUUUAFFFFABRRRQAUUUUAFFFFABRRRQAUUUUAFFFFABRRRQAUUUUAFFFFABRRRQAUUUUAFFFFABRRRQAUUUUAFFFFABRRRQAUUUUAFFFFABRRRQAUUUUAFFFFABRRRQAUUUUAFFFFABRRRQAUUUUAFFFFABRRRQAUUUUAFFFFABRRRQAUUUUAFFFFABRRRQAUUUUAFFFFABRRRQAUUUUAFFFFABRRRQAUUUUAFFFFABRRRQAUUUUAFFFFABRRRQAUUUUAFFFFABRRRQAUUUUAFFFFABRRnFFABTd9OqHy6AHKWA5NMefYK474x/Hrwn+z/AOEZ9a8Xa1Y6Lptuv3532mRv7qL1ZvYV+W/7bP8AwXC8SfElrzQPhbHceGNEk3I2r3CD7bdDv5a9Ivq2TUyqRjufccG+Huc8SV1TwFL3es3pFfP9Efd37Y3/AAUv+Hf7HOnSWup3n9ueKJF3Wug2Dq11L6FyTiJM/wAT/gG6Uv8AwTn/AG7rL9uv4RXWsSafb6H4j0m9ktdS0uK4My26li0Do5ALq0ePnKr86v8AKMV+C+papcaxqFxeXlxcXl5cO0stxK5kklc9XZick17p/wAE4v2urj9kL9o/T9YkuJP+Ef1YrYavF/D5LEYk+qNg/nXLDFc0z+iM++jrhsHw3UqYWbqYqOt9k7bxS7P7721P6Akk4p9UNF1W31rTbe8t5I57e4iWWKVDuVlYZBHtir9dh/IEouLswooooEFFFFABRRRQAUUUUAFFFFABRRRQAUUUUAFFFFABRRRQAUUUUAFFFFABRRRQAUUUUAFFFFABRRRQAUUUUAFFFFABRRRQAUUUUAFFFFABRRRQAUUUUAFFFFABRRRQAUUUUAFFFFABRRRQAUUUUAFFFFABRRRQAUUUUAFFFFABRRRQAUUUUAFFFFABRRRQAUUUUAFFFFABRRRQAUUUUAFFFFABRRRQAUUUUAFFFFABRRRQAUUUUAFFFFABRRRQAUUUUAFFFFABRRRQAUUUUAFFFFABRRRQAUUUUAFFFFABRRRQAUUUUAFFFFABRRRQAUUUUAFFFFABRRRQAUUUUAFFFFABRRRQAUUUUAFFFFABRRRQAUUUUAFFFFABRRRQAUUUUAFFFFABRRRQBGQP603zCG/2cZJqQLzXA/tE/G/S/wBnv4U6l4l1RWmjsU/c26ttkuZTwka57s2Oe3J7VRthcLVxNaNDDx5pSdkvNnZXuqQ6XbNPczRwQxjczu21QPcmvg39t/8A4LfeF/gzc3Hhv4Zw2fjTxNHmKW9Zz/Zenn3ZTumfkfKmF4bLqw2n4T/bR/4Kd/Ej9rXULzS7i4l8K+GNzJ/ZFm5Xzeek78Fz7fd/3q+avK+tefVxVvgP648O/o5xUoYziXXr7Nbf9vP9F952/wAcv2ifGf7Svi6TW/GWv3muXkm7Ykr7be3H92OMfKi/SuJoori5+Y/q3L8tw2Coxw2DgqdOOySsgp0dNopHcldWZ+vX/BDz9tr/AIW78LZvhxrl35mv+E4w1g8z/NdWJOE57tGTsPts9a+/g0m4Y6d6/m9/Z2+POsfs1/G3QPG2h/8AH5olwrPb79q3sJ4mhb2dMj5vuthv4a/oY+CXxZ0n46/CzQ/F2g3AuNJ161S6gYHoGHKkdmBypHYqa9bC1OeB/n348cB/2HnH1/CR/cV7v0l1X6r5nYp92lpFPy0ua2PwoKKKKACiiigAooooAKKKKACiiigAooooAKKKKACiiigAooooAKKKKACiiigAooooAKKKKACiiigAooooAKKKKACiiigAooooAKKKKACiiigAooooAKKKKACiiigAooooAKKKKACiiigAooooAKKKKACiiigAooooAKKKKACiiigAooooAKKKKACiiigAooooAKKKKACiiigAooooAKKKKACiiigAooooAKKKKACiiigAooooAKKKKACiiigAooooAKKKKACiiigAooooAKKKKACiiigAooooAKKKKACiiigAooooAKKKKACiiigAooooAKKKKACiiigAooooAKKKKACiiigAooooAKKKKACiiigAooooAKKKKACiiigAooooAKKKKACm7zTs1HQBG0oUZb+HmvzR/wCCnP7Sv/C2Pit/wjVhd/8AEg8Is3mbW/dz3nIdyf8ApmMoPrL619gft3ftHx/s9/Bi4mt5B/bmsbrXTlH3lYj5pPog5/Kvx/8AiV4gkubhLPzPMkuP3tw/3mcnOM+vPNefjsRb3Ef0l4BcCfXcX/bWKj7lPSF+/WXy/M89/aA8B/2Pq8eqW/8Ax76h8kv91JfX8RXm9fXnxE/Z91rwj8ONGi8TW8kcHiWzE8DfxRd1DejgbT+NfJ+vaPceH9XuLO4j8u4t2ZX/ANvHf6MK4Vof2RkebYfGUrUZqpG+jRToooqj3gooooARPu1+jn/BCT9s5/CvinUPhFrl5/xL9Tc3uh+a/wDqZz/roQfR8bwPUN/ETX5yVo+E/FmoeCPE+n65o9xJb6ppdwl1ayr96KVTkEflWlGryTPifEHhHD8SZLVy+r8VrwfaS2/rsf00px/wLvTt2APyrxn9hf8Aap0/9r39njR/FdnsjvHj+z6jb7sta3KcOh/HkeqkGvaCMkV7XQ/zJzDL62BxM8JiI8s4NprzQ4dKKKKk4wooooAKKKKACiiigAooooAKKKKACiiigAooooAKKKKACiiigAooooAKKKKACiiigAooooAKKKKACiiigAooooAKKKKACiiigAooooAKKKKACiiigAooooAKKKKACiiigAooooAKKKKACiiigAooooAKKKKACiiigAooooAKKKKACiiigAooooAKKKKACiiigAooooAKKKKACiiigAooooAKKKKACiiigAooooAKKKKACiiigAooooAKKKKACiiigAooooAKKKKACiiigAooooAKKKKACiiigAooooAKKKKACiiigAooooAKKKKACiiigAooooAKKKKACiiigAooooAKKKKACiiigAooooAKKKKACiiigAooooAKKKKACg9KKKAIx8xqtqV5DptrJcSyeXFEhZ2P8IHJNW818i/8FUP2lD8O/h3H4L0u48vVvEyZu3X70FmDhvxkPy/7of2qalTljzHt8N5FXzjMqWXYde9N/cur+SPjv9uv9pr/AIXt8V9Q1iOSSTQdM3WekRf30B5k/wCBnn/dxXK/sDfs7SftHfG/7XqFv5mg6C63t+7p8s75/dQ89ckEt7Kf7wryrxPcXHjDxBb6Zp8clxJJKLeKJf8AlrKxwAPxOK/VH9jr9nu3/Z2+C+n6OfLk1O4/0rUpV+9LMwBb6gABV/2QK8fDx9vV55n9q8bZnh+DeFqeU4H3atSPKu6XV+r/ADZe/aa+Bsfxr+FFxpMUccd/Zp59g+z/AFUgHAHoCOPxr8h/2lfhjIvmap9n+z3mlu1veps2yYUkAkeqH/x0+1fuCnXHavhr/go5+zv/AMI74pPiqzt4/wCy9c/cX6IvypPjG70w69fcfxb67MZS+1A/O/BnjKWBx39mV5e7U1j/AIu3z/M/Luit74i+D/8AhB/FEln/AMs/v27/AN9P8R/SsGuHnP7IozjOHPEKKKKDQKTyvrS0UAfWv/BIT9s8/sv/ALRlvoOp3EkfhDx1LFZ3YaUrDZ3ecQz46AMT5bn0aPd8sdfuHDKJI/MHRhmv5h6/cL/gkR+2b/w1J+zrBpeqXHm+KvCKpZai7t810mP3U2e5ZR83+0PevQwtW/uH8b/SO4A9jUjxJg46S0qevR/o/kfX1FRw9KkzXYfyeFFFFABRRRQAUUUUAFFFFABRRRQAUUUUAFFFFABRRRQAUUUUAFFFFABRRRQAUUUUAFFFFABRRRQAUUUUAFFFFABRRRQAUUUUAFFFFABRRRQAUUUUAFFFFABRRRQAUUUUAFFFFABRRRQAUUUUAFFFFABRRRQAUUUUAFFFFABRRRQAUUUUAFFFFABRRRQAUUUUAFFFFABRRRQAUUUUAFFFFABRRRQAUUUUAFFFFABRRRQAUUUUAFFFFABRRRQAUUUUAFFFFABRRRQAUUUUAFFFFABRRRQAUUUUAFFFFABRRRQAUUUUAFFFFABRRRQAUUUUAFFFFABRRRQAUUUUAFFFFABRRRQAUUUUAFFFFABRRRQAUUUUAFFFFABRRRQAU1+tOzTX60Ac78RfG9j8NfBGpa5qUiw2elwNPKx/ujsPc/1r8a/2nfjpd/Fbx5rfibUJP9M1eX/R4v8AnhEPlQD2Rf8APNfW/wDwVV/abOoamvw9024j+zWZW51Zkf8Aj6pEfcDDn6p618H+D/BupfHT4q6XoOkxyST6ncfZ7f8AuxIOWkPoAoLn2FeXjqjnJUYH9heBPBlLLMBPiHMvdurpvpBa/j+R9G/8Esv2aP8AhMfGNx461S38zT9HYxWCuP8AWz4w0g9gD+tfocDg7a5n4OfDGx+EHw20vw5pcfl2umQLErfxSnqWPuTk10ydK9Cjh/ZUuQ/JuOuKq2f5vUx0/h2gu0Vt9+4rLuFc78Vvh3YfFPwBqWiXyCSG+iZW/vKeqsPcEAr9BXRfxUwQYcturTl5j5KjXlRqRrQlyyjqvU/HD9rP4HX/AIfn1PSLiP8A4m+gO2z/AKbJ1OPZhg/hXzNX7Bf8FFfgB/buhR+MtPt5JLvTf3V6qL8zw9m4/uH/AMdNflh8bvBH/CIeKPtFvH/xL9QLSxf9Mm7j+q/X2rxakPZT5T+7PDXi6Oc5bCo/j2n6/wDB3OMoooqT9QCiiigAr2T9gr9qq8/ZC/aO0fxRHI/9kXDCy1eJf+WtoxG4/VDh/wADXjdI/wB2tIT5Dys7yfD5rgauXYuPNGommvU/pr8MeI7Pxj4fs9U0+4jurO/iSeCVG3K6MMgj8K0GTca/OP8A4IT/ALaMfjPwnd/CXXLxTqWgxG60VpH+a4s8gNGM9TExH/AHT0Nfo9XsRlzRuj/MDjLhmvkGb1crxH2Ho+66Men3aWkT7tLQfNhRRRQAUUUUAFFFFABRRRQAUUUUAFFFFABRRRQAUUUUAFFFFABRRRQAUUUUAFFFFABRRRQAUUUUAFFFFABRRRQAUUUUAFFFFABRRRQAUUUUAFFFFABRRRQAUUUUAFFFFABRRRQAUUUUAFFFFABRRRQAUUUUAFFFFABRRRQAUUUUAFFFFABRRRQAUUUUAFFFFABRRRQAUUUUAFFFFABRRRQAUUUUAFFFFABRRRQAUUUUAFFFFABRRRQAUUUUAFFFFABRRRQAUUUUAFFFFABRRRQAUUUUAFFFFABRRRQAUUUUAFFFFABRRRQAUUUUAFFFFABRRRQAUUUUAFFFFABRRRQAUUUUAFFFFABRRRQAUUUUAFFFFABSP92lpr9aAG15v+1H8c7P9nr4Q6l4in8uS5RfIsbf/n6uHyEX6dSf9lSe1eiSHaGr8vv+Cl37TafFb4nSaba3H/Eh8IuYl+f5Z7jo8nvt+6P/AK9Z4mr7KHOfd+G/CM+Ic5pYRfw46z9O3z2PmD4t+P7vxDqF5cXlxJcalq0z3V1K33nZiSx9gT90f3a+yf8AglT+zL/wjnhy48f6pb+Xfa0pj01WT5oLbIyw95CA2f7qrXyl+y18Ebz9p7432enyRyf2fG/n6k3/ADygU/cz6n7n4mv1r0jSbfw7o9vZ2cfl29mixRxJ91QBgCvOwFDmn7aZ/TfjJxNTy7L6XDWA91tXn5Lovn+XqXQcmimp0qnr3iPT/C9hJd397b2dpGm95biYRxoo6kk8AV6/xbn8ywTnLkhqy4CQnNBJKcV4N4g/4KcfA3w9c/Z5PiDpV8P7+nwzX8f/AH3Ajr+tO8O/8FNPgb4p1D7PB8QNLsWkxtfUIprCN89MPOiL+tcn13D8/JzL70e3/qrnPJ7X6pU5d7+zla3rY9t1XS7fXdMuLO8jjmguIjFIr/dYMMEH6ivyw/bQ/Zqk8B+J9Y8Nyf6hj9s0mf8A2CTt/EHKH/69fqfoXiCy8RafHNZ3FvdwzLuWWJxIrKe4I6ivHf24PgP/AMLl+GklzZ2/ma1ou66tdmN0ox80fPqB/wB9AUYmhzwPq/DXiqpkebqFb3ac/dl5dmfiLeWcmn3ElvJ+7kt32On07VHXqH7RXgP+z9Q/ty3j/d3H7q4RF+4/Yke+MV5fXlRkf3Zg8RCtR9ogoooqjqCiiigDpvgz8WdY+BXxV0DxloEnl6poF6l1F/dlUcNG3qroWRv9ljX9Dn7O/wAbdI/aK+DOg+LtFuPMsdatll5PzRP/ABo3+0rZH4V/N7X6Af8ABDT9s/8A4Vr8SLj4Xa1ceXpPieVrjSvNf5be6A5jHp5ijd/vLXZhavLLkZ/OP0guAf7Tyz+28HH99Q+L+9Hr92/3n6/p92lqNHzBmnb69A/hUdRRRQAUUUUAFFFFABRRRQAUUUUAFFFFABRRRQAUUUUAFFFFABRRRQAUUUUAFFFFABRRRQAUUUUAFFFFABRRRQAUUUUAFFFFABRRRQAUUUUAFFFFABRRRQAUUUUAFFFFABRRRQAUUUUAFFFFABRRRQAUUUUAFFFFABRRRQAUUUUAFFFFABRRRQAUUUUAFFFFABRRRQAUUUUAFFFFABRRRQAUUUUAFFFFABRRRQAUUUUAFFFFABRRRQAUUUUAFFFFABRRRQAUUUUAFFFFABRRRQAUUUUAFFFFABRRRQAUUUUAFFFFABRRRQAUUUUAFFFFABRRRQAUUUUAFFFFABRRRQAUUUUAFFFFABRRRQAUUUUAFFFFADQ+TTZqcCtUtY1a30PS7i8upIobe1RpZZZW2rGqjJYk9AAKAjFzdonhf/BQP9pJPgH8GZo7CeNde17NrZAH5kB4eX6KD+ZFfkN4/wBc+0XH2OOST92/myt/E788e/r/ALxFe3ftpftKy/HX4m6n4jJkOm2/+i6RA/8ADCOhwejOfmP+yQvbdVT/AIJyfs1yfHH40R69qVv5mgeGZVuJS6/LdXXVE91X7x+ifey1eLiJSr1fZwP7m8OMjwnBfDEs2zD+K1zPzb+GPy/Nn2J/wT0/Zv8A+FDfBuC61C38vxDr226vP70QI+SP8B1/2jX0DTUQRrtX7o6Ckm/0X5vQV7EY8sOSB/MedZriM0xtTHYmXvVJX/4H6Hkn7ZH7WOifskfCiTX7+P7ZqFw32fTbBHCyXkxB9eijqT/CtfkD+0R+0z4u/aj8TSah4w1S4uLfzVe10pGP9n2eDldkfQsP77Zb/gO1V77/AIKRftDXHx9/ae1jy7jzND8KzPpGnpv+XdGcTyEf3jIGT/dQf3q8M0rR7zX9Yt9P0+3kuNQ1CVLe3iT70srkBUHuSa/LuJs8rYrEfU8Nfl206s/trwf8NcvybJ45xmcFKtOPPeX2I72XZ23fyK//AC3/ABpU/wA/0r9Wf2af+CRPw58DfD61PjjSYPGXie8iD3kt+C1rbueSkUOdoUdN3LHH3uw8Y/4Kh/8ABOjwv8GvhWPH3w90u30KHSZUXV9Lt8/ZpLd3VfOjU/LG8bEOdvDJ5n3mCVFbgzFww/tuf3u3/BOrLPH7h3G5tHK4QlFSfIpu3K/1sz5n/ZG/bD8Ufsh+N47zS5Li78OSP/p+hiX9zdA4y0YPEcw6gjCt91v4WX9mvhj8SNL+MPw20jxRodx9s0vW7RLqBunyt2I7EHhh/CQa/AhLiP8A56R/u/7nzV+k/wDwQx+LVxq3w+8YeDbgySR6DfRajZN/BEl0H8yNfUCWN3Y+s5r1+DcwxPP9Wr/D0PhPpC8HZasJDP8AA8saidpqP2k+vqu/Ywf+Cgn7Ntv4J8b3FxHH/wASPxPvb5V2rBMeXA9Ofmr88/E/h+48L+ILzT7j/WW77N/99eNp+hBz+NfvB+0V8HbT41/CzUNFuPLS8ZfOs5W/5ZTLyp+nZvrX5C/tQ/Cy8hFxcyWckGp6G7297F/FtD4Yfg3P+7mvqsVR9nPnOnwX40+v4H6lXl79PT1XR/oeF0UUVgfvgUUUUAFWtI1i80DV7PUNPuJLPUNPlS4t7hX2tE6kFXHuCBVWijnMq9CFam6VT3kz+gD/AIJ4ftcWv7X37OOk69+7j1qyQWWr26/8sLlAN3H91sh1/wBlhXvCvk52mvwj/wCCUv7ZM37JX7StmmpXHl+DfFzpputIz/LbEn9xde3lucN/sSO38Ir92rORLi3jMePLZcpXsUKnNC5/m14ucCy4bz2dGmv3NT3qb8uq9U/wsWqKri8jFytv5kfmSIXVf4towCcemSPzqxWh+YhRRRQAUUUUAFFFFABRRRQAUUUUAFFFFABRRRQAUUUUAFFFFABRRRQAUUUUAFFFFABRRRQAUUUUAFFFFABRRRQAUUUUAFFFFABRRRQAUUUUAFFFFABRRRQAUUUUAFFFFABRRRQAUUUUAFFFFABRRRQAUUUUAFFFFABRRRQAUUUUAFFFFABRRRQAUUUUAFFFFABRRRQAUUUUAFFFFABRRRQAUUUUAFFFFABRRRQAUUUUAFFFFABRRRQAUUUUAFFFFABRRRQAUUUUAFFFFABRRRQAUUUUAFFFFABRRRQAUUUUAFFFFABRRRQAUUUUAFFFFABRRRQAUUUUAFFFFABRRRQAUUUUAFFFFABRRRQAU1+tOqObpQA3PFfHv/BVT9pH/hE/BEXgXSbjy9Q15d+oMj/NFbZ+7/20PB/2QR3r6c+KXxH0/wCDvgjUvEWrSCOx0yBpn/vcDgD1JOB+NfjT+0n8a9Q+J/i/V9f1D/kKa3KWRE/5d4ugAGeykD/erjxlTkiftnglwNLOs2ji60f3VKz9ZdF8t2cLeWd58R/HGn6Ppcf2ie4lW1t1X+J2OM/5/hBr9X/2W/gTZ/s8fCnTdCg8v7RCnm3Uv/PeduXY/jx+FfJf/BKn9mb+1dRuPiBrFv8AurPNrpasv336PKPp0X8a++9/FZ5dh+WHP/MfonjVxdHFYuOR4OX7uj8XnP8A4H5gVxXLfHHx7H8MPg74m8RXH/Hvoul3N4/+7HEzH6dK6nfivC/+ClF99h/Yh+In/T5o0tk38PyzgRH68MeK68RPlpSn/KmfjWSYVYrMKGH/AJpxX3ux+LVtJcXNv5l5J9ovJPnuJf4pXPLOfcnJ/Gvfv+CY/gqPx9+214QjuEie20fz9UmU+kUR2HPtNJEa8ErY8AfEjxF8LvEF1qHh3UJNHn1LS5tMnuov+PhY5JIXPlt/yzbEW3cOcM3RvmX8RyzFUoY6OIrfDuf6Y8VZTicfw/Wy3AWjKcOReV9/wP2u+Jv7Zvwr+DN7Jb+JvG2g6bdQNseJrjfIvswXJX8a5Mft1/s//F+3k8P3HjTwvq9vfo0Utrd/6mVT1DeYoXH1r8YnuI7e48ySSPzJP43f5t3uScn60n+vt/8Aln/6F8v419fV46n8XsPdPwHDfRpy9U+WWMn7XySSv6bn7veEPgP8ObGFLzR/C/g828ibopbTS4ArD2ZV5H412djptvp0Pl28ccccf9xAq/kK/Fb9kr9ubxh+yR4ot5NPuLjW/DsjL9v0OWU+W0WfmeAsf3cwGcfwt91v7y/sV8HPi9ovxw+H+k+KPDt5HqGk6vB5sEqfkVYfwujAgg8qQVr6zJ84w+YQ56Puy6o/B/Ejw/zjhjEezxknUpS+GfR/Lo/zOl8rJIxXxp/wUi/Z++xahH4x0+38y31DFrqkSr8qHGFlPsR8jfhX2cz7SPU9Kx/Hngmw+IPhC70e/j+0Wl/E0Tq3zdRgH6ivWqU/aQPleE+IquT5nSx0Ph6ruuv9dz8D/ih4N/4QjxPcW8fmfZ5P3tv/ALh7fh0rna+qP2vP2fLzwxq+raDPHJJqejs0tlLs/wCPhccY9d44/wB4V8r14aP9BMhzOlj8JCtRl7slf5BRRRVHsBRRRQAV+1H/AARm/bQH7Q3wCTwtrF55nirwUqWsod/3l1bdIpffA+U/QV+K9eofsb/tM6h+yH8fdE8ZWfmSWdu/2fUoE/5erRiA4xjqo+df9pR/erbD1eWZ+UeMHAsOI8jlCH8an71P5br5n9FAtxv8z938owv+znr/ACH5VOOFrC8B+NbD4heENM1rTbiO803VLWO6t5kO5ZUdAwP5GtvdxXrH+cNSE4T5J7ofRRRQQFFFFABRRRQAUUUUAFFFFABRRRQAUUUUAFFFFABRRRQAUUUUAFFFFABRRRQAUUUUAFFFFABRRRQAUUUUAFFFFABRRRQAUUUUAFFFFABRRRQAUUUUAFFFFABRRRQAUUUUAFFFFABRRRQAUUUUAFFFFABRRRQAUUUUAFFFFABRRRQAUUUUAFFFFABRRRQAUUUUAFFFFABRRRQAUUUUAFFFFABRRRQAUUUUAFFFFABRRRQAUUUUAFFFFABRRRQAUUUUAFFFFABRRRQAUUUUAFFFFABRRRQAUUUUAFFFFABRRRQAUUUUAFFFFABRRRQAUUUUAFFFFABRRRQAUUUUAFFGaM5oAKKbvp2aACgnAopH+7QAzOVprncp9MU5flFeXftZftAQfs8/BvUtdfZJesPIsYj/AMtJ2zsyP7o6t/sg0SfKjrwOBq43EQwmHjzSm0l8z5G/4KtftLx+IPEUPgPTbz/Q9I2z6m6N8rzdVjP+6PmPuVr4h+F/w51P9or4y6ZoNh5n2jVJtnm7Ny2tuvLyH6Lk/wC8Qvem/FnxhcaxqNxJcXEl5f38rXV7K7fM7MSSTjuTmvub/gl9+y//AMK7+HknjDVLfy9W8Sov2bd961tQcqBnoXPzN/wH+7Xh8v1mt/dP7oj9X4A4OjTh/HmrLzm938t/ke83Nvo/7NXwOvP7Pjjt9N8LaW0qq3y8Rxk8n1JHX1NfkZdf8FLfjlrM8l5H4+1OzjvHaVbeK0tdtupOQgyh6DA+92r9ifjD8NLD4z/DbW/C+ryXcemeILV7Sd7WXy5lRupVsHBr5i0X/giJ8FdO02OO+bxprEkf/LxP4huYWZew227Rx8eyZrTNsLjKyjDCVOU/JPDfinhnLZV8TxLQdepUatoper163PgO4/bc+O3j7xBp+lx/FLxFHcapd29lb+VDbKqPNKsSvxDk4LZ+92r9OP8AgolZXDfsD+MFkkkuJIdIieWX+/sZC7H8AxrN8D/8Ejfgb8PfFWl6xYeGdaOoaRcJd2jXHifVbiNJVOVcxPclG5/vCvRv20fA0vxG/ZQ+IGh2qyeff6DewxbPvb2gfaR75A/Kpy/AYqhhZwxNTnlK+vyOjijjTI80zzAVslw3sKdKcW9Iq/vLt6H4c1ufDXwFf/Fz4i6L4Z0z/j/16/jsItw+VC5xvPsgy7f7INYFtcR3FvHJH+8jkTen+6ele5f8E1ZLcft5/Djz/wDV/abxT8vc2FyF/wDHsfjivyHKcLCtjo0Z/wAx/cHF+a1cBw7iMdQ+KFNtetj9N/gd+wD8Mfg14Ps9MXwppGsXCRL9qvNRtY7ma5fHLEuDtyewrwj/AIKef8E9fCV58F9S8eeDNIg0TX/DMDXl1b2EIjh1C2XmRDGvG8LkqRj5hjvX3Is4cZDVifEmwttY+G2uR3EcclvPYTLKjfdx5Zzn2r9rxGCw9TDyo8i2P858j4yzXC5xSzL20/aKab1euuz9T8BpBn/PrX3v/wAEPPjXcWnibxT8Oby4kk0+a3XXbBdx228gKxzgegcNE2P7wkP8Rr8+fCUmfC+lySf6yS0i37/vbigzX1N/wSTkuIP23fD8cfmfvLG8SXb/ABr5LHnjpuAr8q4YqzoZpGEPtOx/dHjJl1LMODa8628Iqa8mj9gqa8dOprx1+xH+c583/wDBQ34Bf8Jt4KTxRp8f+naCh8/j5pYO/wD3z1/Ovyh+OvgP/hH/ABR/aFvH/oeqPvfZ/BL1I/Hr+dfvVeWkd3bSRSfvIpEZGVvmVuOlfmD+25+zAngDxdqmhrHJ/ZOpbrrS5dn+qBzhc+sZyP8Ad2nvXm47D8vvwP6U8EOMuR/2NiZbaw9Oq+W58L0VNqVhcaPqElncR+XcW7srp/tVDXKf1XzQ3gFFFFAwooooA/UL/ggz+2ibvTLr4M6/cfvrFZb7w3K7/NJDnM1rk/xISXQf3N39yv05U4/Kv5ofhn8RtX+EXxG0TxNoNx9j1bQLpL21lT++p6H1Vhw3+z8rbq/oJ/ZE/ae0H9rX4IaX4u0OSPFwoivbf+KzuVA8yJs8/Kf0xXqYereB/Bv0gOAHlOZ/2xhI/uK+9toz6/fv9561RRRXQfzyFFFFABRRRQAUUUUAFFFFABRRRQAUUUUAFFFFABRRRQAUUUUAFFFFABRRRQAUUUUAFFFFABRRRQAUUUUAFFFFABRRRQAUUUUAFFFFABRRRQAUUUUAFFFFABRRRQAUUUUAFFFFABRRRQAUUUUAFFFFABRRRQAUUUUAFFFFABRRRQAUUUUAFFFFABRRRQAUUUUAFFFFABRRRQAUUUUAFFFFABRRRQAUUUUAFFFFABRRRQAUUUUAFFFFABRRRQAUUUUAFFFFABRRRQAUUUUAFFFFABRRRQAUUUUAFFFFABRRRQAUUUUAFFFFABRRRQAUUUUAFFFFABRRRQAUUU3fQAcbaTOB6UxpMVxfjr40aZ4QuHs4/wDiYap1W1gOWX3c9EHuf1rOrWhT1mc+IxFKhHnqy5UdbdXsen20kkrxxpHlmZ32qgHcnsMV5t4i/aJRtQ+z6HZ/b44/v3cj+XEfZB1f69PrXAeLNdv/AB7ceZrFxHJbnHlafEdtrFj+8P8Als2eVMnyqwBVUb5jBXzuMzv/AJ8nw2acXy5vZYT7zvP+GhtV/wCfCw/77b/Gh/2htUx/x42H/fbf41wdFeb/AG1iv5vwPE/1ox/835f5HcH9oLVD/wAuNj/321fAX/BQD9rB/jb45b/VponhpWigWLO24lJwzYPcnha9x/a3+MP/AAq/4fyW9nJ/xONc3W9v/sJ/HJ+AOP8AeIr87vHGuSahrEen2/mSeW/8PzNLKeAMdz2/3jXZh8ZiK8PfP7Y+i9wbiccpcS5n8K0p/rL5bI9D/Yp/Z9uP2lfjZbx3UfmabYOt7qLJ/q9in5Y/xOB/ug1+sOk2aadpkdtDH5cNuioir/CBwB+VeM/sLfs2R/s+fByCK4jj/t7Vwt5qLfxK5HEWfRAcfXPrXtwbJr6PB0PZQOjxS4y/t3N5ex/g0vdh+r+f5C0UUV0n5uFV9RtvtVrLHJ/q7hGR/wARirFNfpRy8w4uzuj8HP2ivhDcfAn47eK/Ckkflx6HqEq2vylVa1b54CM9R5bKuf7yn0rE+Hvjq/8Ahl4+0XxFpskf27Qb2G/i3/Lv8tt2w/7LAYb6mv0y/wCCpX7BF58ebCPxx4Tt/M8U6LbtFcWo+9q1uMkID/z0Q5K565Zf4q/Lm5t5LC4kjuI7i3uLd2ilR0KyRODyCD0INfjufZbiMtxvt6Xe6P8AQzw34xy/ivhyODxMuapGHJUj17X+Z+5X7M/7TnhX9qD4a2+veHr6Ft6Kl1Zu4+0WMveORc8HP515r/wUn/as0f4C/s96tpseoW58VeIrOWy0mzR90zM42GYr2jQHcx/2cfer8gdL1S80i4+0afeXmn3GzZ51rM8Mm303IQcU2/vZNXv5Ly4uLi4uLj/XSyymSSXHAyzHJ/Gvdq8d3w/u0/eta5+cYH6NNGhm8cZLE3oRnzcltfJN3/QrxW/2a2jjj/1caKi/7or7U/4Ij/DibxB+0H4k8TLG/wBj8P6StmzH/nvcsCo/74ik4/2l9a+Tvhj8Ktf+Nvja08O+FdMuNY1O7+VVT5VhX+/K3RE9z/49X7L/ALEv7Ktp+yD8CrXw1by/2hql1K97qt+6BWvLl8ZIA6IqhY0/2EXdubLHk4OymdTFfXKnwx/NnuePnG+EwWRvI8PP99V0a7Q63/Q9iooor9QP4biMk+aOvJv2wPgbH8bvhVNDbx/8TbTN11Zv/FvA5X6EcV65TAuBJ3olHmhyTOvLcxq4HEQxdH3ZQd0fhl+0n4Akt7n+1445I5I3+z3qbNrI3QH8+P8AexXkf+f/ANXtX6Xf8FFf2cI/C/jGTWo7P/iT+JsrcJvO2KbGWHtkcj/aFfnJ4v8ADFx4Q1+40+4/5Zv8j/8APVP4WH1H9a8KdP2c+U/v3gfiSlnOW08RS+0vufVfIzKKKKZ9sFFFFACP92vs3/gkP+3Vefs4fEK78GXlv9s0fxfKn2RWf/VXY4B+jjj/AHq+M6n003H9oW/9n/aI9QjmV7d7fPnI4OVKbeQwPK4+aunCS5Zxly8x8nxxw3hM8yevgMZ8LW/ZrZ/I/fWT9s+8gn8qTRIEkj+V180/e9Kb/wANrXH/AEBIP+/xr5g+BnjDxJ43+F2l6p4w0+TS/ElxDuvYnULvcEjzAo+6HABxxtzXS6rqlvo+nyXl5cW9nbx/O8srhVT8TX7DhOG8HWhGXsz/ACqzaNTA4urhpSUuRtXWqdvM96/4bWm/6Adv/wB/j/hXP+PP+CkGn/DjT/tGqWFpHn/VQrMWml+ij+dfF/xa/bIz5mn+E4/3n3H1CVPlT/rkh6/V/l/2a8F1jV7zX9QkvNQuLi8uLh9zyyvuZ/xr63L/AA3wtVc9aPL8zw6mbTj8J+4HwR+Jo+Mnwk8OeKY7f7GNesYr37Ozbmh3jOM11ydK8j/YVb/jEL4cf9gG2P8A45XrgO1a/DMwoxpYqpRhtGTX3M+hoy5o8w6iiiuc0CiiigAooooAKKKKACiiigAooooAKKKKACiiigAooooAKKKKACiiigAooooAKKKKACiiigAooooAKKKKACiiigAooooAKKKKACiiigAooooAKKKKACiiigAooooAKKKKACiiigAooooAKKKKACiiigAooooAKKKKACiiigAooooAKKKKACiiigAooooAKKKKACiiigAooooAKKKKACiiigAooooAKKKKACiiigAooooAKKKKACiiigAooooAKKKKACiiigAooooAKKKKACiiigAooooAKKKKACiiigAooooAKKKKACiiigBvl0bKdVa8uI7eDzJJPLjj+9zt/WgL23JRWN4r8b6b4KsfO1O8itUb5V3fM0reiqOWPsBXDeMfj5HbTNZ6HHHdycqbqR/9Hjx6Y++fYYXj7wrzm5uW1TV/t19dyX13nb5s7D5R6KOiL7D0rxsZnNKl7sfePlc04mw+G9yl70jp/G3xl1TxQ0kGn+Zo+n7c7sj7VKORnIyEGT254+9ztrlLazjt/wDVx+X/ABv/AHnb1J7mpEkj/wCen+elL8ntXzGKx068v3p+d47NMRi589aXy6CUUYj/AOelGI/+elcZwhUd/eR6fp8lxcSR29vbo0ssrvtVFAyTTv3dfPv7c3xk/sfQI/Cenyf6RqCLLeujnckWeE4P8ZH/AHyK0o0/aT5D7Pw/4QxXE2eUMqoLST959kt39x84ftP/AB0k+JHjDUNc/efZ9/2TTYn+XZCPu59CeXauu/4Ji/s2S/FL4oyeLNSgkk0jwzNvg3r8s931XPqEBz/vEf3a8i8E/BvxV+0X4v8As+g2MlxZ27+V9qf5bdefmkLdOv8Ad+bj3r9Pv2d/Amj/AAK+EumeHdPj3LZxDzX2DdLJ1ZjjuSTX1eX0bSvP4Yn+lHGubYXhfhuHDmUW55RUXy/Zj1v5s9KiXav+fkoTpWZ/wlcP91/ypf8AhKYf+ebfpXt80D+YPqtXsalFZv8Awllv/cf8xTf+Eqi/55v+lHMH1er/ACmpTfLrN/4SyL+4/wCdH/CVRf8APN/0o5oh9Xq/ymlLyMGvAf2nf+Ccnw6/acuP7QvbF9H1r/oI6cwhuGz/AHxjbIM8/PXtg8UxjrG/6Uf8JXbnoj/pWWIhSrR5J+9E78rxmZZbXjiMDKVOUeqZ+furf8EKbr7dJ/ZvxCxa/wAIutL3TfiUdR/47Wt4E/4IX6db33meJfHl9qEEb/8AHvYWq2/mr6MWLkfVdtfdbeKbcr92RfypV8WQgfckb8q8mOQZXGfP7NH39bxc41qUvZ/W5fcvzsch8Bf2Z/Bf7N/h/wDs/wAI6Lb2CSf62XZ5k07eryHlq9BjzWePF8DD/VSUh8U27DmOT9K9qEoQXuH5zipYvFVZVsTeUpbtu7NOis3/AISq3/55yfmKP+Eqt/8AnnJ+Yp80Dn+r1f5TRyfSkc8Vn/8ACUwf885P0o/4SqD/AJ5yfpR7WAfV6v8AKYPxq+GFr8afhzf+H7r939qiby5dn+okHKv+Bx+tfkL+1J8Hbyx+2W95byW+reHJXini/idQeceo7r9a/ZZ/FFv28yvkv/gof8GbTVdvjPS4BvjUQakgX/Wr0WQj2HH0+lceMjGfvwP2Pwf4pqZVmH1KtpTqbeUv+Dsfk3RXUfFrwR/wg/iiTy4/9DvN0tun8O3unsQa5mSvP5j+z6NWE4c42itbwT4H1j4keILfS9Ds5NQvLj+BPl2L6knhV96+xv2e/wDgnX4f8L+XqHji8s9c1D76aYko+xo3X5z/AMtfp93/AHq9rK8jxWNl+6j8+h+ecceKeR8MUv8AbKv7zpBbv/L5nzh8BP2T/Fn7QGoRyafZ/wBn6HG/73VbtCtuijqEHWVv9z5Vx8zCvub9n79kDwn8B7eO4s7f+1Nc2fPqF2gabd/sDoo+ldX4w+Jnhv4T+H4/tElnb28abLSytEG5lHQIg4AFfOfxX/ac1z4kW8lnZ+Zoelyf8son/fXCn++46fQV+0cL+H8Yy53Hml3Z/CXiP475zxHOVGnP2VH+WPX1fX8j2j4r/tQaH8P/ADLOzkj1jVPueVE/7uJv9px39h81fOPxC+KmufFC58zVLz93H9y3T5YYvovr7mubor9hy7I8PhIe770u5+A1sROYUUUV6r2Oc/Zv9hL/AJM8+HH/AGArX/0AV625ryT9hL/kzz4cf9gK1/8AQBXrclfxlm/+/wBf/HL8z77D/wAKPoOoooriNgooooAKKKKACiiigAooooAKKKKACiiigAooooAKKKKACiiigAooooAKKKKACiiigAooooAKKKKACiiigAooooAKKKKACiiigAooooAKKKKACiiigAooooAKKKKACiiigAooooAKKKKACiiigAooooAKKKKACiiigAooooAKKKKACiiigAooooAKKKKACiiigAooooAKKKKACiiigAooooAKKKKACiiigAooooAKKKKACiiigAooooAKKKKACiiigAooooAKKKKACiiigAooooAKKKKACiiigAooooAKKKKACiiigAooooAahrgv2lnx8D/E3/Xk39K73+GuC/aW/wCSF+Jv+vNv6Vz4r+FL0OXGv/Z6n+Fn54+J/iRH4P8As8dxcXnmXG7yoon+Z1XGTyQAF3L/AN9V6bpPwF8eazp1veR6XeeXeRJKv+mxdGGR/wAtPQ188fGT/kcbP/r0X/0Y9fpj8Mv+Sb+H/wDsG2//AKKWvzXLcNHEzlz/AGT8dynAwxbl7aTPl/8A4Zy+In/QLvP/AANi/wDi6b/wzn8RP+gXef8AgdF/8XX15RXt/wBiUP5n9563+ruF8/vPkX/hnL4if9Au8/8AA2L/AOLpv/DOnxE/6Bd5/wCDCL/4uvryil/YtL+Z/eH+ruF8/vPjfXvgf8RPD+j3mof2Hqlx9jiZ/Kt7hLiR8dlRHJJ9gtfN/iT4H/EbxhqNxcah4J8ZyfbN2/fpVz908Yzt9K/VijNdOHy6NLU/XPDHjKHBU6lbCUVUqT0vJu6XZH5l6JYfGzwvYR2tjo3jmzggTYiwaNMqqowOgi9KuJqnx8I/5B/xB/8ABVN/8RX6UUV3+9/MfpVTx6lUnz1Mupc3ofmx/aXx+/58viH/AOCqb/4ik/tT4+/9A/4jf+Cq4/8AiK/Sih5KzvP+Yn/iO3/Uuo/cflTN+0P8RrfT47yTXvEUdvIq7JXtmWN93Qj5ar/8NQePv+hm1r/vy3/xNdV8Xf8AkT5I4/8AVx6w6In9xRcOAPpgAfhXm9fL4jiPEU58h8nP6S81O39l0fxOg/4ag8ff9DNr3/fs/wDxNH/DUHj7/oZte/79n/4muforH/WjFmf/ABM1P/oV0fuZ0X/DT/j3/oZte/74f/4mk/4ad8ff9DNrf/fk/wDxNc9RR/rLiCv+JmKn/Qro/cd54Q+K/wAXPiLPcR6DeeLtbktFVpVtbKWZogTgE7U4Gad4t+KPxh+HX2P+2rjxlpP2vf8AZ/tVlLH5uzbu25TnG5f++hX0J/wSE58f+NP+wfbf+jHre/4Kzrt8RfDj/r31bp/v2FfpXBWW/wBtVaVGrJr2l/wv/kfXYHx1nWwMcXLLqNu1vkfJfhv9ob4jeN9Y/svR9b8T6hqHzP8AZ7S3kkk2jrwE7V03/CQ/HY/8unj7/wAFU3/xFZv/AATg5/a3/wC3S9/9DWv0czX2/EXBFLLcV9XjUctE/vO7C+N0Ksef+zqP3H55/wBv/Hb/AJ9/H/8A4Kpv/iKP7f8Ajt/z7+P/APwVTf8AxFfoZRXz/wDq/D/n4zf/AIjRD/oXUfuPzz/t/wCO3/Pv4/8A/BVN/wDEUf2/8dv+ffx9/wCCqb/4iv0Moo/1eh/z8Yf8Roh/0LqP3H55jXfjsf8Al38ff+Cqb/4iqusT/G3WLG4tbzT/AB9cQXCbGifSZtrKfX5K/Raij/V6H/Pxjp+NXJPnhgKX3H5JfFD9k/xt448MXFv/AMIb4q+2W/720f8Asi4++B0Py9COPx9qx/gn/wAEoPix8SNHs9Y1jw/ceH9Lk+f7Ldyx2986/wC1E5zGP99d3+zX7Ciit8HkdKjU9pL3vLoehmn0iuIK+Clg8LFUubqt16dj4F8H/wDBPnxZ4HsPsel+G7Ozj+Xf/pUW6VvViTk1W+IXwB8WfCnR49Q1jS/s9nI/lJKtxHIu89Adp6mv0DHSvKf20/8AkgOof9fEP/odfpWUcQ1va0sJCnCMbpaI/nfNJV8XKWJxVVyqd27s/Nj4j/8AIz3H+4n/AKBXPJ0rofiP/wAjPcf7if8AoFYFfumH/hcp8eFFFFdABRRRSlsB+zf7CX/Jnnw4/wCwFa/+gCvW5K8k/YS/5M8+HH/YCtf/AEAV63JX8Y5v/v8AX/xy/M++w/8ACj6DqKKK4jYKKKKACiiigAooooAKKKKACiiigAooooAKKKKACiiigAooooAKKKKACiiigAooooAKKKKACiiigAooooAKKKKACiiigAooooAKKKKACiiigAooooAKKKKACiiigAooooAKKKKACiiigAooooAKKKKACiiigAooooAKKKKACiiigAooooAKKKKACiiigAooooAKKKKACiiigAooooAKKKKACiiigAooooAKKKKACiiigAooooAKKKKACiiigAooooAKKKKACiiigAooooAKKKKACiiigAooooAKKKKACiiigAooooAKKKKAG/w1wX7S3/JC/E3/AF5t/Su9/hrgv2lv+SF+Jv8Arzb+lc+K/hS9Dlx3+7z/AMLPy0+Mx/4rC3/69E/9GS1+mnw2/wCSe6H/ANeFv/6LWvzL+Mx/4rC3/wCvRP8A0ZLX6afDb/knuh/9eFv/AOi1r89yH46h+V8OfHI2qKKK+qPqgooooAKKKKACiiigApGP+jyUtIx/0eSlUJl8B+Znxd/5E+4/7Db/APpTLXm9ei/Fz/kTrj/sNv8A+lMtedV+ZY3+NI/Ma/8AECiiiuUzCiiigD7D/wCCQX/JQfGX/Xhbf+hvW/8A8Fav+Ri+G/8A176t/wCh2FYH/BIL/koPjL/rwtv/AEN63/8AgrV/yMXw3/699W/9DsK/oLwj/wB7wv8A29/6TI/Vsn/5Ekf66ny7/wAE4/8Ak7j/ALdb7/0MV+jnevzj/wCCcf8Aydx/2633/oYr9HO9fr3Hn/IyX+GJ6WV/wfmFFFFfFnoBRRRQAUUUUAFFFFABXlP7af8AyQHUP+viH/0OvVq8p/bT/wCSA6h/18Q/+h12ZV/vlL/EvzM8R/Ckfmx8R/8AkZ7j/cT/ANArArf+I/8AyM9x/uJ/6BWBX9KYf+FE+PCiiiugAooopS2A/Zv9hL/kzz4cf9gK1/8AQBXrcleSfsJf8mefDj/sBWv/AKAK9bkr+Mc3/wB/r/45fmffYf8AhR9B1FFFcRsFFFFABRRRQAUUUUAFFFFABRRRQAUUUUAFFFFABRRRQAUUUUAFFFFABRRRQAUUUUAFFFFABRRRQAUUUUAFFFFABRRRQAUUUUAFFFFABRRRQAUUUUAFFFFABRRRQAUUUUAFFFFABRRRQAUUUUAFFFFABRRRQAUUUUAFFFFABRRRQAUUUUAFFFFABRRRQAUUUUAFFFFABRRRQAUUUUAFFFFABRRRQAUUUUAFFFFABRRRQAUUUUAFFFFABRRRQAUUUUAFFFFABRRRQAUUUUAFFFFABRRRQAUUUUAFFFFABRRRQAUUUUAFFFFADf4a4L9pb/khfib/AK82/pXe/wANcF+0t/yQvxN/15t/SufFfwpehy47/d5/4Wflp8Zj/wAVhb/9eif+jJa/TT4bf8k90P8A68Lf/wBFrX5l/GY/8Vhb/wDXon/oyWv00+G3/JPdD/68Lf8A9FrX57kPx1D8r4c+ORtUUUV9UfVBRRRQAUUUUAFFFFABSMf9HkpaRj/o8lKoTL4D8yfi5/yJ1x/2G3/9KZa86r0X4uf8idcf9ht//SmWvOq/MsZ/GkfmeJ+MKKKK5TEKKKKAPsP/AIJBf8lB8Zf9eFt/6G9b/wDwVq/5GL4b/wDXvq3/AKHYVgf8Egv+Sg+Mv+vC2/8AQ3rf/wCCtX/IxfDf/r31b/0Owr+gvCP/AHvC/wDb3/pMj9Wyf/kSR/rqfLv/AATj/wCTuP8At1vv/QxX6Od6/OP/AIJx/wDJ3H/brff+hiv0c71+vcef8jJf4YnpZX/B+YUUUV8WegFFFFLUAoooo1AKKKKNQCvKf20/+SA6h/18Q/8AoderV5T+2n/yQHUP+viH/wBDrtyn/fKfqjHEfw5H5sfEf/kZ7j/cT/0CsCt/4j/8jPcf7if+gVgV/SmF/gxPkQoooroAKKKKUtgP2b/YS/5M8+HH/YCtf/QBXrcleSfsJf8AJnnw4/7AVr/6AK9bkr+Mc3/3+v8A45fmffYf+FH0HUUUVxGwUUUUAFFFFABRRRQAUUUUAFFFFABRRRQAUUUUAFFFFABRRRQAUUUUAFFFFABRRRQAUUUUAFFFFABRRRQAUUUUAFFFFABRRRQAUUUUAFFFFABRRRQAUUUUAFFFFABRRRQAUUUUAFFFFABRRRQAUUUUAFFFFABRRRQAUUUUAFFFFABRRRQAUUUUAFFFFABRRRQAUUUUAFFFFABRRRQAUUUUAFFFFABRRRQAUUUUAFFFFABRRRQAUUUUAFFFFABRRRQAUUUUAFFFFABRRRQAUUUUAFFFFABRRRQAUUUUAFFFFABRRRQAUUUUAN/hrgv2lv8Akhfib/rzb+ld7/DXBftLf8kL8Tf9ebf0rnxX8KXocuO/3ef+Fn5afGY/8Vhb/wDXon/oyWv00+G3/JPdD/68Lf8A9FrX5l/GY/8AFYW//Xon/oyWv00+G3/JPdD/AOvC3/8ARa1+e5D8dQ/K+HPjkbVFFFfVH1R8x/tvf8FDpv2Q/H+g+G9N8I2/iq91ewl1K7e41o6ctiiyJHCBtt5t5dvO/ubfK/iz8vi4/wCC13iP/olOi/8AhYyf/K+vIf8Agpn4r/4TD9uDxZ+8/wCRbstO0Jf7pVIDeH/x6/YH/d/2a8Nr89zTiDFU8VKjRl8LPy3OeKMZSxkqNGXux0PtD/h9n4i/6JTov/hYy/8Ayvo/4fZ+Iv8AolOi/wDhYy//ACvr4v8AK9qPK9q8+XEmYfzfgeX/AK15l3/A+0k/4LZa9+78z4U6T5e5d2zxjIzcnHT+z+a+9vD+pf21o9neeX5f2yBJdn3tu4A4z369a/DWaP8A9DX+Yr9wPAi7fA2ke9nCf/IYr63h3McRiVL2x9xwtmmKx3N7f7PyNakY/wCjyUtIx/0eSvpKh9ZL4D8yfi5/yJ1x/wBht/8A0plrzqvRfi5/yJ1x/wBht/8A0plrzqvzLGfxpH5nifjCiiiuUxCiiigD7D/4JBf8lB8Zf9eFt/6G9b//AAVq/wCRi+G//Xvq3/odhWB/wSC/5KD4y/68Lb/0N63/APgrV/yMXw3/AOvfVv8A0Owr+gvCP/e8L/29/wCkyP1bJ/8AkSR/rqfLv/BOP/k7j/t1vv8A0MV+jnevzj/4Jx/8ncf9ut9/6GK/RzvX69x5/wAjJf4YnpZX/B+YUUUV8WegeGf8FCv2pNY/ZA+AH/CXaHp+l6pqH9q2+n+VqHmeTtcOSfkYHPyDv3r4c/4fy/E3/oUPAn/fF3/8er6V/wCC3MUn/DFcflx+Z/xUVn/6Lnr8iPs8n/POT/vg1+ocE8P5ZjcI6uMV5XfX0PBzHE1qdXlhI+4P+H9PxM/6E3wL/wB8Xn/x6j/h/T8TP+hN8C/98Xn/AMer4f8Ascn/ADzk/wC+Go+xyf8APOT/AL4avs/9UMh/kX/gT/zPN+vYv+Zn3B/w/p+Jn/Qm+Bf++Lz/AOPUh/4Lz/Ew/wDMm+Bf++Lz/wCPV8PPH/yzk/dyf3H+X5fX6U2t/wDUnJGrxo/i/wDMz/tDEfzH7Hf8EzP2+PEn7b//AAmn/CQaPoej/wDCL/YvJ/s3zf3qz+fnd5jP08kdMdTXrH7aRz8ANQ/6+If/AEOvlP8A4IOfCzxB4X8EePPFGoafcWej+KHsYtKll+X7asH2jfIo/uZlAU/xYNfVn7aXHwA1D/r4h/8AQ6/HMdh8PQz72OE+CM1b8L/ifSU5TlheeZ+bHxH/AORnuP8AcT/0CsCt/wCI/wDyM9x/uJ/6BWBX7zhf4MT5sKKKK6ACiiilLYD9m/2Ev+TPPhx/2ArX/wBAFetyV5J+wl/yZ58OP+wFa/8AoAr1uSv4xzf/AH+v/jl+Z99h/wCFH0HUUUVxGwUUUUAFFFFABRRRQAUUUUAFFFFABRRRQAUUUUAFFFFABRRRQAUUUUAFFFFABRRRQAUUUUAFFFFABRRRQAUUUUAFFFFABRRRQAUUUUAFFFFABRRRQAUUUUAFFFFABRRRQAUUUUAFFFFABRRRQAUUUUAFFFFABRRRQAUUUUAFFFFABRRRQAUUUUAFFFFABRRRQAUUUUAFFFFABRRRQAUUUUAFFFFABRRRQAUUUUAFFFFABRRRQAUUUUAFFFFABRRRQAUUUUAFFGaM0AFFFFABRRRQAUUUUAFFFFABRRRQAUUUUAFFFFABRRRQA3+GuC/aW/5IX4m/682/pXe/w1wX7S3/ACQvxN/15t/SufFfwpehy47/AHef+Fn5afGY/wDFYW//AF6J/wCjJa/TT4bf8k90P/rwt/8A0WtfmX8Zj/xWFv8A9eif+jJa/TT4bf8AJPdD/wCvC3/9FrX57kPx1D8r4c+ORtU4JtHNNrjf2h/G/wDwrj4IeLtcjxHcaPpFzc27fdzKIm2fiWwPxr6atPkhKZ9NUnyw5/5T8ffi54z/AOE/+L/jDxB/yz1zXb29i3/N+6a4fyRnviPaPwrqP2O/hdZ/GD9q7wJoeqafb6po8l7Le6haTIJI5YYbeUjcp4I80w9q8ys4/s+nxx/880Wut+CXxm1z4A/Ef/hKPD/2D+1I9PuNPie6iaZYvOMZLhQeTmJevvX4/Qrwljfa1u9z8Oo4qH9ofWMR8PNc/V3/AIYt+EH/AETHwJ/4JLf/AOJpZP2Kvg//ANE08Cf+CS3/APia/NXUP2+vjHqFxJJ/wsDVLfzPm2W9vbrGv+6ChIH/AAKuw+F//BUf4qeANQt/7YuNP8YafG/723urcQ3TAnnbNHxnH3dyV9tS4hy2U+Tl/A+/pcUZVUnycv4H3yn7F3wjt7iOSP4aeB45I33ps0S36jofu16Xb26WttHHDHGkcaqiovyqmOAAOwry/wDZf/a48L/tUeF/tmiSSWeqWar/AGhpV04W6smPfA++jH7sg+Vv/Ha9Ur6bD+xlDno/aPrsP7GUOej9rqgpGP8Ao8lLSMf9Hkraexs/gPzJ+Ln/ACJ1x/2G3/8ASmWvOq9F+Ln/ACJ1x/2G3/8ASmWvOq/M8Z/GkfmeJ+MKKKK5TEKKKKAPsP8A4JBf8lB8Zf8AXhbf+hvW/wD8Fav+Ri+G/wD176t/6HYVgf8ABIL/AJKD4y/68Lb/ANDet/8A4K1f8jF8N/8Ar31b/wBDsK/oLwj/AN7wv/b3/pMj9Wyf/kSR/rqfLv8AwTl/5O4/7dbz/wBDFfo5X5x/8E5f+TuP+3W8/wDQxX6OV+v8ff8AIzj/AIIno5Z/B+YUUE4pd4/uPXxOp38xFdWcdx+7uI45I/7joGX9ar/8I/Z/8+dn/wB+U/wqaHULe4uJI47iOSSP/WqrhmX6gdKmq1KSD3JlM6Hp5H/IPs/+/Q/wrmfjF448L/A74bax4s8QR6fb6Podu1xK7xJubHRVyOWJ4x712Wea/Kn/AILV/teyfEH4kR/CvR7j/iT+E5UuNaeJ/lu7woGWE+oiUqW/22/2Gr1+H8rr5njY4eDfLu/Q5cZUhSpc58rftK/H/WP2n/i/qnjDWI47eS8fZZWUX+r0+1H3IF+mfmP8TEtXpv8AwTg/Ygk/bI+MH/Ewjkj8D+H3SXWJdn/H23VbVSe74+b/AGAfl+avAvCvhjUPG/ifT9H0uzkvNU1i6isrW3i+9cTSuERB9Sf1r93/ANkD9mfT/wBlH4D6P4P0/wAu4ubeLzdSu0T/AI/blgPMk+meF/uqBX61xhnEMnwEcFhNJyVl5LueDgMPLE1eeZ6Lo+j2fh/R7PT9Pt7ezs7OJYoook2qiAAAADtgV5l+2f8A8kA1D/r4h/8AQ69WfpXlf7af/JAdQ/6+If8A0OvxjK23jaTf8y/M+lrRtRkfmx8R/wDkZ7j/AHE/9ArArf8AiP8A8jPcf7if+gVgV/SeH+CJ8gFFFFdIBRRRSlsB+zf7CX/Jnnw4/wCwFa/+gCvW5K8k/YS/5M8+HH/YCtf/AEAV63JX8Y5v/v8AX/xy/M++w/8ACj6DqKKK4jYKKKKACiiigAooooAKKKKACiiigAooooAKKKKACiiigAooooAKKKKACiiigAooooAKKKKACiiigAooooAKKKKACiiigAooooAKKKKACiiigAooooAKKKKACiiigAooooAKKKKACiiigAooooAKKKKACiiigAooooAKKKKACiiigAooooAKKKKACiiigAooooAKKKKACiiigAooooAKKKKACiiigBrH5aaTk05zzWTq3iO30n5M+ZJ/zzT734+lcOMx1DC0nWxMlGK7lRjc1HcAZrn9W8dRwKUs40upE45fy48+mcHP4A1jarq9xq//AB8SeXH/AM8l+7+P96oPKr8L4q8XpKX1fJ//AAJ/ojvo4PrM0v8AhPdU/wCfDT//AALf/wCN0v8AwnWqf9A+w/8AAt//AI3WV5dOr88/4ifxD/z+/BHV9Xpfymn/AMJ1qn/QPsP/AALf/wCN0f8ACdap/wBA+w/8C3/+N1mUUf8AET+If+f34IPq9L+U0/8AhOtU/wCgfYf+Bb//ABuj/hOtU/6B9h/4Fv8A/G6zKKP+In8Q/wDP78EH1el/Kaf/AAnWqf8AQPsP/At//jdH/Cdap/0D7D/wLf8A+N1mUUf8RP4h/wCf34IPq9L+U0/+E61T/oH2H/gW/wD8bpP+E91T/nw0/wD8C3/+N1m03ZR/xFDiFf8AL78EP6vS/lNP/hPNU/58bD/wLf8A+NVFc/Em8tYfMktbGONfvM92Vx/45Xnvjv4yaX4I8y38z7Zf/wDPCL+H/ePb+deKeOPiXqnj6f8A0y48u3/ht1+WNfr/AHq+Xzjx6zTBe77fml2Vj6TJ+DquN96UeWPdn0f4D/aPg8b/ABATRbe1hkjaF5WuorgtHley5UbvrxXqKcsf0r5L/ZK5+Ltv/wBe8n8q+tE+7X9E+CfF2O4i4f8A7QzGXNU55LTt0PF4qyull2N+rUuyJaKKK/ZD5kKKKKACiiigAooooAKKKKACiiigAooooAKKKKAG/wANcF+0t/yQvxN/15t/Su9/hrgv2lv+SF+Jv+vNv6Vz4r+FL0OXHf7vP/Cz8tPjMf8AisLf/r0T/wBGS1+mnw2/5J7of/Xhb/8Aota/Mv4zH/isLf8A69E/9GS1+mnw2/5J7of/AF4W/wD6LWvz3IfjqH5Xw58cjar5v/4KseMv+EY/Y61q3/1f9tXdtpu9327N0gcn8oz+dfSFZ/iLwrpfjHT/ALPqmn2eqW+7d5V1brNHn1wwIzX0mJpe1pSh/MfRYql7WhKH8x+HaH7R/q/3n/A67b4Kfs4eOP2h7i4j8H+H7jVI7f5Li9Z0t7O3b0MjHBb2XLV+oXiz9g/4QeOJ5JNQ8B6H5kn8UMJt2XjGRsKgGvRPBHgPR/ht4Xs9D0PT7fTNLsIvKt7eJdqov9T718Zh+EP3v+0SPg8HwPGM+fE1OaPlufmT4i/4JY/Gfw9p0lzHpfhvVBGu94LHVi1w3+6JY40J/wCBV8/arp9xo+sXGn6hb3FnqGnytb3dvcJ5clu69UZT0Nfuf/10r87f+Cwfwh0/wr8T/C/ivT4I7e48SW89rf7U2+a8GwpI3+1tkI/Css74boUMP9Yw/wBncniLhOjhsP8AWMNePLvc+X/hJ8X9c+BPj/T/ABZ4fuJI9Q09/ni/5Z6hDxvhcd1cD/gLYav2Q+FPxH0/4v8Aw30PxJpcnmafrlkl3F/FtVhkg+4PH4V+JtfpN/wR98Wyax+zFfaVJJ5n/CP61c2qf7CPtnVB7AS1PCONnzSw8/kZ8E5hONWWEn8j6upGP+jyUtIx/wBHkr7+ofpEvgPzJ+Ln/InXH/Ybf/0plrzqvRfi5/yJ1x/2G3/9KZa86r8yxn8aR+Z4n4wooorlMQooooA+w/8AgkF/yUHxl/14W3/ob1v/APBWr/kYvhv/ANe+rf8AodhWB/wSC/5KD4y/68Lb/wBDet//AIK1f8jF8N/+vfVv/Q7Cv6C8I/8Ae8L/ANvf+kyP1bJ/+RJH+up8u/8ABOP/AJO4/wC3W+/9DFfo5X5x/wDBOP8A5O4/7db7/wBDFfo5X65x9/yMv+3Uellf8L5s/Mn/AILvfHDULb4g+DPBen6pcWdvZ2s2q3qW9w0LO7N5aBmU9MAnHvXwDP431D7P+81zUPL/AI0fUJNr+x+av32+I37Lfw7+MHjC38QeKPB+h65rFmixRXd3b+ZIiDkDngin6d+y78N9IHmW/gTwhHJt2f8AIKhbvnutdOT8YYPA4KOH9hzS76HNiMDVqz5+blPhb/ggB4EjuT8S/F/2iS48ya00VPn/AHaGOMzsfqfPUN/uiv0k+6KzPC/grR/A+nyW+j6Ppej28j72isrWO3V26ZIQDJxWnXyGbY/67ipYjl5Yy6Hp4eh7OHIeb/tcfH+3/Zf/AGd/FHji4jjuLjSbVv7Pt3yq3d6/yW8ZxzgyMu4/wrubtX4I6rrF54g1i81DULiS81DULiW9u7iVNrXE0rl5ZCB0Jdifxr9Df+C8vx4/tHUfBnw3s5P3dvu13UkT1OYoFPuAXP8AwIV+dU0n2eCST/nmm/8A2uK/YvDvK1hsBPGz+Kf5LY+fzavz1eT+U+5P+CH37NcfxB+OGqfEjULfzNP8Dq1lpj7PlfUJ4yJHHvHAxHP/AD8hvvJX6sRDC14f/wAE5vgR/wAM/fsf+E9Hkt449UvLf+1dQ/vPcT/O3PfGQi/7IFe5Cvy3ifM5Y7MalX7N7L0R7GAoezpBXlP7af8AyQHUP+viH/0OvVq8p/bT/wCSA6h/18Q/+h15+Vf75S/xL8zqxH8KR+bHxH/5Ge4/3E/9ArArf+I//Iz3H+4n/oFYFf0ph/4UT48KKKK6ACiiilLYD9m/2Ev+TPPhx/2ArX/0AV63JXkn7CX/ACZ58OP+wFa/+gCvW5K/jHN/9/r/AOOX5n32H/hR9B1FFFcRsFFFFABRRRQAUUUUAFFFFABRRRQAUUUUAFFFFABRRRQAUUUUAFFFFABRRRQAUUUUAFFFFABRRRQAUUUUAFFFFABRRRQAUUUUAFFFFABRRRQAUUUUAFFFFABRRRQAUUUUAFFFFABRRRQAUUUUAFFFFABRRRQAUUUUAFFFFABRRRQAUUUUAFFFFABRRRQAUUUUAFFFFABRRRQAUUUUAFR1JUcx4rOUrAG/bUN5qMVnD5kkm0Vz+q/EbT7L93BcW8kn3WbzRtT/ABrm7zxJHfz+Zcahbv8A9tBtX6DPFflfFnixlOVr2OGmqtbsnovVndSy+tL7LOg1fxZJf5jg8yCM/wAX8f4elYuzH+fve5Pc1X/tqz/5/LX/AL+j/Gga1Zj/AJfLX/v4P8a/m/iDjTE5tV58VV+V9F8rnpwwc4fDEt4PrRg+tVf7ds/+fy0/7+D/ABo/t+z/AOfy0/7+ivnfrVH+dGv1ef8AK/xLdFVf7es/+fyz/wC/oo/t6z/5/LP/AL+ij65R/nQexn/K/wAS1RVX+3rP/n8s/wDv6KP7es/+fyz/AO/opfXKP86D2M/5X+Jaoqr/AG9Z/wDP5Z/9/RR/b1n/AM/ln/39FP65R/nQexn/ACv8SwBxxSjgc1SuNe0+1t5JJLy1jjj++zSD/GvL/iD+0nDYGS30SP7Q/wBz7U/+r/4CD9761x47OMJhKXPKS++/4HdgcnxWLq8lKP6I9G8W+OdP8Eaf9o1C4SP+4n3mf2A6k14r47/aA1TxQZINPJ0yzk/ukfaJV92/hH05/wBquI1XVLjxBqH2y8uJLi4/vu+5vp7D6VBjFflOd8bYjF/usN7sfxZ+mZPwfQw/v4n3pfgFFFFfB1KkpO8z7ZLlhZHpf7JX/JXrf/rhJ/KvrVUwK+Sv2Sv+SvW//XCT+VfXJ6V/o59GL/kkP+35H4H4hf8AI2f+FAOlFA6UV/Rh8KFFFFABRRRQAUUUUAFFFFABRRRQAUUUUAFFFFADf4a4L9pb/khfib/rzb+ld7/DXBftLf8AJC/E3/Xm39K58V/Cl6HLjv8Ad5/4Wflp8Zj/AMVhb/8AXon/AKMlr9NPht/yT3Q/+vC3/wDRa1+ZfxmP/FYW/wD16J/6Mlr9NPht/wAk90P/AK8Lf/0WtfnuQ/HUPyvhz45G1Xkn7SP7bHgP9lfWNP0/xRcaxHqGqW73FvFZaZcXm9FcKxLIhVeSOGIr1uvjz/grz8FLjxf8KtM8YWcHmSeFJT9t2/e+ySYBf6I+0/ifSvdzGpVp4eVWj8R7eZ4irQwsquHjzSI9b/4LQeCLc/8AEv8ABnjfUP8AbSG1hXPv5k4IH0U19Gfs3fHXT/2kPhDpnjDT7e4s49QR99pcYaa1dWIaNipxkY7etfjNXv37EX7dV7+yhf3Gj6nZ3GseEdUuPtEsVvj7Rp8p+9JECQHU4G5OP7yt/DXyGU8S1ZYjkxfwnxGU8YVamKtjvhP1UfpXwl/wWj1+3F18O9Ijkj+0Rve3UqfxIhEaqfoSCPwNeo+If+CuHwl0/R5LizvNe1S8jT5bS30qaORm9C0gVR/31+dfn7+0H8d9c/aW+K+oeLNc8u3kkT7PZWUT7lsrdSSsYP8AEecsf7xr0eIs2w/1WVGnLmlI9TifPML9SlRhLmlM4tO1fo1/wRt8Pyaf+zjrmqSf6vXPEEzxf9slSA/rGa/O/RdAvPF+r6fo+kW8l5qmqSra2tuqlmllY4HTt3/3Qa/ZL9m74QW/wB+Cvh/wpb/vP7LtFWWX/ntMeZH9yzE143CeFnKvKtP7KseDwPg5yryxE/sqx3FIx/0eSlpGP+jyV+h1D9Ol8B+ZPxc/5E64/wCw2/8A6Uy151Xovxc/5E64/wCw2/8A6Uy151X5ljP40j8zxPxhRRRXKYhRRRQB9h/8Egv+Sg+Mv+vC2/8AQ3rf/wCCtX/IxfDf/r31b/0OwrA/4JBf8lB8Zf8AXhbf+hvW/wD8Fav+Ri+G/wD176t/6HYV/QXhH/veF/7e/wDSZH6tk/8AyJI/11Pl3/gnJ/ydv/2633/oYr9HK/OP/gnJ/wAnb/8Abrff+hiv0cr9e48/5GS/wI9HLf4PzCiiiviz0QpyHmm1jfEPxB/wi3gDXNU/1f8AZ+n3Fxv/AIV2xsw/UVMYcz5APxB/4KC/FT/hcH7ZHjzWI5PtFnHqDafav/0xt/3S/qDXKfsyfDP/AIW/+0f4H8N/6yPWNYt1lT+F4lfe4PsVUj8a4m/1STX9QuNQk/1moSvdv/vO5c/q1fVn/BF/wX/wlH7cFneSR+ZHoelXV3/uFgEU/ma/pDHf8J2Qy5PsQt+h8bS/e4j5n7EWtvHbW8cccfl28aBIk/uKBgD8qkoor+cT7IK8p/bT/wCSA6h/18Q/+h16tXlP7af/ACQHUP8Ar4h/9Drsyr/fKX+JfmZ4j+FI/Nj4j/8AIz3H+4n/AKBWBW/8R/8AkZ7j/cT/ANArAr+lMP8AwYnx4UUUV0AFFFFKWwH7N/sJf8mefDj/ALAVr/6AK9bkryT9hL/kzz4cf9gK1/8AQBXrclfxjm/+/wBf/HL8z77D/wAKPoOoooriNgooooAKKKKACiiigAooooAKKKKACiiigAooooAKKKKACiiigAooooAKKKKACiiigAooooAKKKKACiiigAooooAKKKKACiiigAooooAKKKKACiiigAooooAKKKKACiiigAooooAKKKKACiiigAooooAKKKKACiiigAooooAKKKKACiiigAooooAKKKKACiiigAooooAKKKKACiiigBuaz/FJ/wCJBe/9cX/9BNaHes/xP/yLWof9cH/9BNebm3+5Vv8AC/yKo/xI+p8d6zrH9jwR/u/M8z7uz5e3P8667wF8J9Y8f+GbfUrNtNhjuM/KzNuXBI7L7V5945GfsZ9n/wDZa+jP2Zjn4Q6aP9uX/wBGNX+Y/hfwrguIM9xGHzNylGKm9G1rzeR+1cQVpYLLKWIw/wAV/wDM5Bf2cPEA/wCXrSf+/kn/AMTR/wAM3+IP+frSf+/kn/xNe5IeKOc9P1r+hv8AiBPC3/Puf/gcv8z4WPFGP/mX3I8N/wCGb/EH/P1pP/fyT/4mj/hm/wAQf8/Wk/8AfyT/AOJr3TNGaX/EDOFv+fc//A5f5i/1qx/8y+5Hhf8Awzh4g/57aT/38k/+Jo/4Zw8Qf899N/7+yf8AxNe5bqPMpf8AEDOF/wCWf/gcv8w/1ox/8y+5Hhv/AAzh4g/5+tJ/7+Sf/E00/s3+IB/y96T/AN/ZP/ia9B8R/H/wP4O1a40/VPGfhmw1C3/1tvdarBDNFkZG5WYEcY/OpfCXxy8F/EHV/wCz9E8V+HdYvdhl+z2WpQ3E2wYy21GJwMjn3Fcv/EGuDuf2KTv/ANfX/mb/ANvZpyc32f8ACedf8M46/wD899N/7+yf/E03/hnPxB/z9ab/AMBlk3fh8te7YPrQQcda6n4GcL2+Gf8A4HL/ADMf9aMf/MvuR8jePtLuNItry3uI/Lkt22snDfNx6da42vSfjt/yMmtf9d1/pXm2Oa/jDOsJHCZlicJS+GnUkl6J2R+0cPy9rgoVJ/1oFFFFeQe8FFFFBMj0z9kf/kr9t/1wk/lX1sx+9XyT+yP/AMlftv8ArhJ/KvrZv4q/0g+jF/ySEf8AHI/A/EL/AJG79EOHSigdKK/ow+FCiiigAooooAKKKKACiiigAooooAKKKKACiiigBv8ADXBftLf8kL8Tf9ebf0rvf4a4L9pb/khfib/rzb+lc+K/hS9Dlx3+7z/ws/LT4zH/AIrC3/69E/8ARktfpp8Nv+Se6H/14W//AKLWvzL+Mx/4rC3/AOvRP/Rktfpp8Nv+Se6H/wBeFv8A+i1r89yH46h+V8OfHI2qranp1vrOnXFneW8F3Z3CNDLBKgkjlRhhlZTwVIJDBvWrNFfU9D6o/NP9rz/gmbrvww1m81zwHbXHiDwvI7ytYITJfaV32DvNEv8ACc716NuxvPyq9x9muJLeT93cRvseJ08uRG91PIr91q47x/8As8+B/ifP5niTwpoeqSf37i0RpG+pxk/nXyeY8KUq8+el7v5HxOZcGUq8/bYeXLL8D8XH/wCmn+rrU8CeCNb+K+vx6X4X0u81y8k+7FZReYqc4+ZuiD+9lvlxX6yJ+wj8H7ceZ/wrnwv/AOAlejeGPBWj+CdP+z6Jpen6Xb/3LW3SFeP90DNcVDg/3vfl+B5+H4F9799U/A+b/wBgT/gn3H+z2f8AhLPFZt9Q8b3kRiiVP3lvosJ6xxHHzSt/HJ/wBflyz/U1FFfZYXDwoUvZUj7zB4OlhaXsaMQpGP8Ao8lLSMf9HkreodEvgPzJ+Ln/ACJ1x/2G3/8ASmWvOq9F+Ln/ACJ1x/2G3/8ASmWvOq/MsZ/GkfmeJ+MKKKK5TEKKKKAPsP8A4JBf8lB8Zf8AXhbf+hvW/wD8Fav+Ri+G/wD176t/6HYVgf8ABIL/AJKD4y/68Lb/ANDet/8A4K1f8jF8N/8Ar31b/wBDsK/oLwj/AN7wv/b3/pMj9Wyf/kSR/rqfLv8AwTj/AOTuP+3W+/8AQxX6Od6/OP8A4Jx/8ncf9ut9/wChiv0c71+vcef8jJf4YnpZX/B+YUUUV8WegB5Fea/thxahcfsr+P49Ht7i81STRbhLe3t8+ZK5TAC45zXpVBGRSpVfZ1Y1F9lpkyjzR5D+fuH9l/4iW/8AzI/ij/wXyf4V9sf8EQfgn4k+H/xx8Z6h4g8P6xo8cmhRW8T3to8KuftCsQNw64FfpVuU/wANKAFr7jOeOsRmGElg501FPsebSymFCfPEWiiiviD1JBXlP7af/JAdQ/6+If8A0OvVq8p/bT/5IDqH/XxD/wCh12ZV/vlL/EvzM8R/Ckfmx8R/+RnuP9xP/QKwK3/iP/yM9x/uJ/6BWBX9KYf+FE+PCiiiugAooopS2A/Zv9hL/kzz4cf9gK1/9AFetyV5J+wl/wAmefDj/sBWv/oAr1uSv4xzf/f6/wDjl+Z99h/4UfQdRRRXEbBRRRQAUUUUAFFFFABRRRQAUUUUAFFFFABRRRQAUUUUAFFFFABRRRQAUUUUAFFFFABRRRQAUUUUAFFFFABRRRQAUUUUAFFFFABRRRQAUUUUAFFFFABRRRQAUUUUAFFFFABRRRQAUUUUAFFFFABRRRQAUUUUAFFFFABRRRQAUUUUAFFFFABRRRQAUUUUAFFFFABRRRQAUUUUAFFFFADT9+s3xV/yLV//ANcH/ka0j9+s3xV/yLV//wBcH/ka8vOP9xrf4X+RrR/iR9T4q8c/8uf0f/2Wvo/9mX/kj+mf9tP/AENq+cPHP/Ln9H/9lr6P/Zl/5I/pn/bT/wBDav8AOnwF/wCSkxH+Gf8A6WfsPGH/ACKKX+L/ADPQqKKK/sY/KQooqKeSO3/eSSeXR5sNxZDuFcH8dvjVZ/BnwZJdTeXcX9wjRWFr/FcS9uP7o6sf7orj/jR+2Povgv7Rp/h94fEGtcpmB91paN/01kHBIP8AyzXc/rtU7q+YfF/i/UvHmvSaprl5Jf38nyb/ALq26/3UXoq/SvyXjzxRwWU0ZYbAy9pWtbTZer/Q/QOFeB8RmE41sVHlpfi/QqG8nvpLi4u5PPu7uV555P8Anq7ksx/Ek16H+x2c/tK6X/2Drz+cNecoOlejfsdfL+0rpf8A2Drz+cNfzn4f4utiOKMNVqyblKd2fr/E+Hp08lxEILaB9rUUUV/cx/MB8u/Hj/kZ9f8A+u/+FeaivSvjx/yM+v8A/Xf/AArzUda/zX4s/wCR5jf+vs//AEpn9FcO/wDIvh6L8kFFFFfPnvBRRRQTI9M/ZH/5K/bf9cJP5V9bN/FXyT+yP/yV+2/64Sfyr62b+Kv9IPoxf8khH/HI/A/EL/kbv0Q4dKKB0or+jD4UKKKKACiiigAooooAKKKKACiiigAooooAKKKKAG/w1wX7S3/JC/E3/Xm39K73+GuC/aW/5IX4m/682/pXPiv4UvQ5cd/u8/8ACz8tPjMf+Kwt/wDr0T/0ZLX6afDb/knuh/8AXhb/APota/Mv4zH/AIrC3/69E/8ARktfpp8Nf+Se6H/14W//AKLWvz3IfjqH5Xw38cjaooor6o+qCiiigAooooAKKKKACkY/6PJS0jH/AEeSlUJl8B+ZPxc/5E64/wCw2/8A6Uy151Xovxc/5E64/wCw2/8A6Uy151X5ljP40j8zxPxhRRRXKYhRRRQB9h/8Egv+Sg+Mv+vC2/8AQ3re/wCCtP8AyMnw4/69tW/9Dsawf+CQX/JQfGX/AF4W3/ob1vf8Faf+Rk+HH/Xtq3/odjX9C+Ef+94X/t7/ANJZ+r5P/wAiSP8AXU+Xv+Ccf/J3H/brff8AoYr9HO9fnH/wTj/5O4/7db7/ANDFfo53r9c48/5Gf/bsT0cr/g/MKKKK+KPQCiiigAooooAKKKKACvKf20/+SA6h/wBfEP8A6HXq1eU/tp/8kB1D/r4h/wDQ67Mq/wB8pf4l+ZniP4Uj82PiP/yM9x/uJ/6BWBW/8R/+RnuP9xP/AECsCv6Tw/wRPjwooorpAKKKKUtgP2b/AGEv+TPPhx/2ArX/ANAFetyV5L+wqf8AjD74cf8AYDtf/QK9afmv4xzb/f6/+OX5n32H/hR9B1FN30b64jYdRTd9OzQAUUUUAFFFFABRRRQAUUUUAFFFFABRRRQAUUUUAFFFFABRRRQAUUUUAFFFFABRRRQAUUUUAFFFFABRRRQAUUUUAFFFFABRRRQAUUUUAFFFFABRRRQAUUUUAFFFFABRRRQAUUUUAFFFFABRRRQAUUUUAFFFFABRRRQAUUUUAFFFFABRRRQAUUUUAFFFFABRRRQAUUUUAFFFFADT9+s3xV/yLV//ANcH/ka0j9+s3xV/yLV//wBcH/ka8vOP9xrf4X+RrR/iR9T4q8c/8uf0f/2Wvo/9mX/kj+mf9tP/AENq+cPHP/Ln9H/9lr6P/Zl/5I/pn/bT/wBDav8AOnwF/wCSkxH+Gf8A6WfsPGH/ACKKX+L/ADPQqKKK/sY/KSOT9a8h/bZOPgDqEcn+rkuIUdP7yl+QfUV7ATkVwH7SHwz1D4rfDKfSdLks47uSeNladyseFbJ+6Cc15PEWFxFfLa9LDfFKLS9T1MjrUqWYUalbSMZJs+IY444R/wAs/LC/w/Kqj/CtnQPhdr/jTwzq2r6fGbXS9Ns5rpr+VP3bbIywVB/GSR1+7X0R8OP2FtF0G4S48RXbeIJPvfZ/K8mzQjofLyS//A2b8K9G+MlhFpHwQ8VW9vHHHHHot2iqgCqv7hugr+e+H/BepGnPH53L0iv1f+R+s5v4kU+f2GWK9+r/AER8M2z/AGi1jk/56L/SvSP2OP8Ak5XS/wDsHXn/ALRrzXS/+QZb/wDXIfyr0r9jj/k5XS/+wdef+0a/LfD1W4nw6X/Pw+14pd8lxDf8h9rUUUV/dlQ/l0+Xfjx/yM+v/wDXf/CvNR1r0r48f8jPr/8A13/wrzUda/zX4s/5HmN/6+z/APSmf0Vw7/yL4ei/JBRRRXz57wUUUUEyPTP2R/8Akr9t/wBcJP5V9bN/FXyT+yP/AMlftv8ArhJ/KvrZv4q/0g+jF/ySEf8AHI/A/EL/AJG79EOHSigdKbvr+jD4UdRRmjOaACijNGaACijNGaACijNGaACijNGaACijNGaACijNGaAG/wANcF+0t/yQvxN/15t/Su9U4rgP2m/+SE+J/wDryb+lc+K/gy9Dlx3+71P8LPy2+Mx/4rC3/wCvRP8A0ZLX6afDT/knuh/9eFv/AOgLX5m/Gf8A5HC3/wCvVf8A0ZLX6ZfDX/km/h//AK8IP/Ra1+fcP/HM/K+G95m1RRRX1J9UFFFFABRRRQAUUUUAFIx/0eSlof8A496HsTL4D8yPi5/yJ1x/2G3/APSmWvOq9F+Ln/InXH/Ybf8A9KZa85f7tfmWO/jSPzGv/EFooork+PYzWuwVo+FfCGqeN9ft9L0fT7jVNQuHXbb26lpPTt0X3r279mv/AIJ+eLPje1vfaxHJ4Z8OyYf7RcJ/pV0p/wCeUZ5Xj+N8f8Cr73+Cf7OXhb4A6D9j8OaZHBJJ/rrl/muLg+sjnk19NlvDNfE+/W92P4n1mU8K18X+9re7H8TyP/gn5+yRrX7PVtqmsa/cW/8AaGtQRIbKL5vs4QkjLd25rhf+CtH/ACMfw5/699W/9DsK+0lGVr4v/wCCtPHiL4b/APXvq3/odhX7l4fYWGHzXD0ofDr/AOks/RKmDjhsB7Gl9k+Xf+Ccf/J3H/brff8AoYr9HB1r85f+CcZ/4y1/7db3/wBDFfo0OtfpPHn/ACMv+3YnPlv8H5hRRRXxR6AUUUUAFFFZ+seJLfRv3f7y4uP+eUXzN9T2Ue5oNsPh6tefJSiaFYt/4t/5Z2ccdx5f8f3Y/wA+9ZN5qN5rB/0iSPy/+eSfd/E/xU3OP88V1UcL/OfaZbwt9vEfcXP+Es1T/n3s/wDv6/8A8TXLfGDQ7z4weB7jRJPs9nHcOj+au6RvlOcYIre+8KUcV1Uacac1OHxRPelw/gJfFTR8s+If+Cbf/CQahJcf8JZJH5m35Est3QY9ao/8OxE/6GyT/wAAv/sq+s+aT5q+ijxPmUdqn5HL/qjln/PtHyb/AMOw4/8AobJP/AIf/FUf8Ow4/wDobJP/AACH/wAVX1nzRk1f+teaf8/fyD/VHLP+faPkz/h2HH/0Nkn/AIBD/wCKo/4dgR/9DZJ/4BD/ABr605o5pf61Zp/z8/IP9U8s/wCfaJvgr4q1T4MfCfQPCdvb2GoR6Dp8Vks7zPG0uwYyV2nFdQvx11gD/kH2H/gQ3/xNcehyKbLweuK+QqZbh6s5TlH3panZHIcF8PL+Z2H/AAvXWv8AoH6f/wCBD/8AxNR3P7QGp6fBJJcWmlxxx/edrplUfU7a8f8AiT8ddH8BeZbySfbNS/59YfvL6bz0X+f+zXgvjv4rax4/uP8ATLjy7f8AhtIvlj/+ufdq6cPw7Sq/ZO7C8J0Kv2T64+HX7ZQ+IvxgsfDNnZ28lvcCXzrtJW2qyjOFBX5ua+gIl+UV+e/7FS7/ANozRR7S/wDoBr9CkPy/pXzPEmX0sJio06XY+P4ry2hgsVGjQ7ElFFFfPny4UUUUAFFFFABRRRQAUUUUAFFFFABRRRQAUUUUAFFFFABRRRQAUUUUAFFFFABRRRQAUUUUAFFFFABRRRQAUUUUAFFFFABRRRQAUUUUAFFFFABRRRQAUUUUAFFFFABRRRQAUUUUAFFFFABRRRQAUUUUAFFFFABRRRQAUUUUAFFFFABRRRQAUUUUAFFFFABRRRQAUUUUANP36zfFX/ItX/8A1wf+RrSP36zfFX/ItX//AFwf+Rry84/3Gt/hf5GtH+JH1Pirxz/y5/R//Za+j/2Zv+SP6b/20/8AQ2r5w8c/8uf0f/2Wvo/9mX/kj+mf9tP/AENq/wA6fAX/AJKTEf4Z/wDpZ+w8Yf8AInpf4v8AM9APC0Ku2h68R/a++Nmr/DODSdP0G4+yahqDu7y+WsjJEi8kBwR94gdO9f1tnGbUMtwcsbi/hgfmuX5fVxuJjh6PxSPat2D3pZJcntXxGf2nfiDt/wCRkuv/AABtv/jdeo/sd+O/E3j3xzqz6pq9xqFha2qfJLjasrNxgKAAdor4nIvFDKc2xkcvwXNzS8rH1GZ8C5hl+GlisTKPKux9HMePxrk/jt/yRbxV/wBgi7/9EvXWNz+dcn8dv+SLeKv+wRd/+iXr7rMv91q/4WfJ4T+PD1R8GWH/ACD0/wBxf5CvS/2OD/xktpf/AGDrz/2jXmlh/wAg9P8AcX+Qr0v9jcZ/aW0v/sHXn/tGv4h4A/5KrD/9fD+muKP+RJiP8B9rUUUV/dVQ/l0+Xfjx/wAjPr//AF3/AMK81HWvSvjx/wAjPr//AF3/AMK81HWv81+LP+R5jf8Ar7P/ANKZ/RXDv/Ivh6L8kFFFFfPnvBRRRQTI9M/ZI/5K9b/9e8v8q+tv+WlfJH7JH/JZrf8A695P5V9a7vmr/SH6Mf8AyR8f8cj8C8RP+Rr/ANuodjaaa4DGo57qO3tvMkfZGvWvN/Gfx0XMlvoMcd0w+VryT/j3T/d7yH/d+Xn73BFf0jh8LVrz5KR+aZlm+FwFL2uJlY7vXvFGn+GbXzr64jt4/wDaP8h3rHX4zeGx/wAxOP8A74b/AArxy+v7jV5/tF5cSXlx/wA9Wx+gHAHtUdfSUuG48vvy94/LcV4nVfa/7NTXL57ns3/C6fDH/QTj/wC+W/wo/wCF0+GP+gnH/wB8t/hXjNFbf6t0f5mY/wDETsZ/z6X4ns3/AAunwx/0E4/++W/wo/4XT4Y/6Ccf/fLf4V4zRR/q3R/mYf8AETsZ/wA+l+J7N/wunwx/0E4/++W/wo/4XT4Y/wCgnH/3y3+FeM0Uf6t0f5mH/ETsZ/z6X4ns3/C6fDH/AEE4/wDvlv8ACj/hdPhj/oJx/wDfLf4V4zRR/q3R/mYf8ROxn/Ppfiezf8Lp8Mf9BOP/AL5b/Cj/AIXT4Y/6Ccf/AHy3+FeM0Uf6t0f5mH/ETsZ/z6X4ns3/AAunwx/0E4/++W/wo/4XR4Z/6Ccf/fLf4V4zRR/q3R/mYf8AETsZ/wA+l+J7I/xn8OA/8hKPj/Zb/CuM/aB+J2i+IfhJrlhZ3n2i7ntWVIlifcxyPauM8unVFThmhKHJzM5q/iViqkJU/Zr3j4t+IXwn8SeKPHGnx2el3nlyW6Rea9u/lxN5j/e496+6PAvxT0fw94P0vT7i4uJLjT7WK3dvs8nzsqBSentWTRmvEwnAGFoT54yZ81geJa+FnL2VjrP+F16B/wA/Fx/34k/wo/4XXoH/AD8XH/fiT/CuTofvXd/qjR/mZ6H+u2N/lR1jfGvQMcXFx+MEn+FJH8adB7yXX/gLJ/8AE1x2oXtvp1vJcXFxHb28fzs7/Kqr7k9K+efjT+3FaWBk0/weY7+f7jX86/6Ov+4p++ff7v8AvV3YHgGeNq8lFv7jyc28UJZfD2uIko+R9YzfH/wvb6xZ6fJqHl3l47Jb27xFZJcDJwD1FaZ+JGm/89Jv++a/ND4c+NNY1j4sW+qXmqXlxqkm/wD0hpd0nQ9MdBjsPlr2n/hYHiD/AKCmof8Af5/8a+S8Qcjq8PYyOEhLm5o326nZwb4g4vPsHLEQp2jF2Psf/hY+m/8APSf/AL9Uv/Cx9N/56XH/AH6r43/4WB4g/wCgpqH/AH+f/Gk/4T/xB/0FNT/7+vX59/aWI/kPsP7Wxf8AJ+DPsf8A4WRpv9+b/v3TZ/iRpZH+sk/75r47T4geIP8AoKap/wB/T/jW74N03x58Tre4j0e41i4t9pSWX7R5Kr2IDMcbsVw43iL6tHmxHux8zajjcwxMuSlSb+R4l8WpPtHgeST/AJZyaq0qf7rXDsp/Ig/jXnNfTnxG/Yx+IGv+Fo7PT9Hs/wDj4idU+2wqqIvYfN6Vq/AL/gnNI1/HqHxCkuPs8b/LpWnSozXGP+e0u75V/wBiP5unz9Ur47+28BXq/wAZGeH4TzSrV5fZuPN3PAfg18AfFfx21j7H4c0uS48t9lxdv8tvbj/abpn25r7y/Zp/4J4eGPg1DBqeueX4k8QDa/mzJ/otu3/TOM8Zz/G3zdOler+EbzRfA+hW+m6P4ffTNPt02Q28EUMcaKPQBq1h8Q1H/MPv/wDyH/8AF19llmacOYb354iEpH6FlPBsMJ70480joI4sdqkHSub/AOFhw/8AQPvvzj/+Lo/4WGn/AEDr7/yH/wDF19H/AK7ZH/0Ex+8+lWEq9InSDgV8V/8ABWn/AJGL4b/9e+rf+h2FfWP/AAny4/5B9/8A+Q//AIuvnD9vb4OeJP2htS8IXHhvS/M/sOHUEuvtFzFDsMptSmPm5/1LfpX0XCXH3D+GzWlWq4uMYxb1v/dZy47A150ZRjE+QP2DtC1DQfjfJ4rkj+z6PZvcW7Ps+aXe54X1xjNfcf8AwvfQP+el5/4DmvnTTf2UvjBo+n/Z7O3t7e3j+4qanB+Pepf+GY/jR/0z/wDBnb//ABVfpmdce8JZliPbzzGn23/4B4+FweKpw/hs+hv+F7+H/wDnpef+A5qT/hfPh/8A56Xn/gOa+df+GYvjR/sf+DOD/wCKok/Zj+NAH/LP/wAGcH/xVeP/AK0cGr/mY0/v/wCAdKo4r/n2z6Jb45+H8/6y8/8AAc0L8b9DI/1l55kn3E+zlmf6CvmLQPhh44uPFH9n6p4ks9Ljt0V7iX7VHcbOcYUKcFuD/s17l4P0jw/4Q0+OOPUI7i827Gu7i4DTS/U4GPoK9bCyynHYeOKyysqsZdY6r8j6TK+GMZXnz4iLhE7XUPE9xrNt/o/mWcf990/ffh/dqhDbx2/+rj/1n3n/AIn9yTyTVb/hI9P/AOf+z/7+j/GmnxRp4/5iFp/39H+NdFPDxj8J+hYPKaWGhy0omgn3aWs//hKLD/oIWf8A3+H+NH/CUWH/AEELP/v8P8a05WelySNCis//AISfT/8An/s/+/o/xo/4SfT/APn/ALP/AL+j/GjkmHIzQorP/wCEn0//AJ/7P/v6P8aP+En0/wD5/wCz/wC/o/xo5JhyM0KKz/8AhJ9P/wCf+z/7+j/Gj/hJtP8A+fyz/wC/w/xo9nMOVmhRWdN4o023tvMbULPZH9798n+NeU/EP9qKGDzLfw6n2yT7j3sn+pX/AHR/H9T8v+9VUsPOXwF08POr8J6Z4z8eaX4H0/7RqF5Hbx/wJ/y0f/dHU14V8RP2j9U8UCS30vzNL0+Td86N/pEo+o+7/wAB+auB1jW7zxBqEl5qFxJeXEn33l/p6D2GF4qrXt4fLox+M93C5XGGs/eF8z/4ukoorvZ6yPV/2J/+TjtD+kv/AKAa/Qs/dr89P2J/+TjtD+kv/oBr9Cz938K/MeMf9++R+N8e/wC/x9P1Y6iiivkz4cKKKKACiiigAooooAKKKKACiiigAooooAKKKKACiiigAooooAKKKKACiiigAooooAKKKKACiiigAooooAKKKKACiiigAooooAKKKKACiiigAooooAKKKKACiiigAooooAKKKKACiiigAooooAKKKKACiiigAooooAKKKKACiiigAooooAKKKKACiiigAooooAKKKKAGn79Zvir/AJFq/wD+uD/yNaR+/Wb4q/5Fq/8A+uD/AMjXl5x/uNb/AAv8jWj/ABI+p8VeOf8Alz+j/wDstfR/7Mv/ACR/TP8Atp/6G1fOHjn/AJc/o/8A7LX0f+zMf+LP6Z/20/8AQ2r/ADp8Bf8AkpMR/hn/AOln7Dxh/wAiel/i/wAz0BuFrzX4tfs2aP8AF3xBa6hf3l/byWkTRBYHC8E56kcV6U33aNm4c1/XuMwNDF0vY4mPNHsz8xwuKr4aftcPLlkeKwfsMeDYR891r0n+y94P6LXcfCz4J6H8IIbtNJjuM3zq0rzy+YzbRgfpXXPD+FLGmRXBgOHMrwdXnw1CMZd0kjrxOdY/Ex9niKspR82PH3l+lcl8dv8Aki/ir/sEXf8A6JeutH3h9K5H49f8kW8Vf9gi7/8ARL12Zh/u1X/Cziwv8eHqj4P0/wD5By/7i/yFelfsd/8AJyul/wDYOvP/AGjXmunn/iXQ/wDXJf5CvSv2Of8Ak5bS/wDsF3n/ALRr+H+AP+Sqw/8A18P6c4o/5EeI/wADPtaiiiv7sP5dPl348f8AIz6//wBd/wDCvNR1r0r48f8AIz6//wBd/wDCvNRX+a/Ff/I8xv8A19n/AOlM/orh3/kXw9F+SCiiivnz3kHeikUbB1qG4u0tzH83zyPsREQs0rc4CqOSfavSwOW4nG4iOHwsHUlLZLVs48VjKOGpSrV5KMY9Xoj1H9k39z8ZLf8A695P5V9DeOPippfhBvs+5ry/xgW8PzEf7x6KP1r5l+FnhbXNHv8A+1JLyTR/MiMXkxYa6cMOdzjiM+yZb/aX7tdxBHHb2/lx/u/88k+pr/VL6PHh3mOT8MQw+cR5JSbly9bPufxf4qeKuDrZjJZR7+lubp8u5oeKPF2qeN7j/iYSbLf/AJ9YsrCv+93c/X5aop2oor+lMPQhSjyQP51xuYYjGVfa4iTlIKKKK6DhCiiigAooooAKKKKACiiigAooooAKKKKACiiigABzRQBisXx18QNH+G+kSahq95b2dvH/AH3+Z/ZR1Y+1EIuUuSBjWrU6UPaz92Pc2q83+MP7TOgfCEyW8kn9oap/z5W7/Mv++eij/wAerwv4zftrax4xMlh4cSTQ9L/57/8AL5Ovrkf6pfp8zf3q8SeX7RceZJ+8kkfc7v8Ae96+6yXgmpW/eY73Y9up+X8R+JFKl+5y73pd3t8u52PxZ+O/iD4v3H/EwuPL0/8A5ZafFlYUX/aH8Z9z6fdri6KK/SsNhKOFpeyox5Yn43jcwxGMn7XES5peZ7T/AME9Of2sfDP/AFzn/wDRTV+pqWylRwK/LP8A4J4/8naeG/8AcuP/AEU1fqZLdx2tr5kh2J71/Oni9JQzeLl/Ij+5voz00+HKn/Xx/khzQx/3R+VUdV1az0e38yfC/wB1cZZj7DvWPq/jiW5Pl2Ef/bxKv7s/7ozlvr9361jeX+/kkkkkkuJP+Wrfe/8A1e1fytxZ4oYLLV7HBfvKn4L59T+nKOX83xos6p4gu9XMkccn2O3/ANj/AFrfVu34VTijjH7v/nnUiR06v50zviHH5pV9rjZX/Jeh6kKcIR5IDfLptSUV4wEdFSUVHKP3iOipKKOUPeI6dsp1FHKHvCbBSb6r6hqlvplu89xJHbxx/M7SsFVa8l8e/tG5nkt9B/3HvX/9kX+p/WvKzTPMLgIc1eX+Z6WXZTisXPkox/yPSPF/j3S/BFv9ovLiP/YiX5pH+grxH4gfG3VPGAkgg/4l+nv/AMslf94w/wBpv6VyGo6hPrF/JcXk8txJI252dt1QGvyXO+NMVjf3VH3I/i0fqOT8I4fCe/W96X4Iq6j4sj8H28lxJHJceYioiI+3e2Tzk16J8GvA+qfGbwj/AGtZzWNonmvb7JUZm+XHPH1rxr4of6i3/wB9f619M/sGN/xZVv8Ar/l/ktf6f/RxxVWh4a4SrS3vL8zn4wrSwuH9rR+K6I/+GZte/wCgno//AHy9H/DM2vf9BPR/++Xr26LpThiv1/8AtzGfzfgj85/1ix/8y+5Hho/Zo14/8xLSf++Hp3/DM2vf9BPR/wDvl69wcqKxPF/xE0PwBpEmoa9q+n6TZx/fmu7hIY0/FjiqhnWNlpD8kXT4hzCXwS/BHlR/Zm14f8xTR/8Avl6T/hmfXf8AoJ6T/wB8SUmq/wDBR34NafcSRt40t5PL6vb2txcRt9GRCCPoa1vA/wC3f8J/H199jsPGmlpcyPsSK632bSt6KJQm78K6p4zNYx55Rf8A4D/wDtljs7jHnnF/+A/8Ay/+GZde/wCgpo//AHy9H/DM2vf9BTR/++Xr2u0v4dQHmW8kckb/AHG3ja1S7h71x/21i+svwR5/+sGPTs5fgjw//hmbXv8AoJ6P/wB8vQ/7NOuf9BPSP++Hr3DH+z+tBHH3f1o/trF/zfgiv9Ysd/MvuR8d/E+xk0nRvEGnz+X9o0+J4pVT5tjGJXH/AI66n8a8I+b2r6G/aEGPFvxE/wCefnJ/6QWtfPEdffZbKdTDxrM/UMnrSq4SM5/aHUUUV6R6gUUUVLA9X/Yn/wCTjtD+kv8A6Aa/Qs/d/Cvz0/Yn/wCTjtD+kv8A6Aa/Qs/d/CvzHjH/AH75H43x7/v0fT9WOooor5M+HCiiigAooooAKKKKACiiigAooooAKKKKACiiigAooooAKKKKACiiigAooooAKKKKACiiigAooooAKKKKACiiigAooooAKKKKACiiigAooooAKKKKACiiigAooooAKKKKACiiigAooooAKKKKACiiigAooooAKKKKACiiigAooooAKKKKACiiigAooooAKKKKACiiigCOs/xV/wAi1f8A/XB/5GtDGKz/ABV/yLV//wBcH/ka8vOP9wrf4X+RpS/iR9T4p8cnmz+j/wDstfR37Mpz8I9N/wC2n/oxq+dfGEEmoTafHHHJJJJuVFT+NuOK+iPglb3HgvwBZ2N8sfnpuf5P4Qxzg+/Nf5w+CmMpYPPsRWxHuxtNf+TH6/xfUg8rpU/tX/zPRulFZP8Awkyf885Pyp3/AAk6/wB2Sv6r/wBbMq/5+n5h7GZpZWlyKzP+EjT/AJ5yflR/wk6f882pf62ZX/z9X4h7GZpMcrWH8Q/Cp8b+CNY0lJPs8mp2U1qsrD5U3xlQT64zVoeIkH8En5U1/Eif885KmfFWTzhyTqFQpzjLnifMkP7A/iSCCOP/AISDQ/3aBP8Aj3k7f8Crr/gR+ylrHwq+KFvr95rFjdx29pNB5UETKzmTy8HJPT5f1r2seIo/7klKPEMYOfLkz+FfF5fk/BeCxEcZQSVSLundn0+J4szfE4eWGq1LxkrbI1E6U7rWX/wkaf3JPyoPiJP7sn5V9s+LMqt/FPlvYzPnH48H/iptf/67/wCFeaivRfjjcefr2ryf89Lj/CvOq/z54jqRq5zi6lP7VWb/ABP6E4d0wEb9l+QVHNyP+ecf8X+xVW/1qOw/d/vJLj+4n8HuewFY95cSahcf6RJ/uRJ8q/8A1zXq5DwdjsyfPH3afdnj8Q8bZdlK5JS5qnZFzWfFPkW1x9n/AHnlo373+Hdjt61xvhL9oHWPB3mXFvb6fJcbG33EsO6Tb6A5+VfYelb19/yD7j/rk3/oNeH+M5JP7Pt/3nl+ZKqNs/u7W4+nFf6d/Qz8O8jpfXKtShGpUjy+899b3t2P83/pVeKHEOInhaOGrulTk5e6ttLb9z3LSv2sPGHiHzP7Ps7PUPL+99ltXm2Z6Z29Kvf8NH/ED/oByf8AgskroP8AglbaRPF4syu4efb9R/svX2RPZRt0ij/74r+qs+z7BZdjZ4SOEjLl82fmfCHAOY5zlcMxnmM483SyPhf/AIaP+IH/AEA5P/BZJR/w0f8AED/oByf+CySvuX7DF/zxH/fFKtpCP+WUVeR/rhhP+gOP3/8AAPpP+IR5j1zSf/gKPhn/AIaP+IH/AEA5P/BZJR/w0f8AED/oByf+CySvtybVdLg/5b2X/f1F21NCLWcfu/Jk/wBr5f6Vb4swy3wS+9gvCbGvbNp/dE+Hf+Gj/iB/0A5P/BZJR/w0f8QP+gHJ/wCCySvub7FF/wA8Y6X7DD/zzjqP9b8L/wBAkfvK/wCIR5j/ANDOp9yPhj/ho74gf9AOT/wWSUf8NHfED/oBy/8Agtkr7o/s2H/niv5Un2GH/nnHT/1vwv8A0Bx+/wD4Af8AEI8x/wChnU+5Hwx/w0d8QP8AoBy/+C2Sj/ho74gf9AOX/wAFslfdH9mw/wDPFfypPsMP/POOj/W/C/8AQHH7/wDgB/xCPMf+hnU+5Hwx/wANHfED/oBy/wDgtko/4aO+IH/QDl/8FslfdH9mw/8APFfypPsMP/POOj/W/C/9Acfv/wCAH/EI8x/6GdT7kfDH/DR3xA/6Acn/AILJKP8Aho74gf8AQDl/8FklfdH2KH/nlH+VNezhH/LOP/vij/W/C/8AQHH7/wDgB/xCPH/9DSp9yPhn/ho/4gf9AOT/AMFklH/DR/xA/wCgHJ/4LJK+15tc0m2by5LvTo5E++jyorL+Gals9V0m+n8u3urK4k/uJKjN+QNaf62YZK/1Ffe/8iP+IT429v7Wn90T4j/4aP8AiB/0A5P/AAWSVHP+0t48gt/Mk0fy/wDesJF/nX3YtpHj/Ux1FcaXbzL88Mf/AHyKzjxfg+bXBx+9/wCRU/CPMbe5mc//AAFHwFqv7YfiyDT7iSOPT/MjibZ/o5+8PxrxHxl431j4gaxJqGsahcXlx/tfdRfQDsK9Z/bE0q30b4y+LrezgS3gjbdtjXau4xgk4+prxCv2rIMDgnh4YylSUZSSf3n8xZ5jsyo42vl2Irufs5OP3OwUUUV9IfPhRRW58NNPt9Y+JGh2dxH9ot7y9iilR/uupcZB9q8biHOI5TllfMqvvRowc36JXPWyPK5ZpmFLAR92VRqC+bsewf8ABPLwbrD/AB10vxHb6XeXGj6YkyS3eNsO4xsoAY9TkjpX39qF1Pr37y8k8yP+GL/lmv8Aj+NeAJ8Q5/COn29nbz/2fZ267Ire3hCqg7AKo4FdXYt4y1i2jvLc30kc6KyMq/eB/Cv8YvEb6T+Zce4+csHhaippWUYa6eb/AKR/rb4beDC4NyeGDdZSlJ3bemvkeqeXTa80+zeNv7up/wDfpaT7J42/556l/wB+q/Kv7czF74Cr/wCAn6D/AGIv+f8AD7z0yivNPsvjb/nnqf8A3zR9l8bf889T/wC+aj+3Mw/6AK33B/Ycf+f8PvPS6K81+yeNv+eeqf8AfFH2Txt/zz1T/vmj+28x/wCgCt/4CT/Y0P8An/H7z0qivNPsvjb/AJ56n/3zR9l8bf8APPU/++aP7azH/oX1fuK/sNf8/wCH3npdFeafZfG3/PPU/wDvmmSw+NoP+Wepf9+v/rUTzzMIe/8AUK33C/sOH/P+H3nqJbj0+tcR8QPjjpngnfbx/wCmX+P9UjfKv+81eY+NPiDrZ0ny/t13H5ku1vm2tjnI45FcLw3+f8818dmXiE6lLkwsXGXn/kfUZPwVGT9riJc0fI2vGPj7U/G9z5l5cfu/4Yk/1a/h3rEVdppQKRgTX53iMVUry560uZn6Ph8NChD2VFcsRaKKK5YnUcr8Sv8Aj3t/95f619MfsEf8kUb/AK/pf5LXzP8AEr/j3t/95f619MfsEf8AJE2/6/pf5LX+uH0e/wDk2GE9X+Z+f8ef7ovVHtidaR5OKVOtJKdo/Cv1E/IzxT9tf9ruw/Za+HW6OOO88S6oGi0uyY/K7d5H9I0yPrwPp+XfxI+KPiL4ueJn1bxFqd5q98zMyCV/3dup7RRjhB249Pm3V3n7b3xduPjL+0d4gvJJPMtNLlbTbBf4VhjOMj0y24/ia818H+F7zxx4w0vQ9Pjjk1DWLtLW3R/u72PU45wOT/ug1+scO5PRweE+sz+K12ftXC+Q0cFgvrVT4t2ZqR0Z/wCWf/7NfqB8Mf8Agl/8LfCXhG3g1TRZPEmp7Fe4vb+eRmlfvtRSI0XthR2+bc3zV8+/t+f8E8dJ+C3hGTxl4J+2W+j27j+0tNlleZbVTwJoWb5gM/eQsV6bdtVheLcFXq/V+V+9pqaYXjXAYnEfVtfeel7WPKf2Wf21PFH7MWsW8cckmr+FdwE+lyy/6lR1aAn/AFbdPl+7x/wKv1M+HfxA0v4peBtP8QaPcR3djqUSzRMn909QfRhyCPavxNr7c/4JCfGqS31PW/At5ceZb7P7S09G+6vIEqKPTO0/jXl8WZHD2X1uj8Ud/M8njbh6l7L69Q+KO/mfeg6UUUV+cn5OfI/7Qv8AyN/xE/67J/6b7avnmOvob9oX/kb/AIif9dk/9N9tXzzHX6pk/wDucPQ/aMj/ANypei/IdRRRXoHsBRRRUsD1f9if/k47Q/pL/wCgGv0LP3fwr89P2J/+TjtD+kv/AKAa/Qs/d/CvzHjH/fvkfjfHv+/R9P1Y6iiivkz4cKKKKACiiigAooooAKKKKACiiigAooooAKKKKACiiigAooooAKKKKACiiigAooooAKKKKACiiigAooooAKKKKACiiigAooooAKKKKACiiigAooooAKKKKACiiigAooooAKKKKACiiigAooooAKKKKACiiigAooooAKKKKACiiigAooooAKKKKACiiigAooooAKKKKAEHA5rM8UDOgXn/AF7v/I1pSGs3xYf+Ke1D/rg//oJrhzKj7XDTh3i/yD2nJ758d2nii3gnt7iOS8juLf7rLaSNt7HB21rD4vagB/yFNU/8BJP/AIiuY8W+LJPD+nW/lx/aJLjds35+RRj0+td38Mfh7cePfBtnqsmoR2/2jf8Aulty2zDFeu/2r/POPhbTWKqxw+KnD3m3ax6UPEPFVtPq8ZcvczP+Fv6h/wBBXVP/AAFk/wDiKP8AhcOof9BTVP8AwHk/+IrtB8CJCP8AkLj/AMBf/s6X/hREn/QX/wDJT/7Ouv8A4hRW/wCgur96Nf8AXbE/9A1M4n/hb1//ANBTVP8AwEk/+Io/4XBf/wDQU1T/AMB5P/iK7j/hQ0v/AEGP/JX/AOzo/wCFByf9Bj/yVP8A8XT/AOITYj/oLq/ehf674z/oGpnEf8Lf1A/8xTVP/AWT/wCIpP8AhcF//wBBTVP/AAHk/wDiK7j/AIUNL/0GP/JX/wCzpv8AwoaT/oMR/wDgIf8A45T/AOIS4j/oLq/ehf68Yz/oGpnE/wDC3tQ/6Cmqf+Akn/xFH/C4L/8A6Cmqf+A8n/xFdt/woiT/AKC//kp/9nR/woiT/oL/APkp/wDZ1P8AxCWt/wBBdX70H+u+M/6BqZxP/C3r/wD6Cmqf+Akn/wARR/wuC/8A+gpqn/gPJ/8AEV23/CiJP+gv/wCSn/2dI/wIuP8AoKR/+Ap/+Lo/4hLW/wCgur96D/XjGf8AQNTPJPFvieCfSJJJJbiST5dzPby7nbI/2a4W/wBXuNQP7vzLeP8A8iP9T2r0X4oWMmkaNqFnJJH5lu6xfL91mBHI9q8wriwPhtgMvxHPOTn6mGM8SsxxGH+rUoqHe24JH9n/AM/55p3mU2ivsI04QhyUz4WtUnVnz1CG+/5B9x/1yb/0GvDfGX/IOtf+u6/+gPXuV9/yD7j/AK5N/wCg14b4y/5B1r/13X/0B6/uf6Hu2P8A+3f1P5J+kv8AxcB6yPqf/glP/qvFv/Xa3/8AQXr7JHSvjb/glP8A6rxb/wBdrf8A9BevsV5PIX8G/rX6dxx/yOq3qvyP0fwmduGaLfn+Z5P+1Z+1hov7MXhIXF4Df6xfhlsNOif95cMOrMf4Y143PX57fGf9rr4gfG/UZJNU1y80uzP+qsNKuHtYYl56spEjHnqWrO/aV+NVx8ffjbrfiPzJJNPkuGtNKXf8sVpGSqFccfvOZc/e2yhey1ynhHwjq/xG8X6f4f0Czk1DV9Xl+z2tv91dxBJZj/CiKGdj/CAa/YeEODcDluX/ANoZhFSla7ctoo/IeMuO8wzbMZZbl0nGN7K27ZReSS5/1lxeSSf33uJGb8STzW74H+LHiz4cavHeeH/FHiDS7iP+Bb2SaHjqPKkJXHT+GvqbQv8Agj9q1zpEcl/8QrO3vJE3ulvobzRq3oGM4LgeuBu/uivm34/fAvWP2c/idceF9ckgu5BAl1a3UGVhvbdiR5gDfdYMrKULfLgfMysK9rL+IuHs3qywNC0pW2cd/wADxsz4d4nyTDxx1ZuMb7812j7Q/Yo/4KC/8Ll1mHwj4zjtLDxJKh+xXsX7u31Jh1QKfuygc47j7vSvq6vxJvLi80+3+0WdxcWd5Zulxb3ET7ZLeVDuV1PYgj9K/W79k74x/wDC/wD4A+FfFkkccdzqlkv2pE+6lwhMcwB7qJEfBr8f8ReE6WVVo4jCfw6nTs/8j9m8MONquc0pYTF/xKfXuv8AM9Iooor83P1gKKKKACiim76ACXlfxryH9sf9piz/AGafhVPfjy7jXNTdrXS7X/nrMR94/wCwg+ZvpXpXi3xVp/gLwvqGsapeQWOl6bbvcXVxK+2OKJQSzE+gAr8of2k/2gtQ/aV+K154kuPMt7CP/R9IspfvWVoDxuHaWQ/O/wCC/NsVq+04I4Xnm+N9/wDhw1l/l8z4PxA4uhkmA9z+NU0S7eZwesSSeINYuNQ1CT+0NQvJWuLi4uEDSSuxySSfevdf+CZVlHB+1tpflxxx+Zpt5u2IF3/KnpXhVe+f8Ezzj9r7S8f9A28/9BSv3jjLB0KORV4wh8MND+c+B8yxNfiHD+2m5c0tT9Mk6US/dpw6U2X7lfyjA/sr7B+df7ax/wCL5+Mfov8A6LWvCa92/bW/5Ln4x+i/+i1rwmv6q4Z/5F1D/CvyP86uLf8Akf43/r7L8wooor6A8IK6D4Sf8lP8N/8AYQi/9DFc/XR/CX/kp/hv/sIxfzr4PxQ/5JPMP+vNT/0ln2Hh7/yUeB/6+w/M+r/F8f8AxOP+2Q/m1fWXwqH/ABQGlf8AXsn/AKDXyb4z/wCQwf8ArkP5tX1l8Kv+RA0r/r2T/wBBr/D36OyTzHFX/lX5n+2XHH+44c6TFGKKa/Sv615UfmIAZHSmlcCmltoFfP8A+1R+1BceDLmTw34ZuI49W2b7292iT7AD0CqflMp4PIKrj5lOa8jPs6wOU4WWLxsuWMfx8j0MryvEZjXjhsNH3pfge8alrNro1t593cW9pBH995XCKn4niubPx18Fwf8AM1eHR/3EYf8A4qvhTVnn8S332zU5rjVLuT/lveSm4k9eCxO0Z7LhV/hVaRY6/CcV4+U4z5cPhHy+crfoz9Sw/hTJx/fV/uX/AAT9B9D8WaX4itvM0+/s7+P+/DKrr+amtND8vSvzltbOPT7+O4t/MtLyP7lxaubeZPo6EMPzr3X9m79q+/03X4NA8XX/ANssrzbFZajKoWaKUnAimI4YPkBZMdRtOWO6vqOE/GTLs0xEcJiYOlKW2t4/eeFnnh1i8DSliKEvaRj06n1TiopBw1KJsjrTpP8AVt9K/YqkU4P0PztHx/8AEn/j5v8A/sJS/wDox65Wup+I/wDx8X//AGEpf/Rj1y1f5lZl/vlb/HL8z+j8k/3SH9dgooorgPYCiiiriByvxK/497f/AHl/rX0x+wR/yRNv+v6X+S18z/Er/j3t/wDeX+tfTH7BH/JE2/6/pf5LX+uP0ev+TY4T/E/zPz/jz/dF6o9sTrVXU3kh064kj/1mxv5VaTrTWGVNfp0dJn5HGXKz8Ptek/4qDVPM/wCf2Z/+BGRif1r1f9gCyj1H9r3wb5v7wR3Ukq/74jbBFch+0Z8P5Phh8ePFnh+SOSP7Hqcrxb/44nO9H+hDZqv8DPiN/wAKh+M3hvxR/wAs9H1BLiZP+mXKv7n5WJ/Cv2+t++yyXs/tQ/Q/oatH2+Uy9l9qnp9x+0Y+Ra439oHR7fxD8D/F1ncR+ZHJpFz/ALX/ACyYg/mK2vA3jLT/AIg+GLPVtMvLfUNPv4vNt7iJ90bqe4NeW/t1/HfS/g18ANe8y7jj1bWLWWwsrXf+8uHkUqcD0AJOfavxrC0aksRGEPiufgmDw9WWLhSh8XMj8mYP9RF/u169+wx4sk8IftW+DLiOTy47y6a0uP8AcljYf+hBa8hSPyLfy/8AnnXU/BPUPsHxo8HyR/6z+3tPT87mIf1r9szGlzYOUJ9mf0HmlHmwFSE/5WftSpyoopsX+rX6U6vws/nE+R/2hf8Akb/iJ/12T/0321fPMdfQ37Qv/I3/ABE/67J/6b7avnmOv1TJ/wDc4eh+z5H/ALlS9F+Q6iiivQPZCiiipYHq/wCxP/ycdof0l/8AQDX6Fn7v4V+en7E//Jx2h/SX/wBANfoWfu/hX5jxj/v3yPxvj3/fo+n6sdRRRXyZ8OFFFFABRRRQAUUUUAFFFFABRRRQAUUUUAFFFFABRRRQAUUUUAFFFFABRRRQAUUUUAFFFFABRRRQAUUUUAFFFFABRRRQAUUUUAFFFFABRRRQAUUUUAFFFFABRRRQAUUUUAFFFFABRRRQAUUUUAFFFFABRRRQAUUUUAFFFFABRRRQAUUUUAFFFFABRRRQAUUUUAFFFFAB3rL8Vf8AIu6h/wBe7/8AoJrU71l+Kv8AkXdQ/wCvd/8A0E1y4v8Agz9CZbHwn8UP+PfS/wDgf/oK179+zL/ySDS/96X/ANGNXgPxQ/499L/4H/6CtfQH7NP/ACR/S/8Atr/6Mev5Nwf/ACMKp8tlu53e4UtFNQ819AeuNFZHjH4h6H8PrD7ZrmsaZpFvvwkt1cLCrew3H5j7CvG/2yf2uv8AhSWnx6Hofl3HifUIvN3vho9NiPAlYfxPwdqexZvlG1vhPXdcvPF+sSapql5eapqlx/rbu7lM0zewJ6L7DCr/AHVry8dm0aHuQ948fMM7hhvch70j9C7z9vH4T20/lyeKo5P+uOn3Ui/msZFWdC/bZ+F/iC58u38XWFv/ALd3FNZx/i0qIv61+cvze1Mry/8AWCr/ACnkf6y1v5UfrRpWuW+t2Ed1Z3Ed5bzjfHLE4eOQeoYcEVcY4Ffl38Ffjtr/AMAfEH2zw/eXH2OR991prsfsd6uQSCnRHx/y0GG/3l3LX6LfBv4vaX8cPA9nr+kSZt7j5JYn/wBZbyj70bDsVNexgcwhiYnvZfmkMXH3fiOuoPSig9K9A9E+c/jj/rtb/wCvhv8A0IV5HXrnxx/12t/9fDf+hCvI6+DzT+MfPx+OXqFFFFeeaEN9/wAg+4/65N/6DXhvjL/kHWv/AF3X/wBAevcr7/kH3H/XJv8A0GvDfGX/ACDrX/ruv/oD1/cf0Pdsf/27+p/Jv0lv4uA9ZH1P/wAEp/8AVeLf+u1v/wCgvX1zr2mJrOjXdhJJcR/bLd7ffE+2RNwIyp7EZ618jf8ABKf/AFXi3/rtb/8AoL19jx/dFfp3HDazus13X5H6N4T/APJM0F6/mfGmtf8ABHnQLew8vRPF+uafHboFhguIobiFFAwBnaGIAH96up/Y6/YD1D9mv4s3/ifWNc0/XN+nGw08W9k1u0HmSK8pbc7AkiKIZHvX1JUc7YB+lcmI4uzbEYeWFr1nKEt72PoKPBeTUcVHH0qKjUjswic45r8+P+CuXivT9Y+OXg3TbabN9oOj30t+ifwLdS23kA+/+izHH09axvip/wAFNfipqOv+INL0i58MaPp9vqV7ZW91b6a814kMNw8SOGkmMW4qoOTEV5+7Xztd6hcahf3GoaheXmoaheO0t3e3dw81xcOQBvdn5PAAx91VUei1+lcA8C43B4uGa4y0Yx2S63Vj8p8SPETAYnAyyvCXlK9m30sxlfpj/wAEzfCM3hH9irwbb3CeX9qF7qEX+1Dc3k9zEfxjlU18cfsf/sbap+0t4gt7+8juLHwTbuHuLpsr/aag8xRdyG6M4+6M7fmr9OtN0m20LTYLOzjjt7e3RYoolUKqgDAAA6DFc/itn2GruOX0Jc3K7vy0tb1NvBvhXFYb2mZ4iPLGSsr7vrctP0p1FFfjZ+8BRRRQAU2TpSMNqDvXgn7eH7U6fs9fDL7HpdxH/wAJVr6Nb2Cb/mgQcPcsPRAR/wACKjvXVgcDVxeIjhsOvekzkzLMsPgcLLF4j3YwV2fPv/BSn9qb/hOvED/D3R59+l6XOrauyn/j6uFOVt890Q4LD+9j0r5Q8i8uP9H0+3k1DUJN32e0i+9cOAWI59gefah5JLjzJJJPMk++8sr7mdjySx7knv7/AMNfZP7Cv7Ln9hfBHX/iPrkB+3atotyuixSp81raNExM2D0aTt/sAf36/pKVXCcI5PCnH3py/GTP5Wp0cbxnnrry/hx38kv1Z8Y21x9ot45P3f7xFf5PpX0B/wAEz/8Ak77S/wDsG3n/AKClfPlh/wAg+3/3B/IV9B/8E0P+TvdL/wCwdef+gpXr8ZVOfh+s/wC4eLwLT5OJaK/vn6Zr92kl+5Tl6U2X7lfyYf2Y/gPzr/bW/wCS5+Mfov8A6LWvCa92/bW/5Ln4x+i/+i1rwmv6o4Z/5F1D/CvyP87uLf8Akf43/r7L8wooor6A8IK6P4S/8lP8N/8AYRi/nXOV0fwl/wCSn+G/+wjF/OvgvE7/AJJPMf8ArzU/9JPsPDz/AJKbA/8AX2P5n1f4z/5C/wD2yH82r61+FP8AyT7SP+vZP/Qa+SvGf/IX/wC2Q/m1fWvwp/5J9pH/AF7J/wCg1/h99HX/AJGOK/wr8z/bLjn/AHDD+rOhooor+tj8xMfxprcfhjwtqGof8+dq8v4qCR/Kvz5TU7jV7h9QuJPMuNQc3Urt/E7/ADH+f6V9/wDxK0STxD8P9Y0+L/WXdrLFF9Shx+tfn5YR+RYRxyeZHJb/ACOn9xhwRz7g1/OPj9LEcmHjD+Hrf1P2HwpjSvWn9rT7ja+H3gPUPib45tNFsD5c9xl2lcbltol+9Jjueyj+9X0fY/sEeEYNPj+06hr9xcbPnl/tB41Zv91eBXlH7H/iuz8LfG+L7ZJHH/a1g9lE7fd80MrgE+4BC19kMnBPbrXo+EfCmS4nJvreJpqrUk2nfW1jl4/4gzOhmHsKMnCMUrW0ufDPxx+D1z8D/GEGnyTyX9jfK0tldPhZOPvRvjjcBg5/iGfSuOmt/P8AM/6aL/8AWr3f9vfxTZ6j4j8M6TbyRyXWnvLeT7G/1SsmxQfQndn8K8If/j38z/ln83+7x39q/GvELL8Ll/EU6OW/Dp8n2P0bhHH18XlNOrjPilp6n2/+zZ4zuPH/AMEdB1C7k8y8aHybhn+87RuYyT7nbn8a71xhW+leZfsh+H5NG/Z68OpcR+XJcRPdbfu/LJIzrx67SPzr0yVv3b/Sv7MyaVWWVUZ1fi5Ff1tqfzjm0aUcdVjS+HmdvvPkD4j/APHxef8AYSl/9GPXLV1PxH/4+Lz/ALCUv/ox65av83cy/wB9rf45f+lM/oHJf90iFFFFeeewFFFFXEDlfiV/x72/+8v9a+mP2CP+SJt/1/S/yWvmf4lf8e9v/vL/AFr6Y/YI/wCSJt/1/S/yWv8AXD6Pf/JscJ6v8z8/48/3ReqPbE60F80J1oTrX6ifkZ8k/wDBSj9iu6+MGnR+M/Cdv5/iLS4vKurJcLJqVuMkbM8GVP4Q33hley1+cvlf89PMjkjdkdGQqyMDgoQeQQQRg/dxX7nPAt2MNXhf7Qf/AAT++Hv7Qt/Jqc1pPomv3H+tv9OKwyXBxgGVCCkhwAMsu/aAu6vsOH+KHg4fV8RrHv2PuuGeLng6f1bF3lD8j8z/AAN8cfG3wr0+Sz8M+Kta0Wzkfe0VrLtj3HqdrBgPwrO8XeP9c+I2r/a9c1jUNb1CT5EluGM0nJ4CjtzjgL81fZb/APBGJvOkP/Cwmjj3/Ij6CGZV9CfPGT716t8GP+Cevw//AGbbWXxNqBufEWp6ZC10t3f48u02KSXjiHyq2B1O5vTFfQ1OJsqhN1aMeaXkrH09bi3J6c/bUIc0vJW1PzIeOS2uJI5I5I5I/kdJUKsjehB5Bro/gzZ/2h8YPB8f/Ud09/7vS5iP8hWHrGof2xrF5eSf8vFw8v5uT/WvRv2LvDH/AAl/7U3gez8vzI/7QFxL/sLEjPn/AL6C/nX0ONrf7DKc+zPq8wrXy+VWf8r/ACP2Ai/1a/SnULwoor8NP5zPkf8AaF/5G/4if9dk/wDTfbV88x19DftC/wDI3/ET/rsn/pvtq+eY6/VMn/3OHofs+R/7lS9F+Q6iiivQPZCiiipkB6v+xP8A8nHaH9Jf/QDX6Fn7v4V+en7E/wDycdof0l/9ANfoWT8tfmPGP+/fI/G+Pf8Af4+n6sdRRRXyZ8OFFFFABRRRQAUUUUAFFFFABRRRQAUUUUAFFFFABRRRQAUUUUAFFFFABRRRQAUUUUAFFFFABRRRQAUUUUAFFFFABRRRQAUUUUAFFFFABRRRQAUUUUAFFFFABRRRQAUUUUAFFFFABRRRQAUUUUAFFFFABRRRQAUUUUAFFFFABRRRQAUUUUAFFFFABRRRQAUUUUAFFFFAB3rL8Vf8i7qH/Xu//oJrU71l+Kv+Rd1D/r3f/wBBNcuL/gT9CZbHwn8UP+PfS/8Agf8A6CtfQH7NP/JH9L/7a/8Aox6+f/ih/wAe+l/8D/8AQVr6A/Zp/wCSP6X/ANtf/Rj1/JuB/wCRhVPlss3O8PSoL68jsLCWeSTZHGhd29gMn9Knqj4j0SPxB4fvNPkkkjjvLd7d2X7yhlKkj35r6A9c/Lb4oeO7j4nfEfWNfuP9Zqd07J/sIDtRB7BQBUHgTwZqHxH8X6Xoel/8fmqXAt4nf7sWeS59gAT+FfWGp/8ABLzTLj/kH+LNUt/L/wCfi1juG/Qp7/nW1+z/APsF3HwQ+MFn4kk8QW+qW9nbzRLF9kMMm5wAG+8wGB/OvlP7JrzxHPP4T4yOS4ieJ55/CdD4K/YC8AeH9Bjt7zS/7cuNv726vWO537kDgKPYV5n+1/8AsQaP4P8AAFx4k8J28lnJpf766td5aOWHuVz90jr+dfXdcF+1F4lt/CPwB8VXFxJ5cb6bNbpj+J5FMage+WFe7XwOH9lL3T6PFZdh/q8vdPzLT7tfSv8AwTQ8dyaP8UNY8N+Z/oer2X21Iv7ksZCsfxVlH4V80Qx/Z7eOP/Yr3r/gnJocmo/tHyahH/q9P0qZJf8AZ8x4gv8A6Aa+VyuX+1R5D43KZcuLioH37QelFB6V9wfoR85/HH/Xa3/18N/6EK8jr1z44/67W/8Ar4b/ANCFeR18Lmn+8Hz1P+LL1CiiivNNSG+/5B9x/wBcm/8AQa8N8Zf8g61/67r/AOgPXuV9/wAg+4/65N/6DXhvjL/kHWv/AF3X/wBAev7j+h7tj/8At39T+TfpLfxcB6yPqf8A4JT/AOq8W/8AXa3/APQXr7IY4r43/wCCU/8AqvFv/Xa3/wDQXr7JIzX6Zx1/yOq/y/JH6N4T/wDJM0Pn+YVn688g0q4McckkiQsyov3n4PAHrVwnFSZzXyilyan6NOHP+7Pyo8MfsCfGrV9Bt5rjwP8AY7m4RXuIbjVbVZPNI3NnY7jqT/8AY1578Q/hj4g+FOv/ANh+K9A1DRNQkiaWK3ulRo7qMEK0iOhMcirlQ2G+Xcu/bvFfsupYt0wK8E/4KNfCuz+JH7K/iS+kt4/7U8KW0uuabL/FFLBGWKg9hIm+Nv8AZk+lfruReKOOliqVDFRj7N2jotr/ADPxXiTwjwH1OrisLKXtI3kr9fyPgT4HftHeMP2eNRt5PDesXEenxv8AvdNu5TNYyr/c2n7n1TG2v0y/Zu/aA0n9pD4XWfiLTf3bM32e9tXbdJYXCgFom/BgQf4kZW/ir8la+l/+CUvja40D9orVdB8x/sfibSHllU/xXFtIpjPsfLlnDH+LbH6V9R4kcK4etgpZnQio1IavzR8f4W8ZYyGYRyrEScqc9Ffo/wCuh+jNFFFfz0f09IKKKa/Sgk5/4qfEXSvhJ8PtU8R61cfZ9M0mAzyN/E/ZUUfxOzEKo/iLAd6/Jn42fGLVPj78TdU8T6x8kl4+yCDfuWytlJ8uFfoD8z/xOS3+zX0b/wAFYfinql/8SNE8H+Z5ej2dkNVdF/5bzF2QFvYLnA/2jXyQ/mf8s/8AWfwV/QfhbwzDD4X+1a38Sfw+S/4J/M/i9xZPE4r+yKXu04b+b/yR69+xV+y5J+0/8V/s9/byf8IhoDpca0/8N0/3o7PP+399/RAP+ei1+lvxRgitPhPr8cflxrHpdyqqv3VHlNivzc+Av7dvi/8AZ4+HNp4c0PQ/Cf2e33Sy3Eqz+deysctK+GwWY/54rpPEn/BUL4jeKPD9/p8mj+EY476B7dnQT7kV1Kkj5uvNeTxZwzxFm2Z+3nT/AHcXaOq27nucG8U8NZPlKw0Kl6kleTs9/wDgHzdp/wDyD7f/AK5L/KvoP/gmgdv7Xul/9g28/wDQUr5/to/s9vHH/wA80VN/9/HGa674M/GLWPgH8RrPxPoken3F3bxSW/lXav5biQAE/Kc5GK/T+IsvrYjKKmDor33Cx+Q8L5nh8Jn1PGVpe5Ge5+w2KbI3FfD/AOzX/wAFI/G/xV/aG8H+FNV0fw5Hp/iS7uLaaa080SReXZXVypG44+9Ao/4Ea+4ENfyrm+TYrK8R9WxceWVrn9hZLnuDzbD/AFnBS5o3tsfnX+2t/wAlz8Y/Rf8A0WteE17x+2z/AMlu8Xf8B/8ARYrwev6W4Z/5F1D/AAr8j+BOLf8Akf43/r7L8wooor6A8IK6P4S/8lP8N/8AYRi/nXOV0fwl/wCSn+G/+wjF/OvgvE7/AJJPMf8ArzU/9JPsPDz/AJKbA/8AX2P5n1f4z/5C/wD2yH82r61+FP8AyT7SP+vZP/Qa+SvGf/IX/wC2Q/m1fWvwp/5J9pH/AF7J/wCg1/h99HX/AJGOK/wr8z/bLjn/AHDD+rOhpr9KdTX6V/Wx+YkbgbSPWvl39qX9mi+0/WbrxN4bgjurO6zPf2SuI5EcdZY84DAjll3A+mc7a+mbu6h02Ge4uJBHFGjM7P8AdUAZJPtXxN+0F8crz47ajcW/mSR+GY2/0ey+6t1g/wCtmHR84yqHK4/hNfl/itjMpoZNyZnHm5n7iWjv3PuOAcLmFXH8+D92MfivtY4HTr+z8QWH2i3k8+3k+6yZ3KwP5qwP/fNddb/GrxlYaclnb+KtX+z7dnMoaRVP+0efx7VztpaPfXFvZ2cclxPcMIooIl3MzdgB1xXpmnfsieOtS06OR7Czj8xd3lPdLuX2OP8AGv5h4cwfEVaMpZH7Tk8n+Hqft2cYrKqbisx5L9Oax5jczyXM895cTySXEm5p5ZWLM/qWY16J+zv+zlefG67t9U1D9z4R3q5G4eZqig/cUA5WLP3icM2Nu3ad1cT4o8K6n4A12TS9Xs5NPvI13eU/zK6+qMOGH0qb4X/EPVPhD4q/tTRbjy/MfdeWv/Lvf8YxIv8Aexwsg+ZcD7y7lbbhqvhsDnnNxJTcrPW+6fd9/vMc4p18Xlko5ROPvLTzXZdj9ALW2jtreOOOPy44xsVVG1VHoB2qR1zC1c/8MvH9p8SPCFrrVrzDdJna33onHDKfcHNdC5/dN9K/uCnVhVwynQlzRlH8Oh/MdWnKFVwqfEj4/wDiP/x8Xn/YSl/9GPXLV1PxH/4+Lz/sJS/+jHrlq/zPzL/fa3+OX/pTP6MyX/dIhRRRXnnsBRRRVxA5X4lf8e9v/vL/AFr6Y/YI/wCSJt/1/S/yWvmf4lf8e9v/ALy/1r6Y/YI/5Io3/X9L/Ja/1v8Ao9/8mxwnq/zPz/jz/dF6o9sTrS/8sfxpE606v1I/Iz89f21/20Pit8Iv2g/EHh3S9Ys7DSYtktoVso/M8qSPcPmPJK5x+FeFwftsfFIeIrPUZ/GWv3iWdxFcTWqSqsdwiuGaPGMcrkfjX17/AMFR/wBlXUPid4ZsfHHh+zkvNW8OxNBe2kSbpLq0yW3KO7RsScD7ys/8QWvzu8z/AD/jX6hw7hcDjMF8K5krPufsfC+Ey3HYDWMeaKs+5+0/wp+K+h/F3wPp/iHRb63vtP1CHejRvnae6n0YHIYHlWBrwn/go7+1vpfws+FN54Q028jk8VeJLfyVgicM1nA2Q0rjPygjeB/e59K/N7RPEmqeF/M/svWNY0f7R88v9n6hLZtKwGBuMbDdx61SmkknuJJJJJJLi4ffLK7lpJW9WY8k+9c+F4Lp08R7ac3KMeljkwvh/TpYr20qnNGLvYYkdfYX/BIr4QyeJPidrni64j/0fRbf7Fav/fmkwW/JQP8Avqvm/wCBvwK8SftC+P7fw/4ct5JJN+66unQ/Z9PTvJI3YYPTdub+Fa/Wb9n74G6T+zv8LtM8MaX+8S0TdcXDJtkupjy8jY7k/lxWnF2dQp4f6nT+KX4G/G2d0aOE+p05fvJfgjuhwKKKK/Mz8gPkf9oX/kb/AIif9dk/9N9tXzzHX0N+0J/yN/xE/wCuyf8Apvtq+eY6/VMn/wBzh6H7Pkf+5UvRfkOooor0D2QoorS8KeDdT8favHYaRp9xf3cn8MSn5PcnsPes61SEIXn7vqZ1q0KS56nunon7FLbf2jNEPtL/AOgGv0KAyK+bv2Wf2MZPhlq1v4h1y88zVo1byraD/V2+4c5b+I49OK+kY0AFflHEmOpYnF89LY/EeLsxoYzGc+H2irElFFFfPHyoUUUUAFFFFABRRRQAUUUUAFFFFABRRRQAUUUUAFFFFABRRRQAUUUUAFFFFABRRRQAUUUUAFFFFABRRRQAUUUUAFFFFABRRRQAUUUUAFFFFABRRRQAUUUUAFFFFABRRRQAUUUUAFFFFABRRRQAUUUUAFFFFABRRRQAUUUUAFFFFABRRRQAUUUUAFFFFABRRRQAUUUUAHesvxV/yLuof9e7/wDoJrU71l+Kv+Rd1D/r3f8A9BNcuL/gT9CZbHwn8UP+PfS/+B/+grX0B+zT/wAkf0v/ALa/+jHr5/8Aih/x76X/AMD/APQVr6A/Zp/5I/pf/bX/ANGPX8m4H/kYVT5bLNzvKKKK+gPXCmv1p1Udd1iz0DR7jULy4js7O3RpZZZW2qijkkn0oK+wST3EemrJcXEkccca7mZvlVQO5J7Yr4G/bS/aqj+O/iCPQ/D8nmeFNMm3m4T7upzDjcPWNf4T/F977uKf+1r+2NefHWeTQ9DkuLPwnGdsr/6uTVcf3vSH/Y/i43f3a8O+b2r5fNs0cv3NE+PzjN+b/Z6JH/yx/Gvu3/gnj8GJPAHwxk1/ULeSPUPEjLMqOvzQ24/1f/fWS/4ivBP2Mv2V5/jf4ii17WLeSPwpp7ZTf/zFZAx/dr/0zBHzn2Cr/eX7/t7eO1t444/9Wi7V2/dwO1b5Hl7j++mbZDlvLL6xMkoPSig9K+hPqD5z+OP+u1v/AK+G/wDQhXkdeufHH/Xa3/18N/6EK8jr4XNP94Pnqf8AFl6hRRRXmmpDff8AIPuP+uTf+g14b4y/5B1r/wBd1/8AQHr3K+/5B9x/1yb/ANBrw3xl/wAg61/67r/6A9f3H9D3bHf9u/qfyb9Jf+LgPWR9T/8ABKhd0Hi7/rtb/wDoL19C/tUeJvEHg79njxnrHhWXy9f0nSLi/sW+zi4Z3hQybQhBDFgpC8dSK+ef+CVJxD4u/wCu1v8A+gvX2FeW32q2kj/5ZyKVr9R40lGOfVJT97Vfkj9B8L4TnwpThD3ZWf6n5Ra1+2l8U/EQ/e+P9YTzP+fXy7X3yNi17P8A8E4f2pdZk+O154c8X+J9U1iLxVar/ZsupXHmeXdQFmMUZPRpI3Y/9uw9a8O/aj/ZwvP2YPifcaHJHJ/wj947y6Fcfwtb9oM/34x8mP7oDf3q88fjy/3kkflusqPC5jkiYHKurqcowIBUj7uK/cZ5BlGb5Ny4OnGLqR0aS0frvvuj8WfFGd5Jnn+3VJSUHqm3qvyP2uTk14N/wUe+J9n8P/2U/Eli86f2j4qtn0Kwi3fO0lwjKzKO/lx+ZKf9mI18ceFv+CjHxi8L6DHYR65ouqR26bEuNS0hri6f/eeOaMMffZn1zXl/xG+JXiP4zeJ/7c8T6xcaxqG3yonlwsdvHvztjiUBUXP/AAJsDczYG388yTwtx1PHwnjZRVOLT0e9uh+jcQeMGW1cvlTwV/aSVtelzEeTivor/glt4Wk1r9q97/8AefZ9D0O4mmfZ8qPLJFHEpPbePPOP+mZr51jjkuLmO3jt5Li4uHWKKKJN0krngIoHJYmv0v8A2Af2YJ/2c/hXPc6xHHH4r8TOl1qRT5vs6KMQ2wPcRqW/4G8hHymvufErOKOEymWF5veqaJeXc/P/AApyGtjM5jjHH93T1v59j35OlOoor+aD+sAooooKifnP/wAFUtPvJ/2l9Pkj0/ULiP8AsJF3xWUkkefNfjKjrXzb/Z+of9AvWP8AwAuP/ia/abyQw+b5qGtYyPur+VfpmSeJuIy7BU8DCgpRj1ufkfEHhNh82x8swnXcZS6WR+LP2DUP+gXrH/gsuP8A4mmzWd5/rJNP1SOOP53d9PmVVUdSSV4FftM8CFvuL+VYPxXtlHww8R/Kv/INucf9+mr3KfjBWdRL6sv/AAL/AIB4FbwPwqpzaxD+5H44pJ9ot/Mj/wBXJQn/AB8R28cdxJJJudEiieRnx14UU2w/48Lf/cX+Qr37/gmmqv8AtbaWGGR/Zt5/6ClfrmcZo8Fl1TMFHm5Y3tc/E8iyWGPzaOW83LFytc5j9h/Rrw/tqfC+R9O1hEt9RvnlZ7KWOOJDpOoKCxK4A3Mo/wB5h61+reQ9RqoH8IFSkjFfy1xNxFPOsasZOPK7Wte5/X/CfDNLIsF9Roy5o3vqrH51/tr/APJbPF30/wDaYrwivdv20/8AkuXjL/d/9pivCa/onhn/AJFtD/CvyP4S4u/5KDG/9fZfmFFFFfQHhBXQfCb/AJKh4b/7CEX865+uh+FH/JUfD/8A2EIv518N4nf8knmP/Xmp/wCkn2Xh7/yUmB/6+Q/M+sfGf/IX/wC2Q/m1fWvwp/5J9pH/AF7J/wCg18leM/8AkL/9sh/Nq+tfhT/yT7SP+vZP/Qa/w6+jr/yMcV/hX5n+2HHH+4Yf1Z0NNfpTqa/Sv62PzE8p/bJ8UP4a+AOqeRJ5cmpPFYB1+8vmuFP6GvjlIfI/d/6uP7n+z7V9eftwaRJqHwBvLiP/AJh93b3r/wC4koJr5FPf/P8Anmv5P8ep1pZtRjP4eXT7z948LYw/s6pP+9+iPbv2FvCFvrHjnWtYuI/MfSIore3Xj5Wk3Fm+uEx+NfVKN8w9q+Sv2IfiLb+GPiBf6TfSRwx6/FG1uz/L+9j3fL9SGJ/CvrRJMYxX7N4S1MMuH6Psfn3vc/OfECniI5xU9t5W9P8AhzxH9uTwbBq/ws/tjy/9K0SdJVbZ8zox2uoPuD+lfK7yfZ/3lfT/AO3H48tdO8A2/h6OSOS+1edGeJT8ywqdzMR2HAAr5eTmvwvxwqYeWeR9n8XKuY/TvDWNb+zP33w309P+HPon9gTxDIT4k0yTzPI82K8i/uruBVv1Ar6Sk5jb6V80f8E/tGkluvE+pf8ALPdDap/d4BZvyyPzr6WfiM/Sv6A8N/bf6sUPbfy6enQ/KeNowjndbk7r8j5A+I//AB8Xn/YSl/8ARj1y1dT8R/8Aj4vP+wlL/wCjHrlq/gXMv99rf45f+lM/Zsl/3SIUUUV557AUUUVcQOV+JX/Hvb/7y/1r6W/YJGfguf8Ar9m/ktfNfxFSS4treOOPzJJJlRET7zsc8D3r6G/Zda8+FHw8+w36/wCkSTmfYn/LJWCjB9Tx+tf64/R1h7Tw1wkId5fmfBcb0ZVaHJD4j3xOtOrjE+Kv/TCT/vuj/haw/wCfd/8Avuv1r6hX/lPy7+y8X/Kdg4z1r51/aC/4JteBfjrrFxrFuk/hnXLj5pbrT8LHOwGAZIyNhPTn5W4+9XrJ+KgYf8e8n/fdPHxSK/8ALF/++q6MLSxuHlz0fdkdWFoZhhp8+H92R8WT/wDBGPxADJ5fxG0ny/4Ffw+7Nj3P2kZNdR8OP+CNum2E/meK/F95q8cb7vs9hbixjk9iS0kg/wCAstfVn/C0yf8Ali//AH1R/wALUx/ywf8A77r1qmbZxKPJzHt1M4z6UOTm/Ik+FHwa8N/BDwlFovh3TLfTLSL+CJPmlbuWY8sxyeTXUmLcK47/AIWpn/lg/wD31Th8UCP+WL/99V4MsHiZT55nzk8txs588/iOyHFB5FcZ/wALWH/Pu/8A33Q/xZ/6d5P++6PqFf8AlJ/svF/ynz1+0GMeLviJ/wBdk/8ASC2r55jr3z406j/aurfEC8/56TD/AGuljbD+leCfN7V+lZX7uFjCfY/XMljKGEhCfZC0V2nwd+AXiP4zah5ekWf+h7tst7L8tvFzjr/EevC19kfA39jjw58IRHeSxDVNaT5vtUyjbEf+ma9F+vWvPzTiHC4T3V70ux5ud8U4XAe4vel2R87/AAG/Yc8QfEdo77X/ALR4f0f73lOm27nHsh+4Pdvm/wBmvr/4YfCHw/8ACDQEsNFsY7ePo7fekk92Y8muqjhEY6AVKBmvznMs8xGNl+9l7vY/J824gxePnerL3ew2np92loryTwwooooAKKKKACiiigAooooAKKKKACiiigAooooAKKKKACiiigAooooAKKKKACiiigAooooAKKKKACiiigAooooAKKKKACiiigAooooAKKKKACiiigAooooAKKKKACiiigAooooAKKKKACiiigAooooAKKKKACiiigAooooAKKKKACiiigAooooAKKKKACiiigAooooAKKKKADvWX4q/5F3UP+vd/wD0E1qd6y/FX/Iu6h/17v8A+gmuXF/wJ+hMtj4T+KH/AB76X/wP/wBBWvoD9mn/AJI/pf8A21/9GPXz/wDFD/j30v8A4H/6CtfQH7NP/JH9L/7a/wDox6/k3A/8jCqfLZZud5Td9OppTAr6A9cq65rNn4d064vLy4gs7OziaWWWVxHHEgGSzE/dAHevz8/ay/a2uPj/AKxJpelyXFn4Qs5f3SvmOTU2B/1rjqq/3UPzbfmbax2r1/8AwUE/aNk8Y+JpPAmmT7dH0xw+qsrfLdXAIZYj/sIcFvVsf3a+a6+ZznNP+XNE+TzvN/8AlzRCvcv2UP2NdQ+N9xb65rccmn+D433qn3ZNYx1C91iz1f8Ai/h/vVxP7OWgeCdf8fyXHjrWrPTdD0vb/okpbdqUp5C8D/VgD5v73C/3q+3LD9sz4U6dp8dvH4u0eOONQioisqoo4AAC8DFY5TgaX8atI58nwNKX76tI9O0DQbPwvo9vYafbx2dnaKsUUUSbViUdgB0FXi2K8pP7b3ws/wChy0z/AMf/APia2Ph/+0z4H+J2v/2XofiPT9U1CSJ5/s8W7dsXG48joNw/OvqI4il8CkfYQr0vghJHfUHpRQelaGh85/HH/Xa3/wBfDf8AoQryOvXPjj/rtb/6+G/9CFeR18Lmn+8Hz1P+LL1CiiivNNSG+/5B9x/1yb/0GvDfGX/IOtf+u6/+gPXuV9/yD7j/AK5N/wCg14j4z/5B1p/18L/6Lev7i+h7tj/+3f1P5M+kp/FwHrI+ov8AglR/qvFv/XS3/wDQXr7GJr4r/wCCXviJdIufE0c0c8dvOYnW42/uVK5GzP8Aewc19iJ4tsc/66P86/UOOKU3nNVry/I+/wDCjFUocNUITly7/mY/xb+D3h744eEp9E8SaZb6lYy/MFdfmifsyN1V17EV8M/GT/glb408GzyXHg2/tPF+lhmeK1vZRZ6ki9lDEeTM3+0TB+Pf7+Xxhp563UY/Gj/hLdPP/L1H+dceR8RZplLvhJe71T1R9FxBw7kucx/2y3N0a0Z+Vcn7Gnxmtv3cnwx8Re+2809sfityQfwroPAn/BPD4v8AxAv445/C9v4Yt9/z3WtahBt2EgNtjt2mdmAzw/lhuPmH3q/TQeKtPPW4joHi/T/+fyOvr8R4pZ3Ol7OMYx9E/wDM+Lw/hPw3CrzzqOXk2jxH9lf/AIJ/+Gf2criPWL2STxN4q2bTqVxF5ccHqLeLJEY98s7fxM1fQETZzWb/AMJhp5/5e4/zpB4v08f8vcf51+e5hicZja31jFycpeZ+m5bh8vy+hHD4TljFdDVorL/4TDT/APn8j/Oj/hMNP/5/I65PZTO/61Q/mRqUVl/8JlYf8/Uf50f8JjYf8/Uf50vYz/lJ+t4f+c08ewpNlZv/AAmGn/8AP5H+dL/wmGn/APP5HR7Kf8pX1qh/MjRjXaKyfHeiy+J/BOr6fbsiXGoWU1uhbO0M0ZUZIHAyakPjGx/5+o/zoHjGx/5+o/zpxpzi7qJEsVh3Dkcj84Yv+CVnxot7eOPb8Of3abf+Rgve3/bhXrn7Ef7CnxI+Bn7QFp4j8UDwiNLtrKe3/wCJbqtxdXDu4AX5ZLWMY4PO6vsL/hMdP/5/I/zo/wCEv08H/j8jr7DF8aZ3isLLB1n7klbY+Iy/gfh7BY2OOofEnfc0lGRQ6/LWb/wl2nf8/kf50HxVp+P+PqP86+N9jP8AlPuJYvD/AMy+8/P79tX/AJLZ4x+g/wDRYrwivcv2zbqO9+Mfi545N8bAfN/2zFeG1/VXDP8AyLaPN/KvyP8APLiud8+xc1/z9l+YUUV9C/s3f8E8PFnxoMGp619o8M6C+DulT/Srhf8AZQ/dHu1aZvn2Byyl7XFy5fzZ18M8IZrn2I+r5dScn+C9X0PCPC/hXU/G2vW+maTp95qd/O22KCCIyM35dPxr68+DX/BOG88BeGpPF/je8/4mmnqLi00q1f8AdwPkYMj/AMR/2V492r6y+C37OHhP4BaMtn4d0yO3aRR5t0/7y5nP+055Prjp14rS+MX/ACTLVv8Arl/UV/Lni14lYrMMhxmHwvuU/Zz9Xo/uP7d8KfAHAZNjKGOzWXta0ZJpfZi/1+enkfIfjP8A5C//AGyH82r62+Ff/JPtH/69U/8AQa+R/GR/4m//AGwH82r61+FP/JP9H/69U/lX+XX0cv8Af8U/7sfzP7h47/3Kh6s6Og9KKa/Sv64Py8zvE/h638V+H7zS7yMSW95EYpV9mGK+BvHngHUPhP4wuND1SPy5I9zWsrfKt7b5wsinuegYfwt9Vz+hTHj3rl/iT8JdA+LOg/2fr2nx30f3on+7NA/99HHKN7ivz/xA4EpcQ4WMYS5akdn+jPruEeKp5PXlzR5qct1+qPgqdMf9s/8AgO30OexzXYaZ+0Z8QtJ06OztPFl6LeP5V821gmk2/wC+yZJ+teg+Mv2Ddc0ieSTQNYt9Qt/4Yr9fLm9hvXgn3KiuSb9kr4lH/V6Hpn/g0Uf+y1/OtPgvjXJasqeBjNecXoz9f/1g4bzCnGWJlCVv5+n3nBalqFxr2rz6hqE9xeX9x9+4nlLSN7Z9Pb7tGmaVd69q9rY6Zbyahf3j+VDbxf8ALVuvXooAGST91QW+6K9W0D9ivxxrs8ceoSaZo9v/ABv5v2qT/gIG0fnXv/we/Z80P4NWsjWCfaNQnXZcX8/zTSgc4HZUz2HoOp+avU4b8I86zXF/Wc3vCPW795nn51x7luBw/scvtOXRL4V/XkW/gX8K4/hD8P7TSFeOS4b99eSr/wAt525cj27fQCu0nbEbfSm4xx/d604tui/Ov6spYSlhsMsNR92MY2Xoj8IrYider7ar8UtWfIHxH/4+Lz/sJS/+jHrlq6n4jf8AHxef9hKX/wBGPXLV/mjmf++1v8cv/Smf0Vkv+6RCiih464YJt2R60pWQHrTlH+rjjj8yST5EVPvO3oB612Pwz+B+ufE64je3t/sen/xXUo2rj/ZH8X4V9H/C74A6J8L7aOSGP7Zf7fnup+W/4COiiv3jw78Cc74jccRiV7DD93u/Rf0j4vPuNMFl/uU/fqdl+rPmjRPg94m+0efJoGrR+XteJvs7bkbnkEdDgmtv/hXvjED/AI8PEX/fL19brFj0/wAKUJu7J+Nf6TcCYOlwpk1LJcDHmhDq99T81xHHWKrz5504/j/mfI//AAr7xj/z4+Iv++Xo/wCED8Yf8+PiL/vmSvrrZ/uUbf8Acr7L/Wmv/KjD/XLEf8+4nyKPAfjAf8uPiL/vmSj/AIQPxgf+XHxF/wB8yV9dbf8Aco2/7lP/AFpr/wAqD/XLEf8APuJ8i/8ACB+MP+fHxF/3zJR/wgfjD/nx8Rf98yV9dbf9yjb/ALlH+tNf+VB/rliP+fcT5FHgPxgP+XHxF/3zJR/wgfjA/wDLj4i/75kr662/7lG3/co/1pr/AMqD/XLEf8+4nyL/AMIH4w/58fEX/fMlH/CB+MP+fHxF/wB8yV9dbf8AcpfL+lH+tNf+VC/1yxH/AD7ifF3iv4OeKr/wvqFvBoOrXElxbuqJ5B3Suc8ktxzx19K6L4C/8E/xGY9U8bSeY/DLpcTBo0/66MPvH2Hy/WvqooD1qREXb7VliuKMXUpeyj7voZYzjDG16Xso2j6FHRtAtfD2nxWdjbxWdvbpsSKJAqoPYCtDZTqK+dneWrPlW23dh1o6UUUCCiiigAooooAKKKKACiiigAooooAKKKKACiiigAooooAKKKKACiiigAooooAKKKKACiiigAooooAKKKKACiiigAooooAKKKKACiiigAooooAKKKKACiiigAooooAKKKKACiiigAooooAKKKKACiiigAooooAKKKKACiiigAooooAKKKKACiiigAooooAKKKKACiiigAooooAKKKKADvWX4q/5F3UP+vd//QTWp3rL8Vf8i7qH/Xu//oJrlxf8CfoTLY+E/ih/x76X/wAD/wDQVr6A/Zp/5I/pf/bX/wBGPXz/APFD/j30v/gf/oK179+zN/yR/S/+2v8A6Mav5Nwf/Iwqny2W7nfDiuV+M/j+P4Y/DDXNbk/5hdk8q/7+ML/48RXVA5rkPjT8IrP40eArvQLy8uLO3vGRne3x5nynOOe1e/Lm5PcPVrc3J7h+X1zeSahcSXFxJ5lxcO0srv8AxuxyTn6movK+tfa6/wDBMHwu3/Mya5/5D/wob/gmD4XH/Mya5/5D/wAK+PqZPiJz5z4t8P4pvn0PinP+f8in/N7V9qj/AIJgeF/+hk1z/wAh/wCFH/DsDwv/ANDJrn/kP/Co/sXFGf8Aq/jfL7z4nr2z/gnl/wAnS2f/AGB7z/0KCvaf+HXnhjH/ACMeufnH/hXX/Af9h/Q/gX8QY/Ednq+qXlxHay2ipcbdu2QqT07/ACCu7B5PiKVeM5nZgMlxFLERnM9woPSig9K+mPrj5z+Ov+t1v/r4P/oQryOvXvjomZ9c/wCvj+oryGvg80/jHz8P4svUKKKm03T7jV9Qjt7e3kuLi4fZFFEnmM/0A61xU6c5z5KZrAp3f/Hhcf8AXFv5GvHr/S49Q+zx3HmeXbyrK6I4XdgEY3YOOD12n/gVfc/wc/YhuNaEd54v/wBHt/8Anwif944x0dh0Hsteqr+xr8Ot3/Is6f8Akf8AGv7L+j3jKnCuHxFXMab/AH9rJbq19z8k8VPCXMuK3h54SpGHsr736nxv4L/am0X4f6Bb6ZpnhSe3tLdF2ql4PxJ+Xk+5rX/4bbtP+hfuP/Apf/ia+tD+xt8Of+hZsPyP+NH/AAxz8N1HzeGbH8j/AI1+3S4tyKUuedCf3/8ABPkaPg5xvShGjTxtGMY/3WfJn/Dbdn/0ALz/AMCh/wDE0f8ADbdn/wBAC8/8Ch/8TX1n/wAMa/Dr/oWdP/I/40f8Ma/Dv/oWdP8AyP8AjU/62cP/APPif3/8E2/4hDxz/wBBtL/wFnyZ/wANt2f/AEALz/wKH/xNH/Dbdn/0ALz/AMCh/wDE19Z/8Ma/Dv8A6FnT/wAj/jR/wxr8O/8AoWdP/I/40f62cP8A/Pif3/8ABD/iEPHP/QbS/wDAWfJn/Dbdn/0ALz/wKH/xNH/Dbdn/ANAC8/8AAof/ABNfWf8Awxr8O/8AoWdP/I/40f8ADGvw7/6FnT/yP+NH+tnD/wDz4n9//BD/AIhFxz/0G0v/AAFnyZ/w23Z/9AC8/wDAof8AxNH/AA23Z/8AQAvP/Aof/E19Z/8ADGvw7/6FnT/yP+NH/DGvw7/6FnT/AMj/AI0f62cP/wDPif3/APBD/iEXHP8A0G0v/AWfJn/Dbdn/ANAC8/8AAof/ABNH/Dbdn/0ALz/wKH/xNfWf/DGvw7/6FnT/AMj/AI0f8Ma/Dv8A6FnT/wAj/jR/rZw//wA+J/f/AMEP+IRcc/8AQbS/8BZ8mf8ADbdn/wBAC8/8Ch/8TR/w23Z/9AC8/wDAof8AxNfWf/DGvw7/AOhZ0/8AI/40f8Ma/Dv/AKFnT/yP+NH+tnD/APz4n9//AAQ/4hFxz/0G0v8AwFnyZ/w23Z/9AC8/8Ch/8TR/w23Z/wDQAvP/AAKH/wATX1n/AMMa/Dv/AKFnT/yP+NH/AAxr8O/+hZ0/8j/jR/rZw/8A8+J/f/wQ/wCIRcc/9BtL/wABZ8mf8Nt2f/QAvP8AwKH/AMTR/wANt2f/AEALz/wKH/xNfWf/AAxr8O/+hZ0/8j/jR/wxr8O/+hZ0/wDI/wCNH+tnD/8Az4n9/wDwQ/4hFxz/ANBtL/wFnyX/AMNt2f8A0L95/wCBSf8AxNNf9tuD7PJ5fhu48z/r9C7vqdvFfW3/AAxx8OP+hZsPyP8AjR/wxx8OT/zLNh+R/wAaP9bOH/8AoHn9/wDwQ/4hDxz/ANB9L/wFn5rfFHxhJ42v9X1iSCO3k1BHbykbds46Z78d6rfBP9nLxf8AtCav9j8N6X5lvu/f39xmO0tc92fHJ9ly3/oVfpZL+xh8N7i3kjl8L6fNHJ95NvX9a9A8N+EdL8HaRBYaXZ2+n2lumyKC3QRxqPYCvWxnixGlhvYZbR5ZeeyPO4d+jLX+uyxefYlSjJ3ajo2/XoeFfs1f8E8/C3wMMOpap5fiXxF977XcRBYrduP9THyF6dTluvzY+WvoaO08sbRgKOmKkiXan3dv407JxX5LmGZYrHVXWxc3KR/U+Q8OZfk2HjhcvpKEY9v1fURRmuU+M3/JMdW/65f1FdXXK/Gf/kmesf8AXL+or4vjFXyTFJf8+5/kfTYH/eKf+JHx74rg8/Wkj8uT/VBfu+7dK+qvhjqJsPBGmR3kb29xHbossX9xh9K8A0W+TSdXj1D7Pbz3Ea7Ynl/h/wDr11LfGrUCPu2g+n/66/zR8NeL48N1J1pX5pKzXK+h+u8R4etj4U6MLcsetz3X/hIbf/np/wCOmk/4SC1/56f+OmvDP+F4ah/zzs/zo/4XhqH/ADzs/wA6/Xf+I8Q/lf8A4Cz5L/VXE91957p/wkNv/wA9P/HTR/wkNv8A89P/AB014X/wvDUP+edn+dH/AAvDUP8AnnZ/nR/xHeH8r/8AAWH+quJ7r7z3P+3rf/nr/wCOmj+2rf8A56fzrwz/AIXhqH/POz/Onf8AC8NQ/wCednR/xHiH8r/8Bf8AkT/qpie6+89x/wCEgtf+en/jpo/t21/vf+OmvDP+F4ah/wA87P8AOnf8Lw1D/nnZ0/8AiPEP5X/4Cw/1VxPdfee4/wBvW/8Az1/8cNDa3AVPzdv7hrwv/hd2of3bT86JvjVqHrZx1MvHSLi1yv8A8BZS4VxN9Wjz74iyYubv/sIS/wDox65g4rpPGbyX5j8uPzLi4ut22L5mdjk4AH1r0H4U/smah4h8vUPEW6xt87ltlP71h7n+GvwfhfgfOOKsdKOXUm+aTbbWiu+rP1COcYTLcJGWInby6s8s8MeENT8a38dnpdnJdTyfwr91R6seiivoH4T/ALI9roKx3viSSPUr6P5kt1/49ofwP3z7kAf7Nep+FfBGmeB7BbXTbO3tYB/cXlvcnua2B1r+4vDj6POT5Fy4vM/39bz+FPyXX1Z+X59x1isd+5w/uQ/F/Mbb2cdrbiONNiJ8qqn8NTbKAMc07Nf0TTpwprkgrHwzbbuxuyjZTqK1EN2UbKdRQA3ZRsp1FADdlGynUUAN2UbKdRQA3ZRsp1FABRRRQAUUUUAFFFFABRRRQAUUUUAFFFFABRRRQAUUUUAFFFFABRRRQAUUUUAFFFFABRRRQAUUUUAFFFFABRRRQAUUUUAFFFFABRRRQAUUUUAFFFFABRRRQAUUUUAFFFFABRRRQAUUUUAFFFFABRRRQAUUUUAFFFFABRRRQAUUUUAFFFFABRRRQAUUUUAFFFFABRRRQAUUUUAFFFFABRRRQAUUUUAFFFFACJ92szxX/wAi/ff9cH/ka00+7Wf4itXvdGuoo/vyROifUg1y4pN0ZryJqfCz4a8e6XcaxqGj2dnH9ouJHdETZ7Kefbg/lXuPwm0a4+HHgq30uSX7XJGzMzbflXPOB7VkJ8APFA/5c/3kf8aXG1vwI5FH/CgfF3/PCf8A8Dn/APiq/l2pwrm8cROtRoy+4+RpRxFJ6RZ3n9vSf3E/L/69H9vyf3P8/nXC/wDCgfGH/PC4/wDA5v8A4qj/AIUD4w/54XH/AIHN/wDFUf6v8Q/8+5fcdHtsV/z7Z3X9vSf3f8/nR/b0n93/AD+dcL/woHxh/wA8Lj/wOb/4qj/hQPjD/nhcf+Bzf/FU/wDV/Pv+fcvuD22K/wCfbO6/t6T+7/n86P7ek/u/5/OuF/4UD4w/54XH/gc3/wAVR/woHxh/zwuP/A5v/iqP9Xc+/wCfcvuD22K/59s7r+3pP7v+fzo/t6T+7/n864X/AIUD4w/54XH/AIHN/wDFUf8ACgfGH/PC4/8AA5v/AIqj/V3Pv+fcvuF7XF/8+2d1/b0n93/P50f8JFJ/dX/P41wv/CgfGH/PC4/8Dm/+Ko/4UD4w/wCeFx/4HN/8VR/q7n3/AD7l9w/bYr/n2zg/jHN9uTV2/v3BH/j1eUJ92voTxF+zV4r1fSXt7ewj/edGe4G1ee9d78Hv2PtE8D+Xeax5etakOV3p+4iPsp6n6104Lw/zbMMRyVouHdv+tScHga9R3nHlPB/hF+y34g+KxjnkiOk6T/z9Tp8z/wC4nVvr8q19UfCn4C+H/hDp/l6baCS7K4lvJ/nnl/HsPYYFdrHbBBwKlAytftXDvBOX5XD3Y81Tuz6DD4WNPYasGKdsp1FfcHUN2UbKdRQA3ZRsp1FADdlGynUUAN2UbKdRQA3ZRsp1FADdlGynUUAN2UbKdRQA3ZRsp1FADdlGynUUAN2UbKdRQA3ZRsp1FABRjFFFADdlRy2/nj56morOpBSVmBVOj2//ADwh/wC+BTf7Gt/+feH/AL4FW9wo3CuP+y8H/wA+Y/8AgKNPaz7lT+x7f/n3h/74FO/se3/54Q/98CrG7/a/Sjd/tfpR/ZmD/wCfMf8AwFB7Wfcr/wBj2/8Azwh/74FH9j2//PCH/vgVY3f7X6Ubv9r9KP7Lwf8Az5j/AOAoPaT7lf8Ase3/AOeEP/fApv8AY9v/AM+8P/fAq1u/2v0o3f7X6U/7Mwf/AD5j/wCAoPaz7lf+x7f/AJ4Q/wDfApv9j2//AD7w/wDfAq1u/wBr9KN3+1+lH9mYP/nzH/wFB7Wfcr/2Pb/88If++BTTo9vj/j3g/wC+BVrd/tfpRn/a/Sl/ZmD/AOfMf/AUHtZ9ymNJth/yzh/74FWxHgcYpVPPWnVth8LQo/woKPoS5N7jEj4p+KKK6iQooooAKKKKACiiigAooooAKKKKACiiigAooooAKKKKACiiigAooooAKKKKACiiigAooooAKKKKACiiigAooooAKKKKACiiigAooooAKKKKACiiigAooooAKKKKACiiigAooooAKKKKACiiigAooooAKKKKACiiigAooooAKKKKACiiigAooooAKKKKACiiigAooooAKKKKACiiigAooooAKKKKACiiigAooooAKKKKACiiigAooooAKKKKACiiigAooooAKbsp1FADdlOxRRQAU3ZTqKAG7KNlOooAbso2U6igBuyjZTqKAG7KdRRQA3ZRsp1FABRRRQAUUUUAFFFFABRRRQAUUUUAFFFFABRRRQAUUUUAFFFFABRRRQAUUUUAFFFFABRRRQAUUUUAFFFFABRRRQAUUUUAFFFFABRRRQAUUUUAFFFFABRRRQAUUUUAFFFFABRRRQAUUUUAFFFFABRRRQAUUUUAFFFFABRRRQAUUUUAFFFFABRRRQAUUUUAFFFFABRRRQAUUUUAFFFFABRRRQAUUUUAFFFFABRRRQAUUUUAFFFFABRRRQAUUUUAFFFFABRRRQAUUUUAFFFFABRRRQAUUUUAFFFFABRRRQAUUUUAFFFFABRRRQAUUUUAFFFFABRRRQAUUUUAFFFFABRRRQAUUUUAFFFFABRRRQAUUUUAFFFFABRRRQAUUUUAFFFFABRRRQAUUUUAFFFFABRRRQAUUUUAFFFFABRRRQAUUUUAFFFFABRRRQAUUUUAFFFFABRRRQAUUUUAFFFFABRRRQAUUUUAFFFFABRRRQAUUUUAFFFFABRRRQAUUUUAFFFFABRRRQAUUUUAFFFFABRRRQAUUUUAFFFFABRRRQAUUUUAFFFFABRRRQAUUUUAFFFFABRRRQAUUUUAFFFFABRRRQAUUUUAFFFFABRRRQAUUUUAFFFFABRRRQAUUUUAFFFFABRRRQAUUUUAFFFFABRRRQAUUUUAFFFFABRRRQAUUUUAFFFFABRRRQAUUUUAFFFFABRRRQAUUUUAFFFFABRRRQAUUUUAFFFFABRRRQAUUUUAFFFFABRRRQAUUUUAFFFFABRRRQAUUUUAFFFFABRRRQAUUUUAFFFFABRRRQAUUUUAFFFFABRRRQAUUUUAFFFFABRRRQAUUUUAFFFFABRRRQAUUUUAFFFFABRRRQAUUUUAFFFFABRRRQAUUUUAFFFFABRRRQAUUUUAFFFFABRRRQAUUUUAFFFFABRRRQAUUUUAFFFFABRRRQAUUUUAFFFFABRRRQAUUUUAFFFFABRRRQAUUUUAFFFFABRRRQAUUUUAFFFFABRRRQAUUUUAFFFFABRRRQAUUUUAFFFFABRRRQAUUUUAFFFFABRRRQAUUUUAFFFFABRRRQAUUUUAFFFFABRRRQAUUUUAFFFFABRRRQAUUUUAf//Z;" vertex="1" parent="20">
                    <mxGeometry x="490" y="100" width="250" height="140.63" as="geometry"/>
                </mxCell>
                <mxCell id="29" value="Select what kind of number you would like." style="text;html=1;align=left;verticalAlign=middle;resizable=0;points=[];autosize=1;strokeColor=none;fillColor=none;fontSize=20;fontColor=light-dark(#000000,#FFFFFF);" vertex="1" parent="1">
                    <mxGeometry x="75" y="110" width="400" height="40" as="geometry"/>
                </mxCell>
                <mxCell id="30" value="" style="whiteSpace=wrap;html=1;" vertex="1" parent="1">
                    <mxGeometry x="45" y="43" width="760" height="55" as="geometry"/>
                </mxCell>
                <mxCell id="31" value="Positive or Negative #, in JavaScript" style="text;html=1;align=center;verticalAlign=middle;resizable=0;points=[];autosize=1;strokeColor=none;fillColor=none;fontSize=30;fontStyle=1" vertex="1" parent="1">
                    <mxGeometry x="78" y="48" width="510" height="50" as="geometry"/>
                </mxCell>
            </root>
        </mxGraphModel>
    </diagram>
</mxfile>